{"glyphs":{"0":{"ha":778,"x_min":74,"x_max":704,"o":"m 392 -11 q 255 19 311 -11 q 163 100 199 49 q 108 216 126 151 q 81 351 89 281 q 74 488 74 421 q 81 622 74 553 q 106 756 88 692 q 160 870 125 819 q 251 951 196 921 q 388 981 307 981 q 520 952 465 981 q 611 874 575 924 q 667 762 647 825 q 696 628 688 699 q 704 486 704 557 q 696 343 704 414 q 667 208 688 272 q 612 95 647 144 q 522 17 576 46 q 392 -11 468 -11 m 392 103 q 506 153 464 103 q 567 289 549 203 q 585 482 585 375 q 566 681 585 594 q 504 818 547 768 q 388 868 461 868 q 292 838 329 868 q 233 753 254 807 q 203 631 213 700 q 194 483 194 561 q 203 340 194 408 q 234 218 213 271 q 294 134 256 165 q 392 103 332 103 z "},"1":{"ha":778,"x_min":151,"x_max":522,"o":"m 404 0 l 404 781 l 440 719 l 151 719 l 151 814 l 319 814 q 383 832 361 814 q 404 894 404 850 l 404 968 l 522 968 l 522 0 l 404 0 z "},"2":{"ha":778,"x_min":65,"x_max":713,"o":"m 67 0 l 67 97 q 180 183 115 136 q 310 286 244 231 q 433 404 376 342 q 524 536 489 467 q 558 679 558 606 q 513 813 558 761 q 378 864 467 864 q 269 834 313 864 q 203 752 225 804 q 181 633 182 700 l 65 642 q 86 770 65 710 q 147 877 107 831 q 247 951 188 924 q 382 978 306 978 q 535 941 469 978 q 637 838 600 904 q 674 683 674 772 q 645 533 674 606 q 566 396 617 461 q 450 272 515 331 q 311 163 385 214 q 161 68 238 111 l 192 110 l 713 110 l 713 0 l 67 0 z "},"3":{"ha":778,"x_min":36,"x_max":726,"o":"m 382 -11 q 200 27 278 -11 q 79 134 122 65 q 36 294 36 203 l 153 301 q 217 156 153 210 q 386 103 281 103 q 506 125 456 103 q 583 189 556 147 q 610 286 610 231 q 588 372 610 338 q 527 426 565 406 q 438 454 489 446 q 328 463 386 463 l 328 556 q 412 563 371 556 q 485 589 453 571 q 537 638 518 607 q 556 714 556 668 q 533 794 556 760 q 472 848 511 829 q 381 867 433 867 q 246 819 294 867 q 196 699 197 772 l 81 706 q 119 848 81 786 q 227 944 158 910 q 385 979 296 979 q 534 947 469 979 q 636 857 599 914 q 674 725 674 800 q 661 651 674 683 q 626 593 649 618 q 573 551 603 568 q 510 522 543 533 q 590 494 551 513 q 660 447 629 476 q 708 378 690 418 q 726 285 726 338 q 683 131 726 197 q 562 26 639 64 q 382 -11 485 -11 z "},"4":{"ha":778,"x_min":22,"x_max":757,"o":"m 483 0 l 483 231 l 22 231 l 22 324 l 493 968 l 601 968 l 601 340 l 757 340 l 757 231 l 601 231 l 601 0 l 483 0 m 121 299 l 111 340 l 483 340 l 483 836 l 497 826 l 121 299 z "},"5":{"ha":778,"x_min":50,"x_max":726,"o":"m 386 -11 q 230 25 301 -11 q 112 125 158 61 q 50 271 65 189 l 165 292 q 203 195 175 239 q 278 126 232 151 q 385 101 325 101 q 503 134 454 101 q 577 219 551 167 q 603 332 603 272 q 578 438 603 390 q 508 515 554 486 q 393 543 461 543 q 282 515 332 543 q 196 435 232 488 l 81 467 l 171 968 l 682 968 l 682 858 l 214 858 l 276 908 l 208 533 l 175 540 q 290 629 229 604 q 410 654 350 654 q 574 610 503 654 q 686 493 646 567 q 726 332 726 419 q 701 201 726 263 q 631 91 676 139 q 522 16 585 43 q 386 -11 460 -11 z "},"6":{"ha":778,"x_min":24,"x_max":697,"o":"m 501 968 l 254 572 l 240 590 q 307 622 272 611 q 376 633 342 633 q 540 590 467 633 q 655 475 613 547 q 697 314 697 403 q 651 147 697 221 q 530 31 606 74 q 361 -11 454 -11 q 192 31 269 -11 q 69 147 115 74 q 24 313 24 221 q 38 405 24 360 q 76 489 53 450 l 367 968 l 501 968 m 361 529 q 253 501 303 529 q 174 425 204 474 q 144 314 144 376 q 174 204 144 253 q 252 128 203 156 q 361 100 301 100 q 470 128 421 100 q 549 204 519 156 q 578 315 578 253 q 549 425 578 376 q 471 501 519 474 q 361 529 422 529 z "},"7":{"ha":778,"x_min":39,"x_max":733,"o":"m 144 0 l 617 900 l 649 858 l 39 858 l 39 968 l 733 968 l 733 878 l 275 0 l 144 0 z "},"8":{"ha":778,"x_min":53,"x_max":725,"o":"m 389 -11 q 226 22 303 -11 q 101 119 149 54 q 53 279 53 183 q 97 431 53 365 q 221 526 140 496 q 136 603 168 553 q 104 722 104 654 q 146 861 104 804 q 253 949 188 918 q 390 979 318 979 q 533 947 468 979 q 635 857 597 915 q 674 718 674 799 q 642 601 674 650 q 557 526 611 553 q 681 431 638 496 q 725 279 725 365 q 677 119 725 183 q 553 22 629 54 q 389 -11 476 -11 m 389 100 q 498 122 449 100 q 577 185 547 143 q 607 290 607 228 q 579 391 607 349 q 502 456 551 433 q 389 479 453 479 q 276 456 325 479 q 198 391 226 433 q 169 290 169 349 q 200 185 169 228 q 281 122 231 143 q 389 100 331 100 m 392 560 q 510 601 464 560 q 557 710 557 643 q 512 824 557 781 q 390 868 467 868 q 306 850 344 868 q 245 798 268 832 q 222 715 222 764 q 269 602 222 644 q 392 560 317 560 z "},"9":{"ha":778,"x_min":51,"x_max":725,"o":"m 247 0 l 494 396 l 508 378 q 442 346 478 357 q 372 335 407 335 q 209 378 282 335 q 94 493 136 421 q 51 654 51 565 q 97 821 51 747 q 219 937 143 894 q 388 979 296 979 q 557 937 481 979 q 679 822 633 894 q 725 656 725 749 q 710 564 725 608 q 672 479 696 519 l 382 0 l 247 0 m 388 439 q 496 467 447 439 q 574 543 544 494 q 604 654 604 592 q 575 765 604 717 q 497 840 546 813 q 388 868 447 868 q 278 840 328 868 q 200 764 229 813 q 171 653 171 715 q 200 543 171 592 q 278 467 229 494 q 388 439 328 439 z "},"A":{"ha":885,"x_min":24,"x_max":860,"o":"m 24 0 l 393 968 l 490 968 l 860 0 l 726 0 l 443 793 l 158 0 l 24 0 m 229 228 l 267 338 l 617 338 l 657 228 l 229 228 z "},"Á":{"ha":885,"x_min":24,"x_max":860,"o":"m 24 0 l 393 968 l 490 968 l 860 0 l 726 0 l 443 793 l 158 0 l 24 0 m 229 228 l 267 338 l 617 338 l 657 228 l 229 228 m 399 1056 l 550 1251 l 676 1251 l 486 1056 l 399 1056 z "},"Ă":{"ha":885,"x_min":24,"x_max":860,"o":"m 24 0 l 393 968 l 490 968 l 860 0 l 726 0 l 443 793 l 158 0 l 24 0 m 229 228 l 267 338 l 617 338 l 657 228 l 229 228 m 443 1028 q 284 1075 336 1028 q 232 1210 232 1122 l 317 1210 q 351 1126 317 1154 q 443 1099 386 1099 q 536 1127 501 1099 q 571 1210 571 1156 l 654 1210 q 601 1074 654 1119 q 443 1028 547 1028 z "},"Ắ":{"ha":885,"x_min":24,"x_max":860,"o":"m 24 0 l 393 968 l 490 968 l 860 0 l 726 0 l 443 793 l 158 0 l 24 0 m 229 228 l 267 338 l 617 338 l 657 228 l 229 228 m 443 1028 q 284 1075 336 1028 q 232 1210 232 1122 l 308 1210 q 344 1126 308 1154 q 443 1099 381 1099 q 542 1127 507 1099 q 578 1210 578 1156 l 654 1210 q 601 1074 654 1119 q 443 1028 547 1028 m 394 1204 l 486 1378 l 579 1378 l 467 1204 l 394 1204 z "},"Ặ":{"ha":885,"x_min":24,"x_max":860,"o":"m 24 0 l 393 968 l 490 968 l 860 0 l 726 0 l 443 793 l 158 0 l 24 0 m 229 228 l 267 338 l 617 338 l 657 228 l 229 228 m 374 -242 l 374 -96 l 513 -96 l 513 -242 l 374 -242 m 443 1028 q 284 1075 336 1028 q 232 1210 232 1122 l 317 1210 q 351 1126 317 1154 q 443 1099 386 1099 q 536 1127 501 1099 q 571 1210 571 1156 l 654 1210 q 601 1074 654 1119 q 443 1028 547 1028 z "},"Ằ":{"ha":885,"x_min":24,"x_max":860,"o":"m 24 0 l 393 968 l 490 968 l 860 0 l 726 0 l 443 793 l 158 0 l 24 0 m 229 228 l 267 338 l 617 338 l 657 228 l 229 228 m 443 1028 q 284 1075 336 1028 q 232 1210 232 1122 l 308 1210 q 344 1126 308 1154 q 443 1099 381 1099 q 542 1127 507 1099 q 578 1210 578 1156 l 654 1210 q 601 1074 654 1119 q 443 1028 547 1028 m 419 1204 l 308 1378 l 401 1378 l 493 1204 l 419 1204 z "},"Ẳ":{"ha":885,"x_min":24,"x_max":860,"o":"m 24 0 l 393 968 l 490 968 l 860 0 l 726 0 l 443 793 l 158 0 l 24 0 m 229 228 l 267 338 l 617 338 l 657 228 l 229 228 m 443 1028 q 284 1075 336 1028 q 232 1210 232 1122 l 308 1210 q 344 1126 308 1154 q 443 1099 381 1099 q 542 1127 507 1099 q 578 1210 578 1156 l 654 1210 q 601 1074 654 1119 q 443 1028 547 1028 m 410 1169 l 396 1207 q 462 1224 436 1211 q 488 1267 488 1238 q 452 1313 488 1299 q 374 1328 417 1328 l 353 1328 l 353 1379 l 374 1379 q 509 1351 460 1379 q 558 1272 558 1324 q 541 1221 558 1242 q 490 1188 524 1200 q 410 1169 457 1175 z "},"Ẵ":{"ha":885,"x_min":24,"x_max":860,"o":"m 24 0 l 393 968 l 490 968 l 860 0 l 726 0 l 443 793 l 158 0 l 24 0 m 229 228 l 267 338 l 617 338 l 657 228 l 229 228 m 443 1028 q 284 1075 336 1028 q 232 1210 232 1122 l 308 1210 q 344 1126 308 1154 q 443 1099 381 1099 q 542 1127 507 1099 q 578 1210 578 1156 l 654 1210 q 601 1074 654 1119 q 443 1028 547 1028 m 529 1238 q 472 1247 494 1238 q 431 1268 449 1256 q 396 1290 413 1281 q 358 1299 379 1299 q 322 1285 336 1299 q 301 1247 308 1271 l 236 1249 q 275 1332 243 1301 q 358 1363 307 1363 q 415 1354 392 1363 q 457 1335 439 1346 q 492 1315 475 1324 q 529 1307 508 1307 q 566 1318 553 1307 q 585 1353 579 1329 l 654 1351 q 617 1269 649 1300 q 529 1238 586 1238 z "},"Ǎ":{"ha":885,"x_min":24,"x_max":860,"o":"m 24 0 l 393 968 l 490 968 l 860 0 l 726 0 l 443 793 l 158 0 l 24 0 m 229 228 l 267 338 l 617 338 l 657 228 l 229 228 m 443 1035 l 233 1251 l 326 1251 l 443 1132 l 560 1251 l 653 1251 l 443 1035 z "},"Â":{"ha":885,"x_min":24,"x_max":860,"o":"m 24 0 l 393 968 l 490 968 l 860 0 l 726 0 l 443 793 l 158 0 l 24 0 m 229 228 l 267 338 l 617 338 l 657 228 l 229 228 m 233 1043 l 443 1268 l 653 1043 l 556 1043 l 443 1167 l 332 1043 l 233 1043 z "},"Ấ":{"ha":885,"x_min":24,"x_max":860,"o":"m 24 0 l 393 968 l 490 968 l 860 0 l 726 0 l 443 793 l 158 0 l 24 0 m 229 228 l 267 338 l 617 338 l 657 228 l 229 228 m 233 1033 l 443 1231 l 653 1033 l 556 1033 l 443 1143 l 331 1033 l 233 1033 m 549 1176 l 649 1364 l 746 1364 l 622 1176 l 549 1176 z "},"Ậ":{"ha":885,"x_min":24,"x_max":860,"o":"m 24 0 l 393 968 l 490 968 l 860 0 l 726 0 l 443 793 l 158 0 l 24 0 m 229 228 l 267 338 l 617 338 l 657 228 l 229 228 m 374 -242 l 374 -96 l 513 -96 l 513 -242 l 374 -242 m 233 1043 l 443 1268 l 653 1043 l 557 1043 l 443 1167 l 331 1043 l 233 1043 z "},"Ầ":{"ha":885,"x_min":24,"x_max":860,"o":"m 24 0 l 393 968 l 490 968 l 860 0 l 726 0 l 443 793 l 158 0 l 24 0 m 229 228 l 267 338 l 617 338 l 657 228 l 229 228 m 233 1033 l 443 1231 l 653 1033 l 556 1033 l 443 1143 l 332 1033 l 233 1033 m 615 1176 l 492 1364 l 589 1364 l 689 1176 l 615 1176 z "},"Ẩ":{"ha":885,"x_min":24,"x_max":860,"o":"m 24 0 l 393 968 l 490 968 l 860 0 l 726 0 l 443 793 l 158 0 l 24 0 m 229 228 l 267 338 l 617 338 l 657 228 l 229 228 m 233 1033 l 443 1231 l 653 1033 l 556 1033 l 443 1143 l 332 1033 l 233 1033 m 586 1139 l 574 1183 q 642 1205 618 1190 q 665 1246 665 1219 q 649 1285 665 1271 q 606 1305 632 1299 q 550 1311 579 1311 l 529 1311 l 529 1375 l 550 1375 q 686 1343 638 1375 q 735 1254 735 1311 q 714 1190 735 1213 q 659 1156 693 1167 q 586 1139 625 1146 z "},"Ẫ":{"ha":885,"x_min":24,"x_max":860,"o":"m 24 0 l 393 968 l 490 968 l 860 0 l 726 0 l 443 793 l 158 0 l 24 0 m 229 228 l 267 338 l 617 338 l 657 228 l 229 228 m 233 1033 l 443 1231 l 653 1033 l 557 1033 l 443 1143 l 331 1033 l 233 1033 m 526 1249 q 469 1258 493 1249 q 428 1279 446 1267 q 394 1301 411 1292 q 357 1310 378 1310 q 319 1295 332 1310 q 301 1258 307 1281 l 235 1261 q 274 1344 242 1314 q 357 1375 306 1375 q 413 1367 390 1375 q 454 1347 436 1358 q 489 1326 472 1335 q 526 1318 506 1318 q 563 1328 550 1318 q 582 1364 576 1339 l 651 1361 q 616 1280 646 1311 q 526 1249 586 1249 z "},"Ä":{"ha":885,"x_min":24,"x_max":860,"o":"m 24 0 l 393 968 l 490 968 l 860 0 l 726 0 l 443 793 l 158 0 l 24 0 m 229 228 l 267 338 l 617 338 l 657 228 l 229 228 m 503 1092 l 503 1251 l 642 1251 l 642 1092 l 503 1092 m 246 1092 l 246 1251 l 385 1251 l 385 1092 l 246 1092 z "},"Ạ":{"ha":885,"x_min":24,"x_max":860,"o":"m 24 0 l 393 968 l 490 968 l 860 0 l 726 0 l 443 793 l 158 0 l 24 0 m 229 228 l 267 338 l 617 338 l 657 228 l 229 228 m 374 -242 l 374 -96 l 513 -96 l 513 -242 l 374 -242 z "},"À":{"ha":885,"x_min":24,"x_max":860,"o":"m 24 0 l 393 968 l 490 968 l 860 0 l 726 0 l 443 793 l 158 0 l 24 0 m 229 228 l 267 338 l 617 338 l 657 228 l 229 228 m 399 1056 l 218 1251 l 343 1251 l 488 1056 l 399 1056 z "},"Ả":{"ha":885,"x_min":24,"x_max":860,"o":"m 24 0 l 393 968 l 490 968 l 860 0 l 726 0 l 443 793 l 158 0 l 24 0 m 229 228 l 267 338 l 617 338 l 657 228 l 229 228 m 415 1010 l 407 1054 q 476 1072 443 1061 q 510 1118 510 1083 q 471 1170 510 1156 q 383 1185 432 1185 l 363 1185 l 363 1253 l 383 1253 q 535 1219 476 1253 q 594 1126 594 1186 q 566 1060 594 1083 q 497 1026 538 1036 q 415 1010 456 1015 z "},"Ā":{"ha":885,"x_min":24,"x_max":860,"o":"m 24 0 l 393 968 l 490 968 l 860 0 l 726 0 l 443 793 l 158 0 l 24 0 m 229 228 l 267 338 l 617 338 l 657 228 l 229 228 m 254 1101 l 254 1172 l 631 1172 l 631 1101 l 254 1101 z "},"Ą":{"ha":885,"x_min":24,"x_max":893,"o":"m 24 0 l 393 968 l 490 968 l 860 0 l 726 0 l 443 793 l 158 0 l 24 0 m 229 228 l 267 338 l 617 338 l 657 228 l 229 228 m 757 -283 q 668 -253 706 -283 q 631 -168 631 -224 q 649 -95 631 -128 q 696 -37 668 -62 q 751 3 724 -12 l 844 0 q 799 -27 824 -11 q 752 -63 775 -43 q 715 -108 729 -83 q 701 -158 701 -132 q 717 -200 701 -186 q 757 -214 733 -214 q 806 -202 779 -214 q 857 -168 832 -190 l 893 -224 q 827 -269 863 -254 q 757 -283 792 -283 z "},"Å":{"ha":885,"x_min":24,"x_max":860,"o":"m 24 0 l 393 968 l 490 968 l 860 0 l 726 0 l 443 793 l 158 0 l 24 0 m 229 228 l 267 338 l 617 338 l 657 228 l 229 228 m 444 906 q 372 925 404 906 q 322 977 340 944 q 303 1047 303 1010 q 322 1118 303 1086 q 373 1169 340 1150 q 444 1189 406 1189 q 515 1169 483 1189 q 567 1118 547 1150 q 586 1047 586 1086 q 567 976 586 1008 q 515 924 547 943 q 444 906 483 906 m 444 971 q 499 993 476 971 q 521 1047 521 1015 q 499 1102 521 1081 q 444 1124 478 1124 q 390 1101 411 1124 q 368 1047 368 1079 q 390 993 368 1015 q 444 971 413 971 z "},"Ǻ":{"ha":885,"x_min":24,"x_max":860,"o":"m 24 0 l 393 968 l 490 968 l 860 0 l 726 0 l 443 793 l 158 0 l 24 0 m 229 228 l 267 338 l 617 338 l 657 228 l 229 228 m 444 906 q 372 925 404 906 q 322 977 340 944 q 303 1047 303 1010 q 322 1118 303 1086 q 373 1169 340 1150 q 444 1189 406 1189 q 515 1169 483 1189 q 567 1118 547 1150 q 586 1047 586 1086 q 567 976 586 1008 q 515 924 547 943 q 444 906 483 906 m 444 971 q 499 993 476 971 q 521 1047 521 1015 q 499 1102 521 1081 q 444 1124 478 1124 q 390 1101 411 1124 q 368 1047 368 1079 q 390 993 368 1015 q 444 971 413 971 m 474 1117 l 625 1313 l 751 1313 l 561 1117 l 474 1117 z "},"Ã":{"ha":885,"x_min":24,"x_max":860,"o":"m 24 0 l 393 968 l 490 968 l 860 0 l 726 0 l 443 793 l 158 0 l 24 0 m 229 228 l 267 338 l 617 338 l 657 228 l 229 228 m 535 1032 q 478 1044 501 1032 q 440 1073 456 1056 q 410 1108 424 1090 q 383 1137 397 1125 q 347 1149 368 1149 q 304 1121 321 1149 q 288 1043 288 1093 l 218 1043 q 254 1170 218 1125 q 353 1215 290 1215 q 404 1203 383 1215 q 441 1174 425 1192 q 471 1138 457 1156 q 500 1109 485 1121 q 536 1097 515 1097 q 576 1128 560 1097 q 593 1210 593 1158 l 665 1210 q 630 1079 665 1126 q 535 1032 594 1032 z "},"Æ":{"ha":1244,"x_min":24,"x_max":1179,"o":"m 24 0 l 393 968 l 1179 968 l 1179 858 l 669 858 l 669 542 l 1114 542 l 1114 431 l 669 431 l 669 110 l 1179 110 l 1179 0 l 546 0 l 546 861 l 468 861 l 158 0 l 24 0 m 218 228 l 257 340 l 576 340 l 576 228 l 218 228 z "},"Ǽ":{"ha":1244,"x_min":24,"x_max":1179,"o":"m 24 0 l 393 968 l 1179 968 l 1179 858 l 669 858 l 669 542 l 1114 542 l 1114 431 l 669 431 l 669 110 l 1179 110 l 1179 0 l 546 0 l 546 861 l 468 861 l 158 0 l 24 0 m 218 228 l 257 340 l 576 340 l 576 228 l 218 228 m 579 1056 l 731 1251 l 857 1251 l 667 1056 l 579 1056 z "},"B":{"ha":835,"x_min":110,"x_max":764,"o":"m 110 0 l 110 968 l 419 968 q 635 904 557 968 q 714 726 714 840 q 682 600 714 654 q 592 518 650 546 q 720 432 676 494 q 764 274 764 369 q 683 72 764 143 q 453 0 601 0 l 110 0 m 232 113 l 444 113 q 643 279 643 113 q 598 402 643 358 q 471 446 553 446 l 232 446 l 232 113 m 232 556 l 439 556 q 551 597 508 556 q 593 708 593 638 q 547 817 593 778 q 419 856 501 856 l 232 856 l 232 556 z "},"C":{"ha":978,"x_min":69,"x_max":924,"o":"m 517 -17 q 283 46 383 -17 q 126 222 182 108 q 69 485 69 335 q 126 747 69 635 q 283 922 182 860 q 517 985 383 985 q 769 913 663 985 q 924 713 876 840 l 810 669 q 699 816 774 764 q 517 868 624 868 q 344 821 418 868 q 231 688 271 774 q 192 485 192 603 q 231 281 192 367 q 344 147 271 194 q 517 100 418 100 q 699 153 624 100 q 810 299 774 206 l 924 257 q 769 57 876 131 q 517 -17 663 -17 z "},"Ć":{"ha":978,"x_min":69,"x_max":924,"o":"m 517 -17 q 283 46 383 -17 q 126 222 182 108 q 69 485 69 335 q 126 747 69 635 q 283 922 182 860 q 517 985 383 985 q 769 913 663 985 q 924 713 876 840 l 810 669 q 699 816 774 764 q 517 868 624 868 q 344 821 418 868 q 231 688 271 774 q 192 485 192 603 q 231 281 192 367 q 344 147 271 194 q 517 100 418 100 q 699 153 624 100 q 810 299 774 206 l 924 257 q 769 57 876 131 q 517 -17 663 -17 m 457 1056 l 608 1251 l 735 1251 l 544 1056 l 457 1056 z "},"Č":{"ha":978,"x_min":69,"x_max":924,"o":"m 517 -17 q 283 46 383 -17 q 126 222 182 108 q 69 485 69 335 q 126 747 69 635 q 283 922 182 860 q 517 985 383 985 q 769 913 663 985 q 924 713 876 840 l 810 669 q 699 816 774 764 q 517 868 624 868 q 344 821 418 868 q 231 688 271 774 q 192 485 192 603 q 231 281 192 367 q 344 147 271 194 q 517 100 418 100 q 699 153 624 100 q 810 299 774 206 l 924 257 q 769 57 876 131 q 517 -17 663 -17 m 501 1035 l 292 1251 l 385 1251 l 501 1132 l 618 1251 l 711 1251 l 501 1035 z "},"Ç":{"ha":978,"x_min":69,"x_max":924,"o":"m 517 -17 q 283 46 383 -17 q 126 222 182 108 q 69 485 69 335 q 126 747 69 635 q 283 922 182 860 q 517 985 383 985 q 769 913 663 985 q 924 713 876 840 l 810 669 q 699 816 774 764 q 517 868 624 868 q 344 821 418 868 q 231 688 271 774 q 192 485 192 603 q 231 281 192 367 q 344 147 271 194 q 517 100 418 100 q 699 153 624 100 q 810 299 774 206 l 924 257 q 769 57 876 131 q 517 -17 663 -17 m 475 -283 q 428 -278 453 -283 q 383 -262 404 -274 q 344 -236 361 -251 l 385 -189 q 428 -214 404 -206 q 474 -222 451 -222 q 522 -210 501 -222 q 543 -171 543 -197 q 528 -138 543 -150 q 490 -120 514 -126 q 438 -111 465 -114 q 385 -108 410 -108 l 472 11 l 546 11 l 482 -64 q 575 -96 535 -72 q 615 -168 615 -119 q 574 -253 615 -224 q 475 -283 532 -283 z "},"Ĉ":{"ha":978,"x_min":69,"x_max":924,"o":"m 517 -17 q 283 46 383 -17 q 126 222 182 108 q 69 485 69 335 q 126 747 69 635 q 283 922 182 860 q 517 985 383 985 q 769 913 663 985 q 924 713 876 840 l 810 669 q 699 816 774 764 q 517 868 624 868 q 344 821 418 868 q 231 688 271 774 q 192 485 192 603 q 231 281 192 367 q 344 147 271 194 q 517 100 418 100 q 699 153 624 100 q 810 299 774 206 l 924 257 q 769 57 876 131 q 517 -17 663 -17 m 292 1043 l 501 1268 l 711 1043 l 614 1043 l 501 1167 l 390 1043 l 292 1043 z "},"Ċ":{"ha":978,"x_min":69,"x_max":924,"o":"m 517 -17 q 283 46 383 -17 q 126 222 182 108 q 69 485 69 335 q 126 747 69 635 q 283 922 182 860 q 517 985 383 985 q 769 913 663 985 q 924 713 876 840 l 810 669 q 699 816 774 764 q 517 868 624 868 q 344 821 418 868 q 231 688 271 774 q 192 485 192 603 q 231 281 192 367 q 344 147 271 194 q 517 100 418 100 q 699 153 624 100 q 810 299 774 206 l 924 257 q 769 57 876 131 q 517 -17 663 -17 m 432 1092 l 432 1251 l 571 1251 l 571 1092 l 432 1092 z "},"D":{"ha":947,"x_min":110,"x_max":876,"o":"m 110 0 l 110 968 l 378 968 q 746 840 615 968 q 876 476 876 711 q 747 123 876 246 q 376 0 618 0 l 110 0 m 232 113 l 365 113 q 576 149 489 113 q 708 267 663 186 q 753 481 753 349 q 708 695 753 613 q 578 817 663 778 q 376 856 494 856 l 232 856 l 232 113 z "},"Ð":{"ha":947,"x_min":6,"x_max":876,"o":"m 110 0 l 110 968 l 378 968 q 746 840 615 968 q 876 476 876 711 q 747 123 876 246 q 376 0 618 0 l 110 0 m 232 113 l 365 113 q 576 149 489 113 q 708 267 663 186 q 753 481 753 349 q 708 695 753 613 q 578 817 663 778 q 376 856 494 856 l 232 856 l 232 113 m 6 446 l 6 525 l 403 525 l 403 446 l 6 446 z "},"Ď":{"ha":947,"x_min":110,"x_max":876,"o":"m 110 0 l 110 968 l 378 968 q 746 840 615 968 q 876 476 876 711 q 747 123 876 246 q 376 0 618 0 l 110 0 m 232 113 l 365 113 q 576 149 489 113 q 708 267 663 186 q 753 481 753 349 q 708 695 753 613 q 578 817 663 778 q 376 856 494 856 l 232 856 l 232 113 m 460 1035 l 250 1251 l 343 1251 l 460 1132 l 576 1251 l 669 1251 l 460 1035 z "},"Đ":{"ha":947,"x_min":6,"x_max":876,"o":"m 110 0 l 110 968 l 378 968 q 746 840 615 968 q 876 476 876 711 q 747 123 876 246 q 376 0 618 0 l 110 0 m 232 113 l 365 113 q 576 149 489 113 q 708 267 663 186 q 753 481 753 349 q 708 695 753 613 q 578 817 663 778 q 376 856 494 856 l 232 856 l 232 113 m 6 446 l 6 525 l 403 525 l 403 446 l 6 446 z "},"E":{"ha":813,"x_min":110,"x_max":747,"o":"m 110 0 l 110 968 l 747 968 l 747 858 l 232 858 l 232 549 l 700 549 l 700 439 l 232 439 l 232 110 l 747 110 l 747 0 l 110 0 z "},"É":{"ha":813,"x_min":110,"x_max":747,"o":"m 110 0 l 110 968 l 747 968 l 747 858 l 232 858 l 232 549 l 700 549 l 700 439 l 232 439 l 232 110 l 747 110 l 747 0 l 110 0 m 385 1056 l 536 1251 l 663 1251 l 472 1056 l 385 1056 z "},"Ĕ":{"ha":813,"x_min":110,"x_max":747,"o":"m 110 0 l 110 968 l 747 968 l 747 858 l 232 858 l 232 549 l 700 549 l 700 439 l 232 439 l 232 110 l 747 110 l 747 0 l 110 0 m 429 1028 q 270 1075 322 1028 q 218 1210 218 1122 l 303 1210 q 338 1126 303 1154 q 429 1099 372 1099 q 522 1127 488 1099 q 557 1210 557 1156 l 640 1210 q 587 1074 640 1119 q 429 1028 533 1028 z "},"Ě":{"ha":813,"x_min":110,"x_max":747,"o":"m 110 0 l 110 968 l 747 968 l 747 858 l 232 858 l 232 549 l 700 549 l 700 439 l 232 439 l 232 110 l 747 110 l 747 0 l 110 0 m 429 1035 l 219 1251 l 313 1251 l 429 1132 l 546 1251 l 639 1251 l 429 1035 z "},"Ê":{"ha":813,"x_min":110,"x_max":747,"o":"m 110 0 l 110 968 l 747 968 l 747 858 l 232 858 l 232 549 l 700 549 l 700 439 l 232 439 l 232 110 l 747 110 l 747 0 l 110 0 m 219 1043 l 429 1268 l 639 1043 l 542 1043 l 429 1167 l 318 1043 l 219 1043 z "},"Ế":{"ha":813,"x_min":110,"x_max":747,"o":"m 110 0 l 110 968 l 747 968 l 747 858 l 232 858 l 232 549 l 700 549 l 700 439 l 232 439 l 232 110 l 747 110 l 747 0 l 110 0 m 219 1033 l 429 1231 l 639 1033 l 542 1033 l 429 1143 l 317 1033 l 219 1033 m 535 1176 l 635 1364 l 732 1364 l 608 1176 l 535 1176 z "},"Ệ":{"ha":813,"x_min":110,"x_max":747,"o":"m 110 0 l 110 968 l 747 968 l 747 858 l 232 858 l 232 549 l 700 549 l 700 439 l 232 439 l 232 110 l 747 110 l 747 0 l 110 0 m 360 -242 l 360 -96 l 499 -96 l 499 -242 l 360 -242 m 219 1043 l 429 1268 l 639 1043 l 543 1043 l 429 1167 l 317 1043 l 219 1043 z "},"Ề":{"ha":813,"x_min":110,"x_max":747,"o":"m 110 0 l 110 968 l 747 968 l 747 858 l 232 858 l 232 549 l 700 549 l 700 439 l 232 439 l 232 110 l 747 110 l 747 0 l 110 0 m 219 1033 l 429 1231 l 639 1033 l 542 1033 l 429 1143 l 318 1033 l 219 1033 m 601 1176 l 478 1364 l 575 1364 l 675 1176 l 601 1176 z "},"Ể":{"ha":813,"x_min":110,"x_max":747,"o":"m 110 0 l 110 968 l 747 968 l 747 858 l 232 858 l 232 549 l 700 549 l 700 439 l 232 439 l 232 110 l 747 110 l 747 0 l 110 0 m 219 1033 l 429 1231 l 639 1033 l 542 1033 l 429 1143 l 318 1033 l 219 1033 m 572 1139 l 560 1183 q 628 1205 604 1190 q 651 1246 651 1219 q 635 1285 651 1271 q 592 1305 618 1299 q 536 1311 565 1311 l 515 1311 l 515 1375 l 536 1375 q 672 1343 624 1375 q 721 1254 721 1311 q 700 1190 721 1213 q 645 1156 679 1167 q 572 1139 611 1146 z "},"Ễ":{"ha":813,"x_min":110,"x_max":747,"o":"m 110 0 l 110 968 l 747 968 l 747 858 l 232 858 l 232 549 l 700 549 l 700 439 l 232 439 l 232 110 l 747 110 l 747 0 l 110 0 m 219 1033 l 429 1231 l 639 1033 l 543 1033 l 429 1143 l 317 1033 l 219 1033 m 513 1249 q 456 1258 479 1249 q 415 1279 432 1267 q 381 1301 397 1292 q 343 1310 364 1310 q 306 1295 318 1310 q 288 1258 293 1281 l 221 1261 q 260 1344 228 1314 q 343 1375 292 1375 q 399 1367 376 1375 q 440 1347 422 1358 q 475 1326 458 1335 q 513 1318 492 1318 q 549 1328 536 1318 q 568 1364 563 1339 l 638 1361 q 602 1280 632 1311 q 513 1249 572 1249 z "},"Ë":{"ha":813,"x_min":110,"x_max":747,"o":"m 110 0 l 110 968 l 747 968 l 747 858 l 232 858 l 232 549 l 700 549 l 700 439 l 232 439 l 232 110 l 747 110 l 747 0 l 110 0 m 489 1092 l 489 1251 l 628 1251 l 628 1092 l 489 1092 m 232 1092 l 232 1251 l 371 1251 l 371 1092 l 232 1092 z "},"Ė":{"ha":813,"x_min":110,"x_max":747,"o":"m 110 0 l 110 968 l 747 968 l 747 858 l 232 858 l 232 549 l 700 549 l 700 439 l 232 439 l 232 110 l 747 110 l 747 0 l 110 0 m 360 1092 l 360 1251 l 499 1251 l 499 1092 l 360 1092 z "},"Ẹ":{"ha":813,"x_min":110,"x_max":747,"o":"m 110 0 l 110 968 l 747 968 l 747 858 l 232 858 l 232 549 l 700 549 l 700 439 l 232 439 l 232 110 l 747 110 l 747 0 l 110 0 m 360 -242 l 360 -96 l 499 -96 l 499 -242 l 360 -242 z "},"È":{"ha":813,"x_min":110,"x_max":747,"o":"m 110 0 l 110 968 l 747 968 l 747 858 l 232 858 l 232 549 l 700 549 l 700 439 l 232 439 l 232 110 l 747 110 l 747 0 l 110 0 m 385 1056 l 204 1251 l 329 1251 l 474 1056 l 385 1056 z "},"Ẻ":{"ha":813,"x_min":110,"x_max":747,"o":"m 110 0 l 110 968 l 747 968 l 747 858 l 232 858 l 232 549 l 700 549 l 700 439 l 232 439 l 232 110 l 747 110 l 747 0 l 110 0 m 401 1010 l 393 1054 q 463 1072 429 1061 q 496 1118 496 1083 q 457 1170 496 1156 q 369 1185 418 1185 l 349 1185 l 349 1253 l 369 1253 q 522 1219 463 1253 q 581 1126 581 1186 q 552 1060 581 1083 q 483 1026 524 1036 q 401 1010 442 1015 z "},"Ē":{"ha":813,"x_min":110,"x_max":747,"o":"m 110 0 l 110 968 l 747 968 l 747 858 l 232 858 l 232 549 l 700 549 l 700 439 l 232 439 l 232 110 l 747 110 l 747 0 l 110 0 m 240 1101 l 240 1172 l 617 1172 l 617 1101 l 240 1101 z "},"Ę":{"ha":813,"x_min":110,"x_max":796,"o":"m 110 0 l 110 968 l 747 968 l 747 858 l 232 858 l 232 549 l 700 549 l 700 439 l 232 439 l 232 110 l 747 110 l 747 0 l 110 0 m 660 -283 q 571 -253 608 -283 q 533 -168 533 -224 q 552 -95 533 -128 q 599 -37 571 -62 q 654 3 626 -12 l 747 0 q 702 -27 726 -11 q 655 -63 678 -43 q 618 -108 632 -83 q 604 -158 604 -132 q 620 -200 604 -186 q 660 -214 636 -214 q 708 -202 682 -214 q 760 -168 735 -190 l 796 -224 q 730 -269 765 -254 q 660 -283 694 -283 z "},"Ẽ":{"ha":813,"x_min":110,"x_max":747,"o":"m 110 0 l 110 968 l 747 968 l 747 858 l 232 858 l 232 549 l 700 549 l 700 439 l 232 439 l 232 110 l 747 110 l 747 0 l 110 0 m 521 1032 q 465 1044 488 1032 q 426 1073 442 1056 q 397 1108 410 1090 q 369 1137 383 1125 q 333 1149 354 1149 q 290 1121 307 1149 q 274 1043 274 1093 l 204 1043 q 240 1170 204 1125 q 339 1215 276 1215 q 390 1203 369 1215 q 427 1174 411 1192 q 457 1138 443 1156 q 486 1109 471 1121 q 522 1097 501 1097 q 563 1128 546 1097 q 579 1210 579 1158 l 651 1210 q 616 1079 651 1126 q 521 1032 581 1032 z "},"Ə":{"ha":1040,"x_min":69,"x_max":969,"o":"m 519 -17 q 280 44 381 -17 q 124 219 179 106 q 69 488 69 332 l 192 488 q 278 201 192 303 q 519 100 364 100 q 762 201 676 100 q 847 488 847 303 q 761 771 847 672 q 517 869 675 869 q 333 822 408 869 q 219 671 257 774 l 107 715 q 262 917 158 847 q 517 986 365 986 q 758 926 657 986 q 915 753 860 865 q 969 486 969 642 q 915 218 969 331 q 759 44 860 106 q 519 -17 658 -17 m 132 393 l 132 488 l 939 488 l 939 393 l 132 393 z "},"F":{"ha":785,"x_min":110,"x_max":744,"o":"m 110 0 l 110 968 l 744 968 l 744 858 l 232 858 l 232 549 l 676 549 l 676 439 l 232 439 l 232 0 l 110 0 z "},"G":{"ha":1015,"x_min":69,"x_max":924,"o":"m 510 -17 q 280 46 379 -17 q 125 222 181 108 q 69 485 69 335 q 126 747 69 635 q 283 922 182 860 q 517 985 383 985 q 769 913 663 985 q 924 713 876 840 l 810 669 q 699 816 774 764 q 517 868 624 868 q 344 821 418 868 q 231 688 271 774 q 192 485 192 603 q 231 281 192 367 q 344 147 271 194 q 517 100 418 100 q 619 114 567 100 q 717 163 672 128 q 788 258 761 197 q 815 411 815 318 l 815 482 l 843 399 l 571 399 l 571 508 l 924 508 l 924 0 l 815 0 l 799 189 l 819 174 q 747 65 794 107 q 638 3 700 24 q 510 -17 576 -17 z "},"Ğ":{"ha":1015,"x_min":69,"x_max":924,"o":"m 510 -17 q 280 46 379 -17 q 125 222 181 108 q 69 485 69 335 q 126 747 69 635 q 283 922 182 860 q 517 985 383 985 q 769 913 663 985 q 924 713 876 840 l 810 669 q 699 816 774 764 q 517 868 624 868 q 344 821 418 868 q 231 688 271 774 q 192 485 192 603 q 231 281 192 367 q 344 147 271 194 q 517 100 418 100 q 619 114 567 100 q 717 163 672 128 q 788 258 761 197 q 815 411 815 318 l 815 482 l 843 399 l 571 399 l 571 508 l 924 508 l 924 0 l 815 0 l 799 189 l 819 174 q 747 65 794 107 q 638 3 700 24 q 510 -17 576 -17 m 517 1028 q 358 1075 410 1028 q 306 1210 306 1122 l 390 1210 q 425 1126 390 1154 q 517 1099 460 1099 q 610 1127 575 1099 q 644 1210 644 1156 l 728 1210 q 674 1074 728 1119 q 517 1028 621 1028 z "},"Ǧ":{"ha":1015,"x_min":69,"x_max":924,"o":"m 510 -17 q 280 46 379 -17 q 125 222 181 108 q 69 485 69 335 q 126 747 69 635 q 283 922 182 860 q 517 985 383 985 q 769 913 663 985 q 924 713 876 840 l 810 669 q 699 816 774 764 q 517 868 624 868 q 344 821 418 868 q 231 688 271 774 q 192 485 192 603 q 231 281 192 367 q 344 147 271 194 q 517 100 418 100 q 619 114 567 100 q 717 163 672 128 q 788 258 761 197 q 815 411 815 318 l 815 482 l 843 399 l 571 399 l 571 508 l 924 508 l 924 0 l 815 0 l 799 189 l 819 174 q 747 65 794 107 q 638 3 700 24 q 510 -17 576 -17 m 517 1035 l 307 1251 l 400 1251 l 517 1132 l 633 1251 l 726 1251 l 517 1035 z "},"Ĝ":{"ha":1015,"x_min":69,"x_max":924,"o":"m 510 -17 q 280 46 379 -17 q 125 222 181 108 q 69 485 69 335 q 126 747 69 635 q 283 922 182 860 q 517 985 383 985 q 769 913 663 985 q 924 713 876 840 l 810 669 q 699 816 774 764 q 517 868 624 868 q 344 821 418 868 q 231 688 271 774 q 192 485 192 603 q 231 281 192 367 q 344 147 271 194 q 517 100 418 100 q 619 114 567 100 q 717 163 672 128 q 788 258 761 197 q 815 411 815 318 l 815 482 l 843 399 l 571 399 l 571 508 l 924 508 l 924 0 l 815 0 l 799 189 l 819 174 q 747 65 794 107 q 638 3 700 24 q 510 -17 576 -17 m 307 1043 l 517 1268 l 726 1043 l 631 1043 l 517 1167 l 404 1043 l 307 1043 z "},"Ģ":{"ha":1015,"x_min":69,"x_max":924,"o":"m 510 -17 q 280 46 379 -17 q 125 222 181 108 q 69 485 69 335 q 126 747 69 635 q 283 922 182 860 q 517 985 383 985 q 769 913 663 985 q 924 713 876 840 l 810 669 q 699 816 774 764 q 517 868 624 868 q 344 821 418 868 q 231 688 271 774 q 192 485 192 603 q 231 281 192 367 q 344 147 271 194 q 517 100 418 100 q 619 114 567 100 q 717 163 672 128 q 788 258 761 197 q 815 411 815 318 l 815 482 l 843 399 l 571 399 l 571 508 l 924 508 l 924 0 l 815 0 l 799 189 l 819 174 q 747 65 794 107 q 638 3 700 24 q 510 -17 576 -17 m 342 -283 l 454 -76 l 579 -76 l 414 -283 l 342 -283 z "},"Ġ":{"ha":1015,"x_min":69,"x_max":924,"o":"m 510 -17 q 280 46 379 -17 q 125 222 181 108 q 69 485 69 335 q 126 747 69 635 q 283 922 182 860 q 517 985 383 985 q 769 913 663 985 q 924 713 876 840 l 810 669 q 699 816 774 764 q 517 868 624 868 q 344 821 418 868 q 231 688 271 774 q 192 485 192 603 q 231 281 192 367 q 344 147 271 194 q 517 100 418 100 q 619 114 567 100 q 717 163 672 128 q 788 258 761 197 q 815 411 815 318 l 815 482 l 843 399 l 571 399 l 571 508 l 924 508 l 924 0 l 815 0 l 799 189 l 819 174 q 747 65 794 107 q 638 3 700 24 q 510 -17 576 -17 m 447 1092 l 447 1251 l 586 1251 l 586 1092 l 447 1092 z "},"Ḡ":{"ha":1015,"x_min":69,"x_max":924,"o":"m 510 -17 q 280 46 379 -17 q 125 222 181 108 q 69 485 69 335 q 126 747 69 635 q 283 922 182 860 q 517 985 383 985 q 769 913 663 985 q 924 713 876 840 l 810 669 q 699 816 774 764 q 517 868 624 868 q 344 821 418 868 q 231 688 271 774 q 192 485 192 603 q 231 281 192 367 q 344 147 271 194 q 517 100 418 100 q 619 114 567 100 q 717 163 672 128 q 788 258 761 197 q 815 411 815 318 l 815 482 l 843 399 l 571 399 l 571 508 l 924 508 l 924 0 l 815 0 l 799 189 l 819 174 q 747 65 794 107 q 638 3 700 24 q 510 -17 576 -17 m 328 1101 l 328 1172 l 704 1172 l 704 1101 l 328 1101 z "},"H":{"ha":942,"x_min":110,"x_max":832,"o":"m 110 0 l 110 968 l 232 968 l 232 553 l 710 553 l 710 968 l 832 968 l 832 0 l 710 0 l 710 439 l 232 439 l 232 0 l 110 0 z "},"Ħ":{"ha":942,"x_min":26,"x_max":918,"o":"m 110 0 l 110 968 l 232 968 l 232 553 l 710 553 l 710 968 l 832 968 l 832 0 l 710 0 l 710 439 l 232 439 l 232 0 l 110 0 m 26 721 l 26 792 l 918 792 l 918 721 l 26 721 z "},"Ĥ":{"ha":942,"x_min":110,"x_max":832,"o":"m 110 0 l 110 968 l 232 968 l 232 553 l 710 553 l 710 968 l 832 968 l 832 0 l 710 0 l 710 439 l 232 439 l 232 0 l 110 0 m 261 1043 l 471 1268 l 681 1043 l 585 1043 l 471 1167 l 358 1043 l 261 1043 z "},"I":{"ha":342,"x_min":110,"x_max":232,"o":"m 110 0 l 110 968 l 232 968 l 232 0 l 110 0 z "},"Ĳ":{"ha":1108,"x_min":110,"x_max":1008,"o":"m 110 0 l 110 968 l 232 968 l 232 0 l 110 0 m 697 -17 q 476 65 563 -17 q 381 290 390 147 l 501 303 q 560 147 508 197 q 697 97 611 97 q 841 163 796 97 q 886 350 886 228 l 886 858 l 503 858 l 503 968 l 1008 968 l 1008 343 q 972 150 1008 231 q 865 26 935 69 q 697 -17 796 -17 z "},"Í":{"ha":342,"x_min":110,"x_max":406,"o":"m 110 0 l 110 968 l 232 968 l 232 0 l 110 0 m 128 1056 l 279 1251 l 406 1251 l 215 1056 l 128 1056 z "},"Ĭ":{"ha":342,"x_min":-39,"x_max":383,"o":"m 110 0 l 110 968 l 232 968 l 232 0 l 110 0 m 172 1028 q 13 1075 65 1028 q -39 1210 -39 1122 l 46 1210 q 81 1126 46 1154 q 172 1099 115 1099 q 265 1127 231 1099 q 300 1210 300 1156 l 383 1210 q 330 1074 383 1119 q 172 1028 276 1028 z "},"Ǐ":{"ha":342,"x_min":-37,"x_max":382,"o":"m 110 0 l 110 968 l 232 968 l 232 0 l 110 0 m 172 1035 l -37 1251 l 56 1251 l 172 1132 l 289 1251 l 382 1251 l 172 1035 z "},"Î":{"ha":342,"x_min":-37,"x_max":382,"o":"m 110 0 l 110 968 l 232 968 l 232 0 l 110 0 m -37 1043 l 172 1268 l 382 1043 l 286 1043 l 172 1167 l 60 1043 l -37 1043 z "},"Ï":{"ha":342,"x_min":-25,"x_max":371,"o":"m 110 0 l 110 968 l 232 968 l 232 0 l 110 0 m 232 1092 l 232 1251 l 371 1251 l 371 1092 l 232 1092 m -25 1092 l -25 1251 l 114 1251 l 114 1092 l -25 1092 z "},"İ":{"ha":342,"x_min":103,"x_max":242,"o":"m 110 0 l 110 968 l 232 968 l 232 0 l 110 0 m 103 1092 l 103 1251 l 242 1251 l 242 1092 l 103 1092 z "},"Ị":{"ha":342,"x_min":103,"x_max":242,"o":"m 110 0 l 110 968 l 232 968 l 232 0 l 110 0 m 103 -242 l 103 -96 l 242 -96 l 242 -242 l 103 -242 z "},"Ì":{"ha":342,"x_min":-53,"x_max":232,"o":"m 110 0 l 110 968 l 232 968 l 232 0 l 110 0 m 128 1056 l -53 1251 l 72 1251 l 217 1056 l 128 1056 z "},"Ỉ":{"ha":342,"x_min":92,"x_max":324,"o":"m 110 0 l 110 968 l 232 968 l 232 0 l 110 0 m 144 1010 l 136 1054 q 206 1072 172 1061 q 239 1118 239 1083 q 200 1170 239 1156 q 113 1185 161 1185 l 92 1185 l 92 1253 l 113 1253 q 265 1219 206 1253 q 324 1126 324 1186 q 295 1060 324 1083 q 226 1026 267 1036 q 144 1010 185 1015 z "},"Ī":{"ha":342,"x_min":-17,"x_max":360,"o":"m 110 0 l 110 968 l 232 968 l 232 0 l 110 0 m -17 1101 l -17 1172 l 360 1172 l 360 1101 l -17 1101 z "},"Į":{"ha":342,"x_min":18,"x_max":281,"o":"m 110 0 l 110 968 l 232 968 l 232 0 l 110 0 m 144 -283 q 56 -253 93 -283 q 18 -168 18 -224 q 37 -95 18 -128 q 83 -37 56 -62 q 139 3 111 -12 l 232 0 q 187 -27 211 -11 q 140 -63 163 -43 q 103 -108 117 -83 q 89 -158 89 -132 q 105 -200 89 -186 q 144 -214 121 -214 q 193 -202 167 -214 q 244 -168 219 -190 l 281 -224 q 215 -269 250 -254 q 144 -283 179 -283 z "},"Ĩ":{"ha":342,"x_min":-53,"x_max":394,"o":"m 110 0 l 110 968 l 232 968 l 232 0 l 110 0 m 264 1032 q 208 1044 231 1032 q 169 1073 185 1056 q 140 1108 153 1090 q 112 1137 126 1125 q 76 1149 97 1149 q 33 1121 50 1149 q 17 1043 17 1093 l -53 1043 q -17 1170 -53 1125 q 82 1215 19 1215 q 133 1203 113 1215 q 170 1174 154 1192 q 200 1138 186 1156 q 229 1109 214 1121 q 265 1097 244 1097 q 306 1128 289 1097 q 322 1210 322 1158 l 394 1210 q 359 1079 394 1126 q 264 1032 324 1032 z "},"J":{"ha":767,"x_min":39,"x_max":667,"o":"m 356 -17 q 135 65 221 -17 q 39 290 49 147 l 160 303 q 218 147 167 197 q 356 97 269 97 q 499 163 454 97 q 544 350 544 228 l 544 858 l 161 858 l 161 968 l 667 968 l 667 343 q 630 150 667 231 q 524 26 593 69 q 356 -17 454 -17 z "},"Ĵ":{"ha":767,"x_min":39,"x_max":667,"o":"m 356 -17 q 135 65 221 -17 q 39 290 49 147 l 160 303 q 218 147 167 197 q 356 97 269 97 q 499 163 454 97 q 544 350 544 228 l 544 858 l 161 858 l 161 968 l 667 968 l 667 343 q 630 150 667 231 q 524 26 593 69 q 356 -17 454 -17 m 204 1043 l 414 1268 l 624 1043 l 528 1043 l 414 1167 l 301 1043 l 204 1043 z "},"K":{"ha":881,"x_min":110,"x_max":854,"o":"m 206 308 l 206 464 l 688 968 l 851 968 l 206 308 m 110 0 l 110 968 l 232 968 l 232 0 l 110 0 m 711 0 l 382 521 l 474 606 l 854 0 l 711 0 z "},"Ķ":{"ha":881,"x_min":110,"x_max":854,"o":"m 206 308 l 206 464 l 688 968 l 851 968 l 206 308 m 110 0 l 110 968 l 232 968 l 232 0 l 110 0 m 711 0 l 382 521 l 474 606 l 854 0 l 711 0 m 267 -283 l 379 -76 l 504 -76 l 339 -283 l 267 -283 z "},"L":{"ha":688,"x_min":110,"x_max":665,"o":"m 110 0 l 110 968 l 232 968 l 232 110 l 665 110 l 665 0 l 110 0 z "},"Ĺ":{"ha":688,"x_min":110,"x_max":665,"o":"m 110 0 l 110 968 l 232 968 l 232 110 l 665 110 l 665 0 l 110 0 m 128 1056 l 279 1251 l 406 1251 l 215 1056 l 128 1056 z "},"Ľ":{"ha":688,"x_min":110,"x_max":672,"o":"m 110 0 l 110 968 l 232 968 l 232 110 l 665 110 l 665 0 l 110 0 m 469 672 l 549 968 l 672 968 l 540 672 l 469 672 z "},"Ļ":{"ha":688,"x_min":110,"x_max":665,"o":"m 110 0 l 110 968 l 232 968 l 232 110 l 665 110 l 665 0 l 110 0 m 168 -283 l 281 -76 l 406 -76 l 240 -283 l 168 -283 z "},"Ŀ":{"ha":851,"x_min":110,"x_max":744,"o":"m 110 0 l 110 968 l 232 968 l 232 110 l 665 110 l 665 0 l 110 0 m 606 404 l 606 565 l 744 565 l 744 404 l 606 404 z "},"Ł":{"ha":688,"x_min":18,"x_max":665,"o":"m 110 0 l 110 968 l 232 968 l 232 110 l 665 110 l 665 0 l 110 0 m 19 263 l 18 385 l 426 707 l 426 586 l 19 263 z "},"M":{"ha":1165,"x_min":110,"x_max":1056,"o":"m 110 0 l 110 968 l 290 968 l 594 203 l 572 203 l 876 968 l 1056 968 l 1056 0 l 933 0 l 933 826 l 943 825 l 643 82 l 524 82 l 222 825 l 232 826 l 232 0 l 110 0 z "},"N":{"ha":939,"x_min":110,"x_max":829,"o":"m 110 0 l 110 968 l 239 968 l 735 158 l 707 158 l 707 968 l 829 968 l 829 0 l 697 0 l 204 811 l 232 811 l 232 0 l 110 0 z "},"Ń":{"ha":939,"x_min":110,"x_max":829,"o":"m 110 0 l 110 968 l 239 968 l 735 158 l 707 158 l 707 968 l 829 968 l 829 0 l 697 0 l 204 811 l 232 811 l 232 0 l 110 0 m 419 1056 l 571 1251 l 697 1251 l 507 1056 l 419 1056 z "},"Ň":{"ha":939,"x_min":110,"x_max":829,"o":"m 110 0 l 110 968 l 239 968 l 735 158 l 707 158 l 707 968 l 829 968 l 829 0 l 697 0 l 204 811 l 232 811 l 232 0 l 110 0 m 464 1035 l 254 1251 l 347 1251 l 464 1132 l 581 1251 l 674 1251 l 464 1035 z "},"Ņ":{"ha":939,"x_min":110,"x_max":829,"o":"m 110 0 l 110 968 l 239 968 l 735 158 l 707 158 l 707 968 l 829 968 l 829 0 l 697 0 l 204 811 l 232 811 l 232 0 l 110 0 m 289 -283 l 401 -76 l 526 -76 l 361 -283 l 289 -283 z "},"Ṅ":{"ha":939,"x_min":110,"x_max":829,"o":"m 110 0 l 110 968 l 239 968 l 735 158 l 707 158 l 707 968 l 829 968 l 829 0 l 697 0 l 204 811 l 232 811 l 232 0 l 110 0 m 394 1092 l 394 1251 l 533 1251 l 533 1092 l 394 1092 z "},"Ɲ":{"ha":939,"x_min":-11,"x_max":829,"o":"m 110 0 l 110 968 l 239 968 l 731 172 l 707 172 l 707 968 l 829 968 l 829 0 l 697 0 l 207 799 l 232 799 l 232 0 l 110 0 m -11 -243 l -11 -161 q 61 -144 35 -161 q 99 -100 88 -126 q 110 -46 110 -74 q 110 -22 110 -31 q 110 0 110 -12 l 232 0 l 232 -37 q 208 -140 232 -93 q 130 -215 183 -187 q -11 -243 76 -243 z "},"Ñ":{"ha":939,"x_min":110,"x_max":829,"o":"m 110 0 l 110 968 l 239 968 l 735 158 l 707 158 l 707 968 l 829 968 l 829 0 l 697 0 l 204 811 l 232 811 l 232 0 l 110 0 m 556 1032 q 499 1044 522 1032 q 460 1073 476 1056 q 431 1108 444 1090 q 403 1137 418 1125 q 368 1149 389 1149 q 325 1121 342 1149 q 308 1043 308 1093 l 239 1043 q 275 1170 239 1125 q 374 1215 311 1215 q 425 1203 404 1215 q 462 1174 446 1192 q 492 1138 478 1156 q 521 1109 506 1121 q 557 1097 536 1097 q 597 1128 581 1097 q 614 1210 614 1158 l 686 1210 q 651 1079 686 1126 q 556 1032 615 1032 z "},"Ŋ":{"ha":939,"x_min":110,"x_max":829,"o":"m 615 -243 q 568 -240 593 -243 q 515 -231 543 -236 l 518 -150 q 552 -158 533 -156 q 583 -161 571 -161 q 681 -128 651 -161 q 711 -51 711 -94 q 708 -22 711 -33 q 697 0 704 -10 l 207 799 l 232 799 l 232 0 l 110 0 l 110 968 l 239 968 l 731 172 l 707 172 l 707 968 l 829 968 l 829 -12 q 808 -126 829 -74 q 740 -211 786 -179 q 615 -243 693 -243 z "},"O":{"ha":1039,"x_min":69,"x_max":968,"o":"m 517 -17 q 283 46 383 -17 q 126 221 182 108 q 69 483 69 333 q 126 747 69 635 q 283 922 182 860 q 517 985 383 985 q 754 922 653 985 q 912 747 856 860 q 968 483 968 635 q 911 221 968 333 q 753 46 854 108 q 517 -17 651 -17 m 517 100 q 691 147 618 100 q 804 281 764 194 q 844 483 844 367 q 804 688 844 601 q 691 821 764 774 q 517 868 618 868 q 344 822 418 868 q 231 689 271 775 q 192 483 192 603 q 231 279 192 365 q 344 147 271 193 q 517 100 418 100 z "},"Ó":{"ha":1039,"x_min":69,"x_max":968,"o":"m 517 -17 q 283 46 383 -17 q 126 221 182 108 q 69 483 69 333 q 126 747 69 635 q 283 922 182 860 q 517 985 383 985 q 754 922 653 985 q 912 747 856 860 q 968 483 968 635 q 911 221 968 333 q 753 46 854 108 q 517 -17 651 -17 m 517 100 q 691 147 618 100 q 804 281 764 194 q 844 483 844 367 q 804 688 844 601 q 691 821 764 774 q 517 868 618 868 q 344 822 418 868 q 231 689 271 775 q 192 483 192 603 q 231 279 192 365 q 344 147 271 193 q 517 100 418 100 m 474 1056 l 625 1251 l 751 1251 l 561 1056 l 474 1056 z "},"Ŏ":{"ha":1039,"x_min":69,"x_max":968,"o":"m 517 -17 q 283 46 383 -17 q 126 221 182 108 q 69 483 69 333 q 126 747 69 635 q 283 922 182 860 q 517 985 383 985 q 754 922 653 985 q 912 747 856 860 q 968 483 968 635 q 911 221 968 333 q 753 46 854 108 q 517 -17 651 -17 m 517 100 q 691 147 618 100 q 804 281 764 194 q 844 483 844 367 q 804 688 844 601 q 691 821 764 774 q 517 868 618 868 q 344 822 418 868 q 231 689 271 775 q 192 483 192 603 q 231 279 192 365 q 344 147 271 193 q 517 100 418 100 m 518 1028 q 359 1075 411 1028 q 307 1210 307 1122 l 392 1210 q 426 1126 392 1154 q 518 1099 461 1099 q 611 1127 576 1099 q 646 1210 646 1156 l 729 1210 q 676 1074 729 1119 q 518 1028 622 1028 z "},"Ǒ":{"ha":1039,"x_min":69,"x_max":968,"o":"m 517 -17 q 283 46 383 -17 q 126 221 182 108 q 69 483 69 333 q 126 747 69 635 q 283 922 182 860 q 517 985 383 985 q 754 922 653 985 q 912 747 856 860 q 968 483 968 635 q 911 221 968 333 q 753 46 854 108 q 517 -17 651 -17 m 517 100 q 691 147 618 100 q 804 281 764 194 q 844 483 844 367 q 804 688 844 601 q 691 821 764 774 q 517 868 618 868 q 344 822 418 868 q 231 689 271 775 q 192 483 192 603 q 231 279 192 365 q 344 147 271 193 q 517 100 418 100 m 518 1035 l 308 1251 l 401 1251 l 518 1132 l 635 1251 l 728 1251 l 518 1035 z "},"Ô":{"ha":1039,"x_min":69,"x_max":968,"o":"m 517 -17 q 283 46 383 -17 q 126 221 182 108 q 69 483 69 333 q 126 747 69 635 q 283 922 182 860 q 517 985 383 985 q 754 922 653 985 q 912 747 856 860 q 968 483 968 635 q 911 221 968 333 q 753 46 854 108 q 517 -17 651 -17 m 517 100 q 691 147 618 100 q 804 281 764 194 q 844 483 844 367 q 804 688 844 601 q 691 821 764 774 q 517 868 618 868 q 344 822 418 868 q 231 689 271 775 q 192 483 192 603 q 231 279 192 365 q 344 147 271 193 q 517 100 418 100 m 308 1043 l 518 1268 l 728 1043 l 631 1043 l 518 1167 l 407 1043 l 308 1043 z "},"Ố":{"ha":1039,"x_min":69,"x_max":968,"o":"m 517 -17 q 283 46 383 -17 q 126 221 182 108 q 69 483 69 333 q 126 747 69 635 q 283 922 182 860 q 517 985 383 985 q 754 922 653 985 q 912 747 856 860 q 968 483 968 635 q 911 221 968 333 q 753 46 854 108 q 517 -17 651 -17 m 517 100 q 691 147 618 100 q 804 281 764 194 q 844 483 844 367 q 804 688 844 601 q 691 821 764 774 q 517 868 618 868 q 344 822 418 868 q 231 689 271 775 q 192 483 192 603 q 231 279 192 365 q 344 147 271 193 q 517 100 418 100 m 308 1033 l 518 1231 l 728 1033 l 631 1033 l 518 1143 l 406 1033 l 308 1033 m 624 1176 l 724 1364 l 821 1364 l 697 1176 l 624 1176 z "},"Ộ":{"ha":1039,"x_min":69,"x_max":968,"o":"m 517 -17 q 283 46 383 -17 q 126 221 182 108 q 69 483 69 333 q 126 747 69 635 q 283 922 182 860 q 517 985 383 985 q 754 922 653 985 q 912 747 856 860 q 968 483 968 635 q 911 221 968 333 q 753 46 854 108 q 517 -17 651 -17 m 517 100 q 691 147 618 100 q 804 281 764 194 q 844 483 844 367 q 804 688 844 601 q 691 821 764 774 q 517 868 618 868 q 344 822 418 868 q 231 689 271 775 q 192 483 192 603 q 231 279 192 365 q 344 147 271 193 q 517 100 418 100 m 449 -242 l 449 -96 l 588 -96 l 588 -242 l 449 -242 m 308 1043 l 518 1268 l 728 1043 l 631 1043 l 518 1167 l 407 1043 l 308 1043 z "},"Ồ":{"ha":1039,"x_min":69,"x_max":968,"o":"m 517 -17 q 283 46 383 -17 q 126 221 182 108 q 69 483 69 333 q 126 747 69 635 q 283 922 182 860 q 517 985 383 985 q 754 922 653 985 q 912 747 856 860 q 968 483 968 635 q 911 221 968 333 q 753 46 854 108 q 517 -17 651 -17 m 517 100 q 691 147 618 100 q 804 281 764 194 q 844 483 844 367 q 804 688 844 601 q 691 821 764 774 q 517 868 618 868 q 344 822 418 868 q 231 689 271 775 q 192 483 192 603 q 231 279 192 365 q 344 147 271 193 q 517 100 418 100 m 308 1033 l 518 1231 l 728 1033 l 631 1033 l 518 1143 l 407 1033 l 308 1033 m 690 1176 l 567 1364 l 664 1364 l 764 1176 l 690 1176 z "},"Ổ":{"ha":1039,"x_min":69,"x_max":968,"o":"m 517 -17 q 283 46 383 -17 q 126 221 182 108 q 69 483 69 333 q 126 747 69 635 q 283 922 182 860 q 517 985 383 985 q 754 922 653 985 q 912 747 856 860 q 968 483 968 635 q 911 221 968 333 q 753 46 854 108 q 517 -17 651 -17 m 517 100 q 691 147 618 100 q 804 281 764 194 q 844 483 844 367 q 804 688 844 601 q 691 821 764 774 q 517 868 618 868 q 344 822 418 868 q 231 689 271 775 q 192 483 192 603 q 231 279 192 365 q 344 147 271 193 q 517 100 418 100 m 308 1033 l 518 1231 l 728 1033 l 631 1033 l 518 1143 l 407 1033 l 308 1033 m 661 1139 l 649 1183 q 717 1205 693 1190 q 740 1246 740 1219 q 724 1285 740 1271 q 681 1305 707 1299 q 625 1311 654 1311 l 604 1311 l 604 1375 l 625 1375 q 761 1343 713 1375 q 810 1254 810 1311 q 789 1190 810 1213 q 734 1156 768 1167 q 661 1139 700 1146 z "},"Ỗ":{"ha":1039,"x_min":69,"x_max":968,"o":"m 517 -17 q 283 46 383 -17 q 126 221 182 108 q 69 483 69 333 q 126 747 69 635 q 283 922 182 860 q 517 985 383 985 q 754 922 653 985 q 912 747 856 860 q 968 483 968 635 q 911 221 968 333 q 753 46 854 108 q 517 -17 651 -17 m 517 100 q 691 147 618 100 q 804 281 764 194 q 844 483 844 367 q 804 688 844 601 q 691 821 764 774 q 517 868 618 868 q 344 822 418 868 q 231 689 271 775 q 192 483 192 603 q 231 279 192 365 q 344 147 271 193 q 517 100 418 100 m 308 1033 l 518 1231 l 728 1033 l 632 1033 l 518 1143 l 406 1033 l 308 1033 m 601 1249 q 544 1258 568 1249 q 503 1279 521 1267 q 469 1301 486 1292 q 432 1310 453 1310 q 394 1295 407 1310 q 376 1258 382 1281 l 310 1261 q 349 1344 317 1314 q 432 1375 381 1375 q 488 1367 465 1375 q 529 1347 511 1358 q 564 1326 547 1335 q 601 1318 581 1318 q 638 1328 625 1318 q 657 1364 651 1339 l 726 1361 q 691 1280 721 1311 q 601 1249 661 1249 z "},"Ö":{"ha":1039,"x_min":69,"x_max":968,"o":"m 517 -17 q 283 46 383 -17 q 126 221 182 108 q 69 483 69 333 q 126 747 69 635 q 283 922 182 860 q 517 985 383 985 q 754 922 653 985 q 912 747 856 860 q 968 483 968 635 q 911 221 968 333 q 753 46 854 108 q 517 -17 651 -17 m 517 100 q 691 147 618 100 q 804 281 764 194 q 844 483 844 367 q 804 688 844 601 q 691 821 764 774 q 517 868 618 868 q 344 822 418 868 q 231 689 271 775 q 192 483 192 603 q 231 279 192 365 q 344 147 271 193 q 517 100 418 100 m 578 1092 l 578 1251 l 717 1251 l 717 1092 l 578 1092 m 321 1092 l 321 1251 l 460 1251 l 460 1092 l 321 1092 z "},"Ọ":{"ha":1039,"x_min":69,"x_max":968,"o":"m 517 -17 q 283 46 383 -17 q 126 221 182 108 q 69 483 69 333 q 126 747 69 635 q 283 922 182 860 q 517 985 383 985 q 754 922 653 985 q 912 747 856 860 q 968 483 968 635 q 911 221 968 333 q 753 46 854 108 q 517 -17 651 -17 m 517 100 q 691 147 618 100 q 804 281 764 194 q 844 483 844 367 q 804 688 844 601 q 691 821 764 774 q 517 868 618 868 q 344 822 418 868 q 231 689 271 775 q 192 483 192 603 q 231 279 192 365 q 344 147 271 193 q 517 100 418 100 m 449 -242 l 449 -96 l 588 -96 l 588 -242 l 449 -242 z "},"Ò":{"ha":1039,"x_min":69,"x_max":968,"o":"m 517 -17 q 283 46 383 -17 q 126 221 182 108 q 69 483 69 333 q 126 747 69 635 q 283 922 182 860 q 517 985 383 985 q 754 922 653 985 q 912 747 856 860 q 968 483 968 635 q 911 221 968 333 q 753 46 854 108 q 517 -17 651 -17 m 517 100 q 691 147 618 100 q 804 281 764 194 q 844 483 844 367 q 804 688 844 601 q 691 821 764 774 q 517 868 618 868 q 344 822 418 868 q 231 689 271 775 q 192 483 192 603 q 231 279 192 365 q 344 147 271 193 q 517 100 418 100 m 474 1056 l 293 1251 l 418 1251 l 563 1056 l 474 1056 z "},"Ỏ":{"ha":1039,"x_min":69,"x_max":968,"o":"m 517 -17 q 283 46 383 -17 q 126 221 182 108 q 69 483 69 333 q 126 747 69 635 q 283 922 182 860 q 517 985 383 985 q 754 922 653 985 q 912 747 856 860 q 968 483 968 635 q 911 221 968 333 q 753 46 854 108 q 517 -17 651 -17 m 517 100 q 691 147 618 100 q 804 281 764 194 q 844 483 844 367 q 804 688 844 601 q 691 821 764 774 q 517 868 618 868 q 344 822 418 868 q 231 689 271 775 q 192 483 192 603 q 231 279 192 365 q 344 147 271 193 q 517 100 418 100 m 490 1010 l 482 1054 q 551 1072 518 1061 q 585 1118 585 1083 q 546 1170 585 1156 q 458 1185 507 1185 l 438 1185 l 438 1253 l 458 1253 q 610 1219 551 1253 q 669 1126 669 1186 q 641 1060 669 1083 q 572 1026 613 1036 q 490 1010 531 1015 z "},"Ơ":{"ha":1039,"x_min":69,"x_max":1011,"o":"m 517 -17 q 283 46 383 -17 q 126 221 182 108 q 69 483 69 333 q 126 747 69 635 q 283 922 182 860 q 517 985 383 985 q 754 922 653 985 q 912 747 856 860 q 968 483 968 635 q 911 221 968 333 q 753 46 854 108 q 517 -17 651 -17 m 517 100 q 691 147 618 100 q 804 281 764 194 q 844 483 844 367 q 804 688 844 601 q 691 821 764 774 q 517 868 618 868 q 344 822 418 868 q 231 689 271 775 q 192 483 192 603 q 231 279 192 365 q 344 147 271 193 q 517 100 418 100 m 811 689 l 811 767 q 901 804 874 767 q 928 913 928 842 l 928 968 l 1011 968 l 1011 906 q 990 793 1011 842 q 926 717 969 744 q 811 689 882 689 z "},"Ớ":{"ha":1039,"x_min":69,"x_max":1011,"o":"m 517 -17 q 283 46 383 -17 q 126 221 182 108 q 69 483 69 333 q 126 747 69 635 q 283 922 182 860 q 517 985 383 985 q 754 922 653 985 q 912 747 856 860 q 968 483 968 635 q 911 221 968 333 q 753 46 854 108 q 517 -17 651 -17 m 517 100 q 691 147 618 100 q 804 281 764 194 q 844 483 844 367 q 804 688 844 601 q 691 821 764 774 q 517 868 618 868 q 344 822 418 868 q 231 689 271 775 q 192 483 192 603 q 231 279 192 365 q 344 147 271 193 q 517 100 418 100 m 811 689 l 811 767 q 901 804 874 767 q 928 913 928 842 l 928 968 l 1011 968 l 1011 906 q 990 793 1011 842 q 926 717 969 744 q 811 689 882 689 m 474 1056 l 625 1251 l 751 1251 l 561 1056 l 474 1056 z "},"Ợ":{"ha":1039,"x_min":69,"x_max":1011,"o":"m 517 -17 q 283 46 383 -17 q 126 221 182 108 q 69 483 69 333 q 126 747 69 635 q 283 922 182 860 q 517 985 383 985 q 754 922 653 985 q 912 747 856 860 q 968 483 968 635 q 911 221 968 333 q 753 46 854 108 q 517 -17 651 -17 m 517 100 q 691 147 618 100 q 804 281 764 194 q 844 483 844 367 q 804 688 844 601 q 691 821 764 774 q 517 868 618 868 q 344 822 418 868 q 231 689 271 775 q 192 483 192 603 q 231 279 192 365 q 344 147 271 193 q 517 100 418 100 m 811 689 l 811 767 q 901 804 874 767 q 928 913 928 842 l 928 968 l 1011 968 l 1011 906 q 990 793 1011 842 q 926 717 969 744 q 811 689 882 689 m 449 -242 l 449 -96 l 588 -96 l 588 -242 l 449 -242 z "},"Ờ":{"ha":1039,"x_min":69,"x_max":1011,"o":"m 517 -17 q 283 46 383 -17 q 126 221 182 108 q 69 483 69 333 q 126 747 69 635 q 283 922 182 860 q 517 985 383 985 q 754 922 653 985 q 912 747 856 860 q 968 483 968 635 q 911 221 968 333 q 753 46 854 108 q 517 -17 651 -17 m 517 100 q 691 147 618 100 q 804 281 764 194 q 844 483 844 367 q 804 688 844 601 q 691 821 764 774 q 517 868 618 868 q 344 822 418 868 q 231 689 271 775 q 192 483 192 603 q 231 279 192 365 q 344 147 271 193 q 517 100 418 100 m 811 689 l 811 767 q 901 804 874 767 q 928 913 928 842 l 928 968 l 1011 968 l 1011 906 q 990 793 1011 842 q 926 717 969 744 q 811 689 882 689 m 474 1056 l 293 1251 l 418 1251 l 563 1056 l 474 1056 z "},"Ở":{"ha":1039,"x_min":69,"x_max":1011,"o":"m 517 -17 q 283 46 383 -17 q 126 221 182 108 q 69 483 69 333 q 126 747 69 635 q 283 922 182 860 q 517 985 383 985 q 754 922 653 985 q 912 747 856 860 q 968 483 968 635 q 911 221 968 333 q 753 46 854 108 q 517 -17 651 -17 m 517 100 q 691 147 618 100 q 804 281 764 194 q 844 483 844 367 q 804 688 844 601 q 691 821 764 774 q 517 868 618 868 q 344 822 418 868 q 231 689 271 775 q 192 483 192 603 q 231 279 192 365 q 344 147 271 193 q 517 100 418 100 m 811 689 l 811 767 q 901 804 874 767 q 928 913 928 842 l 928 968 l 1011 968 l 1011 906 q 990 793 1011 842 q 926 717 969 744 q 811 689 882 689 m 490 1010 l 482 1054 q 551 1072 518 1061 q 585 1118 585 1083 q 546 1170 585 1156 q 458 1185 507 1185 l 438 1185 l 438 1253 l 458 1253 q 610 1219 551 1253 q 669 1126 669 1186 q 641 1060 669 1083 q 572 1026 613 1036 q 490 1010 531 1015 z "},"Ỡ":{"ha":1039,"x_min":69,"x_max":1011,"o":"m 517 -17 q 283 46 383 -17 q 126 221 182 108 q 69 483 69 333 q 126 747 69 635 q 283 922 182 860 q 517 985 383 985 q 754 922 653 985 q 912 747 856 860 q 968 483 968 635 q 911 221 968 333 q 753 46 854 108 q 517 -17 651 -17 m 517 100 q 691 147 618 100 q 804 281 764 194 q 844 483 844 367 q 804 688 844 601 q 691 821 764 774 q 517 868 618 868 q 344 822 418 868 q 231 689 271 775 q 192 483 192 603 q 231 279 192 365 q 344 147 271 193 q 517 100 418 100 m 811 689 l 811 767 q 901 804 874 767 q 928 913 928 842 l 928 968 l 1011 968 l 1011 906 q 990 793 1011 842 q 926 717 969 744 q 811 689 882 689 m 610 1032 q 553 1044 576 1032 q 515 1073 531 1056 q 485 1108 499 1090 q 458 1137 472 1125 q 422 1149 443 1149 q 379 1121 396 1149 q 363 1043 363 1093 l 293 1043 q 329 1170 293 1125 q 428 1215 365 1215 q 479 1203 458 1215 q 516 1174 500 1192 q 546 1138 532 1156 q 575 1109 560 1121 q 611 1097 590 1097 q 651 1128 635 1097 q 668 1210 668 1158 l 740 1210 q 705 1079 740 1126 q 610 1032 669 1032 z "},"Ő":{"ha":1039,"x_min":69,"x_max":968,"o":"m 517 -17 q 283 46 383 -17 q 126 221 182 108 q 69 483 69 333 q 126 747 69 635 q 283 922 182 860 q 517 985 383 985 q 754 922 653 985 q 912 747 856 860 q 968 483 968 635 q 911 221 968 333 q 753 46 854 108 q 517 -17 651 -17 m 517 100 q 691 147 618 100 q 804 281 764 194 q 844 483 844 367 q 804 688 844 601 q 691 821 764 774 q 517 868 618 868 q 344 822 418 868 q 231 689 271 775 q 192 483 192 603 q 231 279 192 365 q 344 147 271 193 q 517 100 418 100 m 596 1036 l 749 1251 l 874 1251 l 685 1036 l 596 1036 m 351 1036 l 503 1251 l 610 1251 l 439 1036 l 351 1036 z "},"Ō":{"ha":1039,"x_min":69,"x_max":968,"o":"m 517 -17 q 283 46 383 -17 q 126 221 182 108 q 69 483 69 333 q 126 747 69 635 q 283 922 182 860 q 517 985 383 985 q 754 922 653 985 q 912 747 856 860 q 968 483 968 635 q 911 221 968 333 q 753 46 854 108 q 517 -17 651 -17 m 517 100 q 691 147 618 100 q 804 281 764 194 q 844 483 844 367 q 804 688 844 601 q 691 821 764 774 q 517 868 618 868 q 344 822 418 868 q 231 689 271 775 q 192 483 192 603 q 231 279 192 365 q 344 147 271 193 q 517 100 418 100 m 329 1101 l 329 1172 l 706 1172 l 706 1101 l 329 1101 z "},"Ǫ":{"ha":1039,"x_min":69,"x_max":968,"o":"m 517 -17 q 283 46 383 -17 q 126 221 182 108 q 69 483 69 333 q 126 747 69 635 q 283 922 182 860 q 517 985 383 985 q 754 922 653 985 q 912 747 856 860 q 968 483 968 635 q 911 221 968 333 q 753 46 854 108 q 517 -17 651 -17 m 517 100 q 691 147 618 100 q 804 281 764 194 q 844 483 844 367 q 804 688 844 601 q 691 821 764 774 q 517 868 618 868 q 344 822 418 868 q 231 689 271 775 q 192 483 192 603 q 231 279 192 365 q 344 147 271 193 q 517 100 418 100 m 535 -283 q 446 -253 483 -283 q 408 -168 408 -224 q 427 -95 408 -128 q 474 -37 446 -62 q 529 3 501 -12 l 622 0 q 577 -27 601 -11 q 530 -63 553 -43 q 493 -108 507 -83 q 479 -158 479 -132 q 495 -200 479 -186 q 535 -214 511 -214 q 583 -202 557 -214 q 635 -168 610 -190 l 671 -224 q 605 -269 640 -254 q 535 -283 569 -283 z "},"Ø":{"ha":1039,"x_min":69,"x_max":968,"o":"m 517 -17 q 283 46 383 -17 q 126 221 182 108 q 69 483 69 333 q 126 747 69 635 q 283 922 182 860 q 517 985 383 985 q 754 922 653 985 q 912 747 856 860 q 968 483 968 635 q 911 221 968 333 q 753 46 854 108 q 517 -17 651 -17 m 517 100 q 691 147 618 100 q 804 281 764 194 q 844 483 844 367 q 804 688 844 601 q 691 821 764 774 q 517 868 618 868 q 344 822 418 868 q 231 689 271 775 q 192 483 192 603 q 231 279 192 365 q 344 147 271 193 q 517 100 418 100 m 131 0 l 822 968 l 904 968 l 214 0 l 131 0 z "},"Ǿ":{"ha":1039,"x_min":69,"x_max":968,"o":"m 517 -17 q 283 46 383 -17 q 126 221 182 108 q 69 483 69 333 q 126 747 69 635 q 283 922 182 860 q 517 985 383 985 q 754 922 653 985 q 912 747 856 860 q 968 483 968 635 q 911 221 968 333 q 753 46 854 108 q 517 -17 651 -17 m 517 100 q 691 147 618 100 q 804 281 764 194 q 844 483 844 367 q 804 688 844 601 q 691 821 764 774 q 517 868 618 868 q 344 822 418 868 q 231 689 271 775 q 192 483 192 603 q 231 279 192 365 q 344 147 271 193 q 517 100 418 100 m 131 0 l 822 968 l 904 968 l 214 0 l 131 0 m 474 1056 l 625 1251 l 751 1251 l 561 1056 l 474 1056 z "},"Õ":{"ha":1039,"x_min":69,"x_max":968,"o":"m 517 -17 q 283 46 383 -17 q 126 221 182 108 q 69 483 69 333 q 126 747 69 635 q 283 922 182 860 q 517 985 383 985 q 754 922 653 985 q 912 747 856 860 q 968 483 968 635 q 911 221 968 333 q 753 46 854 108 q 517 -17 651 -17 m 517 100 q 691 147 618 100 q 804 281 764 194 q 844 483 844 367 q 804 688 844 601 q 691 821 764 774 q 517 868 618 868 q 344 822 418 868 q 231 689 271 775 q 192 483 192 603 q 231 279 192 365 q 344 147 271 193 q 517 100 418 100 m 610 1032 q 553 1044 576 1032 q 515 1073 531 1056 q 485 1108 499 1090 q 458 1137 472 1125 q 422 1149 443 1149 q 379 1121 396 1149 q 363 1043 363 1093 l 293 1043 q 329 1170 293 1125 q 428 1215 365 1215 q 479 1203 458 1215 q 516 1174 500 1192 q 546 1138 532 1156 q 575 1109 560 1121 q 611 1097 590 1097 q 651 1128 635 1097 q 668 1210 668 1158 l 740 1210 q 705 1079 740 1126 q 610 1032 669 1032 z "},"Œ":{"ha":1415,"x_min":69,"x_max":1350,"o":"m 568 0 q 198 123 326 0 q 69 476 69 246 q 199 840 69 711 q 567 968 329 968 l 1350 968 l 1350 858 l 835 858 l 835 549 l 1303 549 l 1303 439 l 835 439 l 835 110 l 1350 110 l 1350 0 l 568 0 m 581 113 l 713 113 l 713 856 l 569 856 q 367 817 451 856 q 238 695 282 778 q 193 481 193 613 q 238 267 193 349 q 370 149 283 186 q 581 113 457 113 z "},"P":{"ha":769,"x_min":110,"x_max":721,"o":"m 110 0 l 110 968 l 399 968 q 638 899 556 968 q 721 694 721 829 q 638 488 721 560 q 399 417 554 417 l 231 417 l 231 0 l 110 0 m 231 525 l 386 525 q 542 566 486 525 q 599 693 599 607 q 544 818 599 778 q 386 858 489 858 l 231 858 l 231 525 z "},"Þ":{"ha":876,"x_min":179,"x_max":781,"o":"m 179 0 l 179 968 l 292 968 l 292 831 l 479 831 q 701 759 621 831 q 781 560 781 688 q 694 356 781 429 q 454 282 607 282 l 292 282 l 292 0 l 179 0 m 292 383 l 454 383 q 612 427 556 383 q 668 557 668 471 q 611 690 668 646 q 454 735 554 735 l 292 735 l 292 383 z "},"Q":{"ha":1075,"x_min":69,"x_max":1004,"o":"m 517 -17 q 283 46 383 -17 q 126 221 182 108 q 69 483 69 333 q 126 747 69 635 q 283 922 182 860 q 517 985 383 985 q 754 922 653 985 q 912 747 856 860 q 968 483 968 635 q 911 221 968 333 q 753 46 854 108 q 517 -17 651 -17 m 931 -64 l 554 303 l 626 379 l 1004 8 l 931 -64 m 517 100 q 691 147 618 100 q 804 281 764 194 q 844 483 844 367 q 804 688 844 601 q 691 821 764 774 q 517 868 618 868 q 344 822 418 868 q 231 689 271 775 q 192 483 192 603 q 231 279 192 365 q 344 147 271 193 q 517 100 418 100 z "},"R":{"ha":831,"x_min":110,"x_max":792,"o":"m 110 0 l 110 968 l 399 968 q 581 935 510 968 q 686 842 651 903 q 721 696 721 781 q 651 505 721 575 q 450 422 582 435 q 400 421 429 421 q 343 421 371 421 l 232 421 l 232 0 l 110 0 m 651 0 l 400 436 l 525 451 l 792 0 l 651 0 m 232 529 l 386 529 q 497 546 450 529 q 572 599 544 563 q 599 694 599 635 q 572 791 599 756 q 497 842 544 826 q 386 858 449 858 l 232 858 l 232 529 z "},"Ŕ":{"ha":831,"x_min":110,"x_max":792,"o":"m 110 0 l 110 968 l 399 968 q 581 935 510 968 q 686 842 651 903 q 721 696 721 781 q 651 505 721 575 q 450 422 582 435 q 400 421 429 421 q 343 421 371 421 l 232 421 l 232 0 l 110 0 m 651 0 l 400 436 l 525 451 l 792 0 l 651 0 m 232 529 l 386 529 q 497 546 450 529 q 572 599 544 563 q 599 694 599 635 q 572 791 599 756 q 497 842 544 826 q 386 858 449 858 l 232 858 l 232 529 m 356 1056 l 507 1251 l 633 1251 l 443 1056 l 356 1056 z "},"Ř":{"ha":831,"x_min":110,"x_max":792,"o":"m 110 0 l 110 968 l 399 968 q 581 935 510 968 q 686 842 651 903 q 721 696 721 781 q 651 505 721 575 q 450 422 582 435 q 400 421 429 421 q 343 421 371 421 l 232 421 l 232 0 l 110 0 m 651 0 l 400 436 l 525 451 l 792 0 l 651 0 m 232 529 l 386 529 q 497 546 450 529 q 572 599 544 563 q 599 694 599 635 q 572 791 599 756 q 497 842 544 826 q 386 858 449 858 l 232 858 l 232 529 m 400 1035 l 190 1251 l 283 1251 l 400 1132 l 517 1251 l 610 1251 l 400 1035 z "},"Ŗ":{"ha":831,"x_min":110,"x_max":792,"o":"m 110 0 l 110 968 l 399 968 q 581 935 510 968 q 686 842 651 903 q 721 696 721 781 q 651 505 721 575 q 450 422 582 435 q 400 421 429 421 q 343 421 371 421 l 232 421 l 232 0 l 110 0 m 651 0 l 400 436 l 525 451 l 792 0 l 651 0 m 232 529 l 386 529 q 497 546 450 529 q 572 599 544 563 q 599 694 599 635 q 572 791 599 756 q 497 842 544 826 q 386 858 449 858 l 232 858 l 232 529 m 225 -283 l 338 -76 l 463 -76 l 297 -283 l 225 -283 z "},"S":{"ha":783,"x_min":53,"x_max":721,"o":"m 406 -15 q 167 61 260 -15 q 53 264 74 138 l 172 293 q 252 145 188 196 q 410 94 317 94 q 507 115 464 94 q 575 174 550 136 q 600 261 600 213 q 572 346 600 313 q 495 404 544 379 q 381 454 446 429 q 240 521 300 485 q 146 608 179 557 q 113 732 113 658 q 149 863 113 806 q 250 952 185 919 q 401 985 315 985 q 564 943 493 985 q 678 819 635 901 l 581 760 q 503 847 549 817 q 397 876 457 876 q 313 858 350 876 q 256 808 276 840 q 235 735 235 776 q 260 659 235 690 q 332 604 285 628 q 446 556 379 581 q 592 486 531 524 q 687 397 653 449 q 721 268 721 344 q 681 122 721 186 q 569 22 640 58 q 406 -15 499 -15 z "},"Ś":{"ha":783,"x_min":53,"x_max":721,"o":"m 406 -15 q 167 61 260 -15 q 53 264 74 138 l 172 293 q 252 145 188 196 q 410 94 317 94 q 507 115 464 94 q 575 174 550 136 q 600 261 600 213 q 572 346 600 313 q 495 404 544 379 q 381 454 446 429 q 240 521 300 485 q 146 608 179 557 q 113 732 113 658 q 149 863 113 806 q 250 952 185 919 q 401 985 315 985 q 564 943 493 985 q 678 819 635 901 l 581 760 q 503 847 549 817 q 397 876 457 876 q 313 858 350 876 q 256 808 276 840 q 235 735 235 776 q 260 659 235 690 q 332 604 285 628 q 446 556 379 581 q 592 486 531 524 q 687 397 653 449 q 721 268 721 344 q 681 122 721 186 q 569 22 640 58 q 406 -15 499 -15 m 347 1056 l 499 1251 l 625 1251 l 435 1056 l 347 1056 z "},"Š":{"ha":783,"x_min":53,"x_max":721,"o":"m 406 -15 q 167 61 260 -15 q 53 264 74 138 l 172 293 q 252 145 188 196 q 410 94 317 94 q 507 115 464 94 q 575 174 550 136 q 600 261 600 213 q 572 346 600 313 q 495 404 544 379 q 381 454 446 429 q 240 521 300 485 q 146 608 179 557 q 113 732 113 658 q 149 863 113 806 q 250 952 185 919 q 401 985 315 985 q 564 943 493 985 q 678 819 635 901 l 581 760 q 503 847 549 817 q 397 876 457 876 q 313 858 350 876 q 256 808 276 840 q 235 735 235 776 q 260 659 235 690 q 332 604 285 628 q 446 556 379 581 q 592 486 531 524 q 687 397 653 449 q 721 268 721 344 q 681 122 721 186 q 569 22 640 58 q 406 -15 499 -15 m 392 1035 l 182 1251 l 275 1251 l 392 1132 l 508 1251 l 601 1251 l 392 1035 z "},"Ş":{"ha":783,"x_min":53,"x_max":721,"o":"m 406 -15 q 167 61 260 -15 q 53 264 74 138 l 172 293 q 252 145 188 196 q 410 94 317 94 q 507 115 464 94 q 575 174 550 136 q 600 261 600 213 q 572 346 600 313 q 495 404 544 379 q 381 454 446 429 q 240 521 300 485 q 146 608 179 557 q 113 732 113 658 q 149 863 113 806 q 250 952 185 919 q 401 985 315 985 q 564 943 493 985 q 678 819 635 901 l 581 760 q 503 847 549 817 q 397 876 457 876 q 313 858 350 876 q 256 808 276 840 q 235 735 235 776 q 260 659 235 690 q 332 604 285 628 q 446 556 379 581 q 592 486 531 524 q 687 397 653 449 q 721 268 721 344 q 681 122 721 186 q 569 22 640 58 q 406 -15 499 -15 m 365 -283 q 319 -278 343 -283 q 273 -262 294 -274 q 235 -236 251 -251 l 275 -189 q 318 -214 294 -206 q 364 -222 342 -222 q 413 -210 392 -222 q 433 -171 433 -197 q 419 -138 433 -150 q 380 -120 404 -126 q 328 -111 356 -114 q 275 -108 300 -108 l 363 11 l 436 11 l 372 -64 q 465 -96 425 -72 q 506 -168 506 -119 q 464 -253 506 -224 q 365 -283 422 -283 z "},"Ŝ":{"ha":783,"x_min":53,"x_max":721,"o":"m 406 -15 q 167 61 260 -15 q 53 264 74 138 l 172 293 q 252 145 188 196 q 410 94 317 94 q 507 115 464 94 q 575 174 550 136 q 600 261 600 213 q 572 346 600 313 q 495 404 544 379 q 381 454 446 429 q 240 521 300 485 q 146 608 179 557 q 113 732 113 658 q 149 863 113 806 q 250 952 185 919 q 401 985 315 985 q 564 943 493 985 q 678 819 635 901 l 581 760 q 503 847 549 817 q 397 876 457 876 q 313 858 350 876 q 256 808 276 840 q 235 735 235 776 q 260 659 235 690 q 332 604 285 628 q 446 556 379 581 q 592 486 531 524 q 687 397 653 449 q 721 268 721 344 q 681 122 721 186 q 569 22 640 58 q 406 -15 499 -15 m 182 1043 l 392 1268 l 601 1043 l 504 1043 l 392 1167 l 281 1043 l 182 1043 z "},"Ș":{"ha":783,"x_min":53,"x_max":721,"o":"m 406 -15 q 167 61 260 -15 q 53 264 74 138 l 172 293 q 252 145 188 196 q 410 94 317 94 q 507 115 464 94 q 575 174 550 136 q 600 261 600 213 q 572 346 600 313 q 495 404 544 379 q 381 454 446 429 q 240 521 300 485 q 146 608 179 557 q 113 732 113 658 q 149 863 113 806 q 250 952 185 919 q 401 985 315 985 q 564 943 493 985 q 678 819 635 901 l 581 760 q 503 847 549 817 q 397 876 457 876 q 313 858 350 876 q 256 808 276 840 q 235 735 235 776 q 260 659 235 690 q 332 604 285 628 q 446 556 379 581 q 592 486 531 524 q 687 397 653 449 q 721 268 721 344 q 681 122 721 186 q 569 22 640 58 q 406 -15 499 -15 m 217 -283 l 329 -76 l 454 -76 l 289 -283 l 217 -283 z "},"ẞ":{"ha":1058,"x_min":110,"x_max":996,"o":"m 110 0 l 110 968 l 951 968 l 951 858 l 232 858 l 232 0 l 110 0 m 674 -15 q 507 20 581 -15 q 387 119 433 56 q 326 264 340 182 l 447 294 q 522 146 461 197 q 676 94 583 94 q 778 115 733 94 q 848 174 822 136 q 874 260 874 211 q 847 344 874 311 q 772 403 821 378 q 654 457 722 429 q 513 526 574 490 q 420 614 453 561 q 388 749 388 667 q 420 842 388 804 q 507 890 453 881 l 622 883 q 540 838 571 874 q 508 749 508 801 q 533 665 508 697 q 606 608 558 632 q 719 556 653 583 q 861 487 799 522 q 960 401 924 451 q 996 269 996 350 q 953 123 996 188 q 838 22 911 58 q 674 -15 765 -15 z "},"T":{"ha":815,"x_min":21,"x_max":793,"o":"m 346 0 l 346 858 l 21 858 l 21 968 l 793 968 l 793 858 l 469 858 l 469 0 l 346 0 z "},"Ŧ":{"ha":815,"x_min":21,"x_max":793,"o":"m 346 0 l 346 858 l 21 858 l 21 968 l 793 968 l 793 858 l 469 858 l 469 0 l 346 0 m 208 446 l 208 525 l 606 525 l 606 446 l 208 446 z "},"Ť":{"ha":815,"x_min":21,"x_max":793,"o":"m 346 0 l 346 858 l 21 858 l 21 968 l 793 968 l 793 858 l 469 858 l 469 0 l 346 0 m 407 1035 l 197 1251 l 290 1251 l 407 1132 l 524 1251 l 617 1251 l 407 1035 z "},"Ţ":{"ha":815,"x_min":21,"x_max":793,"o":"m 346 0 l 346 858 l 21 858 l 21 968 l 793 968 l 793 858 l 469 858 l 469 0 l 346 0 m 381 -283 q 334 -278 358 -283 q 288 -262 310 -274 q 250 -236 267 -251 l 290 -189 q 333 -214 310 -206 q 379 -222 357 -222 q 428 -210 407 -222 q 449 -171 449 -197 q 434 -138 449 -150 q 395 -120 419 -126 q 343 -111 371 -114 q 290 -108 315 -108 l 378 11 l 451 11 l 388 -64 q 481 -96 440 -72 q 521 -168 521 -119 q 479 -253 521 -224 q 381 -283 438 -283 z "},"Ț":{"ha":815,"x_min":21,"x_max":793,"o":"m 346 0 l 346 858 l 21 858 l 21 968 l 793 968 l 793 858 l 469 858 l 469 0 l 346 0 m 232 -283 l 344 -76 l 469 -76 l 304 -283 l 232 -283 z "},"U":{"ha":911,"x_min":100,"x_max":810,"o":"m 454 -17 q 191 76 282 -17 q 100 350 100 169 l 100 968 l 222 968 l 222 364 q 245 217 222 276 q 319 126 268 157 q 454 96 371 96 q 590 127 538 96 q 665 218 642 158 q 689 365 689 278 l 689 968 l 810 968 l 810 357 q 719 78 810 174 q 454 -17 628 -17 z "},"Ú":{"ha":911,"x_min":100,"x_max":810,"o":"m 454 -17 q 191 76 282 -17 q 100 350 100 169 l 100 968 l 222 968 l 222 364 q 245 217 222 276 q 319 126 268 157 q 454 96 371 96 q 590 127 538 96 q 665 218 642 158 q 689 365 689 278 l 689 968 l 810 968 l 810 357 q 719 78 810 174 q 454 -17 628 -17 m 411 1056 l 563 1251 l 689 1251 l 499 1056 l 411 1056 z "},"Ŭ":{"ha":911,"x_min":100,"x_max":810,"o":"m 454 -17 q 191 76 282 -17 q 100 350 100 169 l 100 968 l 222 968 l 222 364 q 245 217 222 276 q 319 126 268 157 q 454 96 371 96 q 590 127 538 96 q 665 218 642 158 q 689 365 689 278 l 689 968 l 810 968 l 810 357 q 719 78 810 174 q 454 -17 628 -17 m 456 1028 q 297 1075 349 1028 q 244 1210 244 1122 l 329 1210 q 364 1126 329 1154 q 456 1099 399 1099 q 549 1127 514 1099 q 583 1210 583 1156 l 667 1210 q 613 1074 667 1119 q 456 1028 560 1028 z "},"Ǔ":{"ha":911,"x_min":100,"x_max":810,"o":"m 454 -17 q 191 76 282 -17 q 100 350 100 169 l 100 968 l 222 968 l 222 364 q 245 217 222 276 q 319 126 268 157 q 454 96 371 96 q 590 127 538 96 q 665 218 642 158 q 689 365 689 278 l 689 968 l 810 968 l 810 357 q 719 78 810 174 q 454 -17 628 -17 m 456 1035 l 246 1251 l 339 1251 l 456 1132 l 572 1251 l 665 1251 l 456 1035 z "},"Û":{"ha":911,"x_min":100,"x_max":810,"o":"m 454 -17 q 191 76 282 -17 q 100 350 100 169 l 100 968 l 222 968 l 222 364 q 245 217 222 276 q 319 126 268 157 q 454 96 371 96 q 590 127 538 96 q 665 218 642 158 q 689 365 689 278 l 689 968 l 810 968 l 810 357 q 719 78 810 174 q 454 -17 628 -17 m 246 1043 l 456 1268 l 665 1043 l 568 1043 l 456 1167 l 344 1043 l 246 1043 z "},"Ü":{"ha":911,"x_min":100,"x_max":810,"o":"m 454 -17 q 191 76 282 -17 q 100 350 100 169 l 100 968 l 222 968 l 222 364 q 245 217 222 276 q 319 126 268 157 q 454 96 371 96 q 590 127 538 96 q 665 218 642 158 q 689 365 689 278 l 689 968 l 810 968 l 810 357 q 719 78 810 174 q 454 -17 628 -17 m 515 1092 l 515 1251 l 654 1251 l 654 1092 l 515 1092 m 258 1092 l 258 1251 l 397 1251 l 397 1092 l 258 1092 z "},"Ụ":{"ha":911,"x_min":100,"x_max":810,"o":"m 454 -17 q 191 76 282 -17 q 100 350 100 169 l 100 968 l 222 968 l 222 364 q 245 217 222 276 q 319 126 268 157 q 454 96 371 96 q 590 127 538 96 q 665 218 642 158 q 689 365 689 278 l 689 968 l 810 968 l 810 357 q 719 78 810 174 q 454 -17 628 -17 m 386 -242 l 386 -96 l 525 -96 l 525 -242 l 386 -242 z "},"Ù":{"ha":911,"x_min":100,"x_max":810,"o":"m 454 -17 q 191 76 282 -17 q 100 350 100 169 l 100 968 l 222 968 l 222 364 q 245 217 222 276 q 319 126 268 157 q 454 96 371 96 q 590 127 538 96 q 665 218 642 158 q 689 365 689 278 l 689 968 l 810 968 l 810 357 q 719 78 810 174 q 454 -17 628 -17 m 411 1056 l 231 1251 l 356 1251 l 500 1056 l 411 1056 z "},"Ủ":{"ha":911,"x_min":100,"x_max":810,"o":"m 454 -17 q 191 76 282 -17 q 100 350 100 169 l 100 968 l 222 968 l 222 364 q 245 217 222 276 q 319 126 268 157 q 454 96 371 96 q 590 127 538 96 q 665 218 642 158 q 689 365 689 278 l 689 968 l 810 968 l 810 357 q 719 78 810 174 q 454 -17 628 -17 m 428 1010 l 419 1054 q 489 1072 456 1061 q 522 1118 522 1083 q 483 1170 522 1156 q 396 1185 444 1185 l 375 1185 l 375 1253 l 396 1253 q 548 1219 489 1253 q 607 1126 607 1186 q 578 1060 607 1083 q 509 1026 550 1036 q 428 1010 468 1015 z "},"Ư":{"ha":1031,"x_min":100,"x_max":986,"o":"m 454 -17 q 191 76 282 -17 q 100 350 100 169 l 100 968 l 222 968 l 222 364 q 245 217 222 276 q 319 126 268 157 q 454 96 371 96 q 590 127 538 96 q 665 218 642 158 q 689 365 689 278 l 689 968 l 810 968 l 810 357 q 719 78 810 174 q 454 -17 628 -17 m 786 689 l 786 767 q 876 804 849 767 q 903 913 903 842 l 903 968 l 986 968 l 986 906 q 965 793 986 842 q 901 717 944 744 q 786 689 857 689 z "},"Ứ":{"ha":1031,"x_min":100,"x_max":986,"o":"m 454 -17 q 191 76 282 -17 q 100 350 100 169 l 100 968 l 222 968 l 222 364 q 245 217 222 276 q 319 126 268 157 q 454 96 371 96 q 590 127 538 96 q 665 218 642 158 q 689 365 689 278 l 689 968 l 810 968 l 810 357 q 719 78 810 174 q 454 -17 628 -17 m 786 689 l 786 767 q 876 804 849 767 q 903 913 903 842 l 903 968 l 986 968 l 986 906 q 965 793 986 842 q 901 717 944 744 q 786 689 857 689 m 411 1056 l 563 1251 l 689 1251 l 499 1056 l 411 1056 z "},"Ự":{"ha":1031,"x_min":100,"x_max":986,"o":"m 454 -17 q 191 76 282 -17 q 100 350 100 169 l 100 968 l 222 968 l 222 364 q 245 217 222 276 q 319 126 268 157 q 454 96 371 96 q 590 127 538 96 q 665 218 642 158 q 689 365 689 278 l 689 968 l 810 968 l 810 357 q 719 78 810 174 q 454 -17 628 -17 m 786 689 l 786 767 q 876 804 849 767 q 903 913 903 842 l 903 968 l 986 968 l 986 906 q 965 793 986 842 q 901 717 944 744 q 786 689 857 689 m 386 -242 l 386 -96 l 525 -96 l 525 -242 l 386 -242 z "},"Ừ":{"ha":1031,"x_min":100,"x_max":986,"o":"m 454 -17 q 191 76 282 -17 q 100 350 100 169 l 100 968 l 222 968 l 222 364 q 245 217 222 276 q 319 126 268 157 q 454 96 371 96 q 590 127 538 96 q 665 218 642 158 q 689 365 689 278 l 689 968 l 810 968 l 810 357 q 719 78 810 174 q 454 -17 628 -17 m 786 689 l 786 767 q 876 804 849 767 q 903 913 903 842 l 903 968 l 986 968 l 986 906 q 965 793 986 842 q 901 717 944 744 q 786 689 857 689 m 411 1056 l 231 1251 l 356 1251 l 500 1056 l 411 1056 z "},"Ử":{"ha":1031,"x_min":100,"x_max":986,"o":"m 454 -17 q 191 76 282 -17 q 100 350 100 169 l 100 968 l 222 968 l 222 364 q 245 217 222 276 q 319 126 268 157 q 454 96 371 96 q 590 127 538 96 q 665 218 642 158 q 689 365 689 278 l 689 968 l 810 968 l 810 357 q 719 78 810 174 q 454 -17 628 -17 m 786 689 l 786 767 q 876 804 849 767 q 903 913 903 842 l 903 968 l 986 968 l 986 906 q 965 793 986 842 q 901 717 944 744 q 786 689 857 689 m 428 1010 l 419 1054 q 489 1072 456 1061 q 522 1118 522 1083 q 483 1170 522 1156 q 396 1185 444 1185 l 375 1185 l 375 1253 l 396 1253 q 548 1219 489 1253 q 607 1126 607 1186 q 578 1060 607 1083 q 509 1026 550 1036 q 428 1010 468 1015 z "},"Ữ":{"ha":1031,"x_min":100,"x_max":986,"o":"m 454 -17 q 191 76 282 -17 q 100 350 100 169 l 100 968 l 222 968 l 222 364 q 245 217 222 276 q 319 126 268 157 q 454 96 371 96 q 590 127 538 96 q 665 218 642 158 q 689 365 689 278 l 689 968 l 810 968 l 810 357 q 719 78 810 174 q 454 -17 628 -17 m 786 689 l 786 767 q 876 804 849 767 q 903 913 903 842 l 903 968 l 986 968 l 986 906 q 965 793 986 842 q 901 717 944 744 q 786 689 857 689 m 547 1032 q 491 1044 514 1032 q 452 1073 468 1056 q 423 1108 436 1090 q 395 1137 410 1125 q 360 1149 381 1149 q 317 1121 333 1149 q 300 1043 300 1093 l 231 1043 q 267 1170 231 1125 q 365 1215 303 1215 q 417 1203 396 1215 q 453 1174 438 1192 q 483 1138 469 1156 q 513 1109 497 1121 q 549 1097 528 1097 q 589 1128 572 1097 q 606 1210 606 1158 l 678 1210 q 642 1079 678 1126 q 547 1032 607 1032 z "},"Ű":{"ha":911,"x_min":100,"x_max":811,"o":"m 454 -17 q 191 76 282 -17 q 100 350 100 169 l 100 968 l 222 968 l 222 364 q 245 217 222 276 q 319 126 268 157 q 454 96 371 96 q 590 127 538 96 q 665 218 642 158 q 689 365 689 278 l 689 968 l 810 968 l 810 357 q 719 78 810 174 q 454 -17 628 -17 m 533 1036 l 686 1251 l 811 1251 l 622 1036 l 533 1036 m 289 1036 l 440 1251 l 547 1251 l 376 1036 l 289 1036 z "},"Ū":{"ha":911,"x_min":100,"x_max":810,"o":"m 454 -17 q 191 76 282 -17 q 100 350 100 169 l 100 968 l 222 968 l 222 364 q 245 217 222 276 q 319 126 268 157 q 454 96 371 96 q 590 127 538 96 q 665 218 642 158 q 689 365 689 278 l 689 968 l 810 968 l 810 357 q 719 78 810 174 q 454 -17 628 -17 m 267 1101 l 267 1172 l 643 1172 l 643 1101 l 267 1101 z "},"Ų":{"ha":911,"x_min":100,"x_max":810,"o":"m 454 -17 q 191 76 282 -17 q 100 350 100 169 l 100 968 l 222 968 l 222 364 q 245 217 222 276 q 319 126 268 157 q 454 96 371 96 q 590 127 538 96 q 665 218 642 158 q 689 365 689 278 l 689 968 l 810 968 l 810 357 q 719 78 810 174 q 454 -17 628 -17 m 472 -283 q 383 -253 421 -283 q 346 -168 346 -224 q 365 -95 346 -128 q 411 -37 383 -62 q 467 3 439 -12 l 560 0 q 515 -27 539 -11 q 467 -63 490 -43 q 431 -108 444 -83 q 417 -158 417 -132 q 433 -200 417 -186 q 472 -214 449 -214 q 521 -202 494 -214 q 572 -168 547 -190 l 608 -224 q 542 -269 578 -254 q 472 -283 507 -283 z "},"Ů":{"ha":911,"x_min":100,"x_max":810,"o":"m 454 -17 q 191 76 282 -17 q 100 350 100 169 l 100 968 l 222 968 l 222 364 q 245 217 222 276 q 319 126 268 157 q 454 96 371 96 q 590 127 538 96 q 665 218 642 158 q 689 365 689 278 l 689 968 l 810 968 l 810 357 q 719 78 810 174 q 454 -17 628 -17 m 456 944 q 383 964 415 944 q 333 1016 351 983 q 314 1086 314 1049 q 333 1157 314 1125 q 384 1208 351 1189 q 456 1228 417 1228 q 526 1208 494 1228 q 578 1157 558 1189 q 597 1086 597 1125 q 578 1015 597 1047 q 526 963 558 982 q 456 944 494 944 m 456 1010 q 510 1032 488 1010 q 532 1086 532 1054 q 510 1141 532 1119 q 456 1163 489 1163 q 401 1140 422 1163 q 379 1086 379 1118 q 401 1032 379 1054 q 456 1010 424 1010 z "},"Ũ":{"ha":911,"x_min":100,"x_max":810,"o":"m 454 -17 q 191 76 282 -17 q 100 350 100 169 l 100 968 l 222 968 l 222 364 q 245 217 222 276 q 319 126 268 157 q 454 96 371 96 q 590 127 538 96 q 665 218 642 158 q 689 365 689 278 l 689 968 l 810 968 l 810 357 q 719 78 810 174 q 454 -17 628 -17 m 547 1032 q 491 1044 514 1032 q 452 1073 468 1056 q 423 1108 436 1090 q 395 1137 410 1125 q 360 1149 381 1149 q 317 1121 333 1149 q 300 1043 300 1093 l 231 1043 q 267 1170 231 1125 q 365 1215 303 1215 q 417 1203 396 1215 q 453 1174 438 1192 q 483 1138 469 1156 q 513 1109 497 1121 q 549 1097 528 1097 q 589 1128 572 1097 q 606 1210 606 1158 l 678 1210 q 642 1079 678 1126 q 547 1032 607 1032 z "},"V":{"ha":911,"x_min":24,"x_max":888,"o":"m 410 0 l 24 968 l 158 968 l 475 149 l 440 149 l 753 968 l 888 968 l 504 0 l 410 0 z "},"W":{"ha":1329,"x_min":32,"x_max":1297,"o":"m 315 0 l 32 968 l 160 968 l 383 185 l 604 915 l 726 915 l 947 185 l 1169 968 l 1297 968 l 1014 0 l 893 0 l 656 769 l 675 769 l 438 0 l 315 0 z "},"Ẃ":{"ha":1329,"x_min":32,"x_max":1297,"o":"m 315 0 l 32 968 l 160 968 l 383 185 l 604 915 l 726 915 l 947 185 l 1169 968 l 1297 968 l 1014 0 l 893 0 l 656 769 l 675 769 l 438 0 l 315 0 m 621 1056 l 772 1251 l 899 1251 l 708 1056 l 621 1056 z "},"Ŵ":{"ha":1329,"x_min":32,"x_max":1297,"o":"m 315 0 l 32 968 l 160 968 l 383 185 l 604 915 l 726 915 l 947 185 l 1169 968 l 1297 968 l 1014 0 l 893 0 l 656 769 l 675 769 l 438 0 l 315 0 m 456 1043 l 665 1268 l 875 1043 l 778 1043 l 665 1167 l 554 1043 l 456 1043 z "},"Ẅ":{"ha":1329,"x_min":32,"x_max":1297,"o":"m 315 0 l 32 968 l 160 968 l 383 185 l 604 915 l 726 915 l 947 185 l 1169 968 l 1297 968 l 1014 0 l 893 0 l 656 769 l 675 769 l 438 0 l 315 0 m 725 1092 l 725 1251 l 864 1251 l 864 1092 l 725 1092 m 468 1092 l 468 1251 l 607 1251 l 607 1092 l 468 1092 z "},"Ẁ":{"ha":1329,"x_min":32,"x_max":1297,"o":"m 315 0 l 32 968 l 160 968 l 383 185 l 604 915 l 726 915 l 947 185 l 1169 968 l 1297 968 l 1014 0 l 893 0 l 656 769 l 675 769 l 438 0 l 315 0 m 621 1056 l 440 1251 l 565 1251 l 710 1056 l 621 1056 z "},"X":{"ha":890,"x_min":29,"x_max":863,"o":"m 29 0 l 361 486 l 33 968 l 179 968 l 446 572 l 711 968 l 857 968 l 529 486 l 863 0 l 717 0 l 444 397 l 174 0 l 29 0 z "},"Y":{"ha":836,"x_min":17,"x_max":819,"o":"m 358 0 l 358 374 l 17 968 l 156 968 l 415 496 l 681 968 l 819 968 l 481 374 l 481 0 l 358 0 z "},"Ý":{"ha":836,"x_min":17,"x_max":819,"o":"m 358 0 l 358 374 l 17 968 l 156 968 l 415 496 l 681 968 l 819 968 l 481 374 l 481 0 l 358 0 m 375 1056 l 526 1251 l 653 1251 l 463 1056 l 375 1056 z "},"Ŷ":{"ha":836,"x_min":17,"x_max":819,"o":"m 358 0 l 358 374 l 17 968 l 156 968 l 415 496 l 681 968 l 819 968 l 481 374 l 481 0 l 358 0 m 210 1043 l 419 1268 l 629 1043 l 532 1043 l 419 1167 l 308 1043 l 210 1043 z "},"Ÿ":{"ha":836,"x_min":17,"x_max":819,"o":"m 358 0 l 358 374 l 17 968 l 156 968 l 415 496 l 681 968 l 819 968 l 481 374 l 481 0 l 358 0 m 479 1092 l 479 1251 l 618 1251 l 618 1092 l 479 1092 m 222 1092 l 222 1251 l 361 1251 l 361 1092 l 222 1092 z "},"Ỵ":{"ha":836,"x_min":17,"x_max":819,"o":"m 358 0 l 358 374 l 17 968 l 156 968 l 415 496 l 681 968 l 819 968 l 481 374 l 481 0 l 358 0 m 350 -242 l 350 -96 l 489 -96 l 489 -242 l 350 -242 z "},"Ỳ":{"ha":836,"x_min":17,"x_max":819,"o":"m 358 0 l 358 374 l 17 968 l 156 968 l 415 496 l 681 968 l 819 968 l 481 374 l 481 0 l 358 0 m 375 1056 l 194 1251 l 319 1251 l 464 1056 l 375 1056 z "},"Ỷ":{"ha":836,"x_min":17,"x_max":819,"o":"m 358 0 l 358 374 l 17 968 l 156 968 l 415 496 l 681 968 l 819 968 l 481 374 l 481 0 l 358 0 m 392 1010 l 383 1054 q 453 1072 419 1061 q 486 1118 486 1083 q 447 1170 486 1156 q 360 1185 408 1185 l 339 1185 l 339 1253 l 360 1253 q 512 1219 453 1253 q 571 1126 571 1186 q 542 1060 571 1083 q 473 1026 514 1036 q 392 1010 432 1015 z "},"Ȳ":{"ha":836,"x_min":17,"x_max":819,"o":"m 358 0 l 358 374 l 17 968 l 156 968 l 415 496 l 681 968 l 819 968 l 481 374 l 481 0 l 358 0 m 231 1101 l 231 1172 l 607 1172 l 607 1101 l 231 1101 z "},"Ỹ":{"ha":836,"x_min":17,"x_max":819,"o":"m 358 0 l 358 374 l 17 968 l 156 968 l 415 496 l 681 968 l 819 968 l 481 374 l 481 0 l 358 0 m 511 1032 q 455 1044 478 1032 q 416 1073 432 1056 q 387 1108 400 1090 q 359 1137 374 1125 q 324 1149 344 1149 q 281 1121 297 1149 q 264 1043 264 1093 l 194 1043 q 231 1170 194 1125 q 329 1215 267 1215 q 381 1203 360 1215 q 417 1174 401 1192 q 447 1138 433 1156 q 476 1109 461 1121 q 513 1097 492 1097 q 553 1128 536 1097 q 569 1210 569 1158 l 642 1210 q 606 1079 642 1126 q 511 1032 571 1032 z "},"Z":{"ha":808,"x_min":44,"x_max":763,"o":"m 44 0 l 44 104 l 624 896 l 640 858 l 78 858 l 78 968 l 746 968 l 746 865 l 176 88 l 161 110 l 763 110 l 763 0 l 44 0 z "},"Ź":{"ha":808,"x_min":44,"x_max":763,"o":"m 44 0 l 44 104 l 624 896 l 640 858 l 78 858 l 78 968 l 746 968 l 746 865 l 176 88 l 161 110 l 763 110 l 763 0 l 44 0 m 363 1056 l 514 1251 l 640 1251 l 450 1056 l 363 1056 z "},"Ž":{"ha":808,"x_min":44,"x_max":763,"o":"m 44 0 l 44 104 l 624 896 l 640 858 l 78 858 l 78 968 l 746 968 l 746 865 l 176 88 l 161 110 l 763 110 l 763 0 l 44 0 m 407 1035 l 197 1251 l 290 1251 l 407 1132 l 524 1251 l 617 1251 l 407 1035 z "},"Ż":{"ha":808,"x_min":44,"x_max":763,"o":"m 44 0 l 44 104 l 624 896 l 640 858 l 78 858 l 78 968 l 746 968 l 746 865 l 176 88 l 161 110 l 763 110 l 763 0 l 44 0 m 338 1092 l 338 1251 l 476 1251 l 476 1092 l 338 1092 z "},"a":{"ha":750,"x_min":68,"x_max":658,"o":"m 550 0 l 542 138 l 542 429 q 498 551 542 508 q 368 594 454 594 q 264 572 313 594 q 169 494 215 549 l 85 567 q 215 665 142 633 q 376 696 289 696 q 585 626 511 696 q 658 429 658 557 l 658 0 l 550 0 m 324 -11 q 188 16 246 -11 q 99 92 131 43 q 68 204 68 140 q 91 301 68 261 q 150 363 114 340 q 233 395 186 386 q 331 404 279 404 l 553 404 l 553 315 l 347 315 q 283 310 317 315 q 225 286 250 304 q 197 251 207 272 q 186 203 186 231 q 226 117 186 149 q 335 85 267 85 q 438 111 392 85 q 513 184 485 138 q 542 289 542 231 l 590 239 q 546 108 582 165 q 453 20 510 51 q 324 -11 397 -11 z "},"á":{"ha":750,"x_min":68,"x_max":658,"o":"m 550 0 l 542 138 l 542 429 q 498 551 542 508 q 368 594 454 594 q 264 572 313 594 q 169 494 215 549 l 85 567 q 215 665 142 633 q 376 696 289 696 q 585 626 511 696 q 658 429 658 557 l 658 0 l 550 0 m 324 -11 q 188 16 246 -11 q 99 92 131 43 q 68 204 68 140 q 91 301 68 261 q 150 363 114 340 q 233 395 186 386 q 331 404 279 404 l 553 404 l 553 315 l 347 315 q 283 310 317 315 q 225 286 250 304 q 197 251 207 272 q 186 203 186 231 q 226 117 186 149 q 335 85 267 85 q 438 111 392 85 q 513 184 485 138 q 542 289 542 231 l 590 239 q 546 108 582 165 q 453 20 510 51 q 324 -11 397 -11 m 336 772 l 488 968 l 614 968 l 424 772 l 336 772 z "},"ă":{"ha":750,"x_min":68,"x_max":658,"o":"m 550 0 l 542 138 l 542 429 q 498 551 542 508 q 368 594 454 594 q 264 572 313 594 q 169 494 215 549 l 85 567 q 215 665 142 633 q 376 696 289 696 q 585 626 511 696 q 658 429 658 557 l 658 0 l 550 0 m 324 -11 q 188 16 246 -11 q 99 92 131 43 q 68 204 68 140 q 91 301 68 261 q 150 363 114 340 q 233 395 186 386 q 331 404 279 404 l 553 404 l 553 315 l 347 315 q 283 310 317 315 q 225 286 250 304 q 197 251 207 272 q 186 203 186 231 q 226 117 186 149 q 335 85 267 85 q 438 111 392 85 q 513 184 485 138 q 542 289 542 231 l 590 239 q 546 108 582 165 q 453 20 510 51 q 324 -11 397 -11 m 381 772 q 222 821 274 772 q 169 968 169 869 l 246 968 q 282 872 246 901 q 381 842 318 842 q 481 872 446 842 q 515 968 515 903 l 592 968 q 538 819 592 867 q 381 772 485 772 z "},"ắ":{"ha":750,"x_min":68,"x_max":658,"o":"m 550 0 l 542 138 l 542 429 q 498 551 542 508 q 368 594 454 594 q 264 572 313 594 q 169 494 215 549 l 85 567 q 215 665 142 633 q 376 696 289 696 q 585 626 511 696 q 658 429 658 557 l 658 0 l 550 0 m 324 -11 q 188 16 246 -11 q 99 92 131 43 q 68 204 68 140 q 91 301 68 261 q 150 363 114 340 q 233 395 186 386 q 331 404 279 404 l 553 404 l 553 315 l 347 315 q 283 310 317 315 q 225 286 250 304 q 197 251 207 272 q 186 203 186 231 q 226 117 186 149 q 335 85 267 85 q 438 111 392 85 q 513 184 485 138 q 542 289 542 231 l 590 239 q 546 108 582 165 q 453 20 510 51 q 324 -11 397 -11 m 381 772 q 222 821 274 772 q 169 968 169 869 l 246 968 q 282 872 246 901 q 381 842 318 842 q 481 872 446 842 q 515 968 515 903 l 592 968 q 538 819 592 867 q 381 772 485 772 m 332 963 l 428 1143 l 522 1143 l 404 963 l 332 963 z "},"ặ":{"ha":750,"x_min":68,"x_max":658,"o":"m 550 0 l 542 138 l 542 429 q 498 551 542 508 q 368 594 454 594 q 264 572 313 594 q 169 494 215 549 l 85 567 q 215 665 142 633 q 376 696 289 696 q 585 626 511 696 q 658 429 658 557 l 658 0 l 550 0 m 324 -11 q 188 16 246 -11 q 99 92 131 43 q 68 204 68 140 q 91 301 68 261 q 150 363 114 340 q 233 395 186 386 q 331 404 279 404 l 553 404 l 553 315 l 347 315 q 283 310 317 315 q 225 286 250 304 q 197 251 207 272 q 186 203 186 231 q 226 117 186 149 q 335 85 267 85 q 438 111 392 85 q 513 184 485 138 q 542 289 542 231 l 590 239 q 546 108 582 165 q 453 20 510 51 q 324 -11 397 -11 m 311 -242 l 311 -96 l 450 -96 l 450 -242 l 311 -242 m 381 772 q 222 821 274 772 q 169 968 169 869 l 246 968 q 282 872 246 901 q 381 842 318 842 q 481 872 446 842 q 515 968 515 903 l 592 968 q 538 819 592 867 q 381 772 485 772 z "},"ằ":{"ha":750,"x_min":68,"x_max":658,"o":"m 550 0 l 542 138 l 542 429 q 498 551 542 508 q 368 594 454 594 q 264 572 313 594 q 169 494 215 549 l 85 567 q 215 665 142 633 q 376 696 289 696 q 585 626 511 696 q 658 429 658 557 l 658 0 l 550 0 m 324 -11 q 188 16 246 -11 q 99 92 131 43 q 68 204 68 140 q 91 301 68 261 q 150 363 114 340 q 233 395 186 386 q 331 404 279 404 l 553 404 l 553 315 l 347 315 q 283 310 317 315 q 225 286 250 304 q 197 251 207 272 q 186 203 186 231 q 226 117 186 149 q 335 85 267 85 q 438 111 392 85 q 513 184 485 138 q 542 289 542 231 l 590 239 q 546 108 582 165 q 453 20 510 51 q 324 -11 397 -11 m 381 772 q 222 821 274 772 q 169 968 169 869 l 246 968 q 282 872 246 901 q 381 842 318 842 q 481 872 446 842 q 515 968 515 903 l 592 968 q 538 819 592 867 q 381 772 485 772 m 357 963 l 239 1143 l 336 1143 l 431 963 l 357 963 z "},"ẳ":{"ha":750,"x_min":68,"x_max":658,"o":"m 550 0 l 542 138 l 542 429 q 498 551 542 508 q 368 594 454 594 q 264 572 313 594 q 169 494 215 549 l 85 567 q 215 665 142 633 q 376 696 289 696 q 585 626 511 696 q 658 429 658 557 l 658 0 l 550 0 m 324 -11 q 188 16 246 -11 q 99 92 131 43 q 68 204 68 140 q 91 301 68 261 q 150 363 114 340 q 233 395 186 386 q 331 404 279 404 l 553 404 l 553 315 l 347 315 q 283 310 317 315 q 225 286 250 304 q 197 251 207 272 q 186 203 186 231 q 226 117 186 149 q 335 85 267 85 q 438 111 392 85 q 513 184 485 138 q 542 289 542 231 l 590 239 q 546 108 582 165 q 453 20 510 51 q 324 -11 397 -11 m 381 772 q 222 821 274 772 q 169 968 169 869 l 246 968 q 282 872 246 901 q 381 842 318 842 q 481 872 446 842 q 515 968 515 903 l 592 968 q 538 819 592 867 q 381 772 485 772 m 347 940 l 333 986 q 403 1007 381 992 q 425 1049 425 1022 q 408 1088 425 1074 q 365 1108 392 1101 q 311 1114 339 1114 l 290 1114 l 290 1178 l 311 1178 q 447 1146 397 1178 q 496 1057 496 1114 q 474 992 496 1015 q 419 957 453 968 q 347 940 385 946 z "},"ẵ":{"ha":750,"x_min":68,"x_max":658,"o":"m 550 0 l 542 138 l 542 429 q 498 551 542 508 q 368 594 454 594 q 264 572 313 594 q 169 494 215 549 l 85 567 q 215 665 142 633 q 376 696 289 696 q 585 626 511 696 q 658 429 658 557 l 658 0 l 550 0 m 324 -11 q 188 16 246 -11 q 99 92 131 43 q 68 204 68 140 q 91 301 68 261 q 150 363 114 340 q 233 395 186 386 q 331 404 279 404 l 553 404 l 553 315 l 347 315 q 283 310 317 315 q 225 286 250 304 q 197 251 207 272 q 186 203 186 231 q 226 117 186 149 q 335 85 267 85 q 438 111 392 85 q 513 184 485 138 q 542 289 542 231 l 590 239 q 546 108 582 165 q 453 20 510 51 q 324 -11 397 -11 m 381 772 q 222 821 274 772 q 169 968 169 869 l 246 968 q 282 872 246 901 q 381 842 318 842 q 481 872 446 842 q 515 968 515 903 l 592 968 q 538 819 592 867 q 381 772 485 772 m 474 1013 q 417 1022 439 1013 q 380 1043 396 1031 q 347 1065 364 1056 q 303 1074 329 1074 q 260 1060 275 1074 q 239 1022 246 1047 l 174 1025 q 213 1109 181 1079 q 294 1139 246 1139 q 351 1131 328 1139 q 393 1110 375 1122 q 428 1090 411 1099 q 467 1082 446 1082 q 503 1093 489 1082 q 522 1128 517 1104 l 590 1126 q 557 1046 585 1079 q 474 1013 529 1013 z "},"ǎ":{"ha":750,"x_min":68,"x_max":658,"o":"m 550 0 l 542 138 l 542 429 q 498 551 542 508 q 368 594 454 594 q 264 572 313 594 q 169 494 215 549 l 85 567 q 215 665 142 633 q 376 696 289 696 q 585 626 511 696 q 658 429 658 557 l 658 0 l 550 0 m 324 -11 q 188 16 246 -11 q 99 92 131 43 q 68 204 68 140 q 91 301 68 261 q 150 363 114 340 q 233 395 186 386 q 331 404 279 404 l 553 404 l 553 315 l 347 315 q 283 310 317 315 q 225 286 250 304 q 197 251 207 272 q 186 203 186 231 q 226 117 186 149 q 335 85 267 85 q 438 111 392 85 q 513 184 485 138 q 542 289 542 231 l 590 239 q 546 108 582 165 q 453 20 510 51 q 324 -11 397 -11 m 381 751 l 171 968 l 264 968 l 381 849 l 497 968 l 590 968 l 381 751 z "},"â":{"ha":750,"x_min":68,"x_max":658,"o":"m 550 0 l 542 138 l 542 429 q 498 551 542 508 q 368 594 454 594 q 264 572 313 594 q 169 494 215 549 l 85 567 q 215 665 142 633 q 376 696 289 696 q 585 626 511 696 q 658 429 658 557 l 658 0 l 550 0 m 324 -11 q 188 16 246 -11 q 99 92 131 43 q 68 204 68 140 q 91 301 68 261 q 150 363 114 340 q 233 395 186 386 q 331 404 279 404 l 553 404 l 553 315 l 347 315 q 283 310 317 315 q 225 286 250 304 q 197 251 207 272 q 186 203 186 231 q 226 117 186 149 q 335 85 267 85 q 438 111 392 85 q 513 184 485 138 q 542 289 542 231 l 590 239 q 546 108 582 165 q 453 20 510 51 q 324 -11 397 -11 m 171 760 l 381 985 l 590 760 l 494 760 l 381 883 l 268 760 l 171 760 z "},"ấ":{"ha":750,"x_min":68,"x_max":683,"o":"m 550 0 l 542 138 l 542 429 q 498 551 542 508 q 368 594 454 594 q 264 572 313 594 q 169 494 215 549 l 85 567 q 215 665 142 633 q 376 696 289 696 q 585 626 511 696 q 658 429 658 557 l 658 0 l 550 0 m 324 -11 q 188 16 246 -11 q 99 92 131 43 q 68 204 68 140 q 91 301 68 261 q 150 363 114 340 q 233 395 186 386 q 331 404 279 404 l 553 404 l 553 315 l 347 315 q 283 310 317 315 q 225 286 250 304 q 197 251 207 272 q 186 203 186 231 q 226 117 186 149 q 335 85 267 85 q 438 111 392 85 q 513 184 485 138 q 542 289 542 231 l 590 239 q 546 108 582 165 q 453 20 510 51 q 324 -11 397 -11 m 171 760 l 381 971 l 590 760 l 493 760 l 381 868 l 268 760 l 171 760 m 486 903 l 586 1089 l 683 1089 l 560 903 l 486 903 z "},"ậ":{"ha":750,"x_min":68,"x_max":658,"o":"m 550 0 l 542 138 l 542 429 q 498 551 542 508 q 368 594 454 594 q 264 572 313 594 q 169 494 215 549 l 85 567 q 215 665 142 633 q 376 696 289 696 q 585 626 511 696 q 658 429 658 557 l 658 0 l 550 0 m 324 -11 q 188 16 246 -11 q 99 92 131 43 q 68 204 68 140 q 91 301 68 261 q 150 363 114 340 q 233 395 186 386 q 331 404 279 404 l 553 404 l 553 315 l 347 315 q 283 310 317 315 q 225 286 250 304 q 197 251 207 272 q 186 203 186 231 q 226 117 186 149 q 335 85 267 85 q 438 111 392 85 q 513 184 485 138 q 542 289 542 231 l 590 239 q 546 108 582 165 q 453 20 510 51 q 324 -11 397 -11 m 311 -242 l 311 -96 l 450 -96 l 450 -242 l 311 -242 m 171 760 l 381 985 l 590 760 l 494 760 l 381 883 l 268 760 l 171 760 z "},"ầ":{"ha":750,"x_min":68,"x_max":658,"o":"m 550 0 l 542 138 l 542 429 q 498 551 542 508 q 368 594 454 594 q 264 572 313 594 q 169 494 215 549 l 85 567 q 215 665 142 633 q 376 696 289 696 q 585 626 511 696 q 658 429 658 557 l 658 0 l 550 0 m 324 -11 q 188 16 246 -11 q 99 92 131 43 q 68 204 68 140 q 91 301 68 261 q 150 363 114 340 q 233 395 186 386 q 331 404 279 404 l 553 404 l 553 315 l 347 315 q 283 310 317 315 q 225 286 250 304 q 197 251 207 272 q 186 203 186 231 q 226 117 186 149 q 335 85 267 85 q 438 111 392 85 q 513 184 485 138 q 542 289 542 231 l 590 239 q 546 108 582 165 q 453 20 510 51 q 324 -11 397 -11 m 171 760 l 381 971 l 590 760 l 493 760 l 381 868 l 269 760 l 171 760 m 553 903 l 429 1089 l 526 1089 l 626 903 l 553 903 z "},"ẩ":{"ha":750,"x_min":68,"x_max":658,"o":"m 550 0 l 542 138 l 542 429 q 498 551 542 508 q 368 594 454 594 q 264 572 313 594 q 169 494 215 549 l 85 567 q 215 665 142 633 q 376 696 289 696 q 585 626 511 696 q 658 429 658 557 l 658 0 l 550 0 m 324 -11 q 188 16 246 -11 q 99 92 131 43 q 68 204 68 140 q 91 301 68 261 q 150 363 114 340 q 233 395 186 386 q 331 404 279 404 l 553 404 l 553 315 l 347 315 q 283 310 317 315 q 225 286 250 304 q 197 251 207 272 q 186 203 186 231 q 226 117 186 149 q 335 85 267 85 q 438 111 392 85 q 513 184 485 138 q 542 289 542 231 l 590 239 q 546 108 582 165 q 453 20 510 51 q 324 -11 397 -11 m 171 760 l 381 971 l 590 760 l 493 760 l 381 868 l 269 760 l 171 760 m 510 881 l 497 925 q 563 945 536 932 q 589 989 589 958 q 553 1039 589 1025 q 474 1053 517 1053 l 453 1053 l 453 1117 l 474 1117 q 609 1085 560 1117 q 658 994 658 1053 q 638 932 658 954 q 583 899 617 910 q 510 881 549 888 z "},"ẫ":{"ha":750,"x_min":68,"x_max":658,"o":"m 550 0 l 542 138 l 542 429 q 498 551 542 508 q 368 594 454 594 q 264 572 313 594 q 169 494 215 549 l 85 567 q 215 665 142 633 q 376 696 289 696 q 585 626 511 696 q 658 429 658 557 l 658 0 l 550 0 m 324 -11 q 188 16 246 -11 q 99 92 131 43 q 68 204 68 140 q 91 301 68 261 q 150 363 114 340 q 233 395 186 386 q 331 404 279 404 l 553 404 l 553 315 l 347 315 q 283 310 317 315 q 225 286 250 304 q 197 251 207 272 q 186 203 186 231 q 226 117 186 149 q 335 85 267 85 q 438 111 392 85 q 513 184 485 138 q 542 289 542 231 l 590 239 q 546 108 582 165 q 453 20 510 51 q 324 -11 397 -11 m 171 760 l 381 971 l 590 760 l 494 760 l 381 868 l 268 760 l 171 760 m 472 983 q 416 992 438 983 q 378 1014 394 1001 q 345 1035 363 1026 q 301 1044 328 1044 q 257 1029 271 1044 q 239 993 243 1014 l 172 996 q 209 1078 178 1046 q 294 1110 240 1110 q 351 1101 328 1110 q 392 1081 374 1093 q 426 1061 410 1069 q 464 1053 443 1053 q 501 1063 488 1053 q 519 1099 514 1074 l 589 1096 q 554 1015 583 1046 q 472 983 525 983 z "},"ä":{"ha":750,"x_min":68,"x_max":658,"o":"m 550 0 l 542 138 l 542 429 q 498 551 542 508 q 368 594 454 594 q 264 572 313 594 q 169 494 215 549 l 85 567 q 215 665 142 633 q 376 696 289 696 q 585 626 511 696 q 658 429 658 557 l 658 0 l 550 0 m 324 -11 q 188 16 246 -11 q 99 92 131 43 q 68 204 68 140 q 91 301 68 261 q 150 363 114 340 q 233 395 186 386 q 331 404 279 404 l 553 404 l 553 315 l 347 315 q 283 310 317 315 q 225 286 250 304 q 197 251 207 272 q 186 203 186 231 q 226 117 186 149 q 335 85 267 85 q 438 111 392 85 q 513 184 485 138 q 542 289 542 231 l 590 239 q 546 108 582 165 q 453 20 510 51 q 324 -11 397 -11 m 440 808 l 440 968 l 579 968 l 579 808 l 440 808 m 183 808 l 183 968 l 322 968 l 322 808 l 183 808 z "},"ạ":{"ha":750,"x_min":68,"x_max":658,"o":"m 550 0 l 542 138 l 542 429 q 498 551 542 508 q 368 594 454 594 q 264 572 313 594 q 169 494 215 549 l 85 567 q 215 665 142 633 q 376 696 289 696 q 585 626 511 696 q 658 429 658 557 l 658 0 l 550 0 m 324 -11 q 188 16 246 -11 q 99 92 131 43 q 68 204 68 140 q 91 301 68 261 q 150 363 114 340 q 233 395 186 386 q 331 404 279 404 l 553 404 l 553 315 l 347 315 q 283 310 317 315 q 225 286 250 304 q 197 251 207 272 q 186 203 186 231 q 226 117 186 149 q 335 85 267 85 q 438 111 392 85 q 513 184 485 138 q 542 289 542 231 l 590 239 q 546 108 582 165 q 453 20 510 51 q 324 -11 397 -11 m 311 -242 l 311 -96 l 450 -96 l 450 -242 l 311 -242 z "},"à":{"ha":750,"x_min":68,"x_max":658,"o":"m 550 0 l 542 138 l 542 429 q 498 551 542 508 q 368 594 454 594 q 264 572 313 594 q 169 494 215 549 l 85 567 q 215 665 142 633 q 376 696 289 696 q 585 626 511 696 q 658 429 658 557 l 658 0 l 550 0 m 324 -11 q 188 16 246 -11 q 99 92 131 43 q 68 204 68 140 q 91 301 68 261 q 150 363 114 340 q 233 395 186 386 q 331 404 279 404 l 553 404 l 553 315 l 347 315 q 283 310 317 315 q 225 286 250 304 q 197 251 207 272 q 186 203 186 231 q 226 117 186 149 q 335 85 267 85 q 438 111 392 85 q 513 184 485 138 q 542 289 542 231 l 590 239 q 546 108 582 165 q 453 20 510 51 q 324 -11 397 -11 m 336 772 l 156 968 l 281 968 l 425 772 l 336 772 z "},"ả":{"ha":750,"x_min":68,"x_max":658,"o":"m 550 0 l 542 138 l 542 429 q 498 551 542 508 q 368 594 454 594 q 264 572 313 594 q 169 494 215 549 l 85 567 q 215 665 142 633 q 376 696 289 696 q 585 626 511 696 q 658 429 658 557 l 658 0 l 550 0 m 324 -11 q 188 16 246 -11 q 99 92 131 43 q 68 204 68 140 q 91 301 68 261 q 150 363 114 340 q 233 395 186 386 q 331 404 279 404 l 553 404 l 553 315 l 347 315 q 283 310 317 315 q 225 286 250 304 q 197 251 207 272 q 186 203 186 231 q 226 117 186 149 q 335 85 267 85 q 438 111 392 85 q 513 184 485 138 q 542 289 542 231 l 590 239 q 546 108 582 165 q 453 20 510 51 q 324 -11 397 -11 m 353 726 l 344 771 q 414 789 381 778 q 447 835 447 800 q 408 887 447 872 q 321 901 369 901 l 300 901 l 300 969 l 321 969 q 473 936 414 969 q 532 843 532 903 q 503 776 532 800 q 434 742 475 753 q 353 726 393 732 z "},"ā":{"ha":750,"x_min":68,"x_max":658,"o":"m 550 0 l 542 138 l 542 429 q 498 551 542 508 q 368 594 454 594 q 264 572 313 594 q 169 494 215 549 l 85 567 q 215 665 142 633 q 376 696 289 696 q 585 626 511 696 q 658 429 658 557 l 658 0 l 550 0 m 324 -11 q 188 16 246 -11 q 99 92 131 43 q 68 204 68 140 q 91 301 68 261 q 150 363 114 340 q 233 395 186 386 q 331 404 279 404 l 553 404 l 553 315 l 347 315 q 283 310 317 315 q 225 286 250 304 q 197 251 207 272 q 186 203 186 231 q 226 117 186 149 q 335 85 267 85 q 438 111 392 85 q 513 184 485 138 q 542 289 542 231 l 590 239 q 546 108 582 165 q 453 20 510 51 q 324 -11 397 -11 m 192 818 l 192 889 l 568 889 l 568 818 l 192 818 z "},"ą":{"ha":750,"x_min":68,"x_max":707,"o":"m 550 0 l 542 138 l 542 429 q 498 551 542 508 q 368 594 454 594 q 264 572 313 594 q 169 494 215 549 l 85 567 q 215 665 142 633 q 376 696 289 696 q 585 626 511 696 q 658 429 658 557 l 658 0 l 550 0 m 324 -11 q 188 16 246 -11 q 99 92 131 43 q 68 204 68 140 q 91 301 68 261 q 150 363 114 340 q 233 395 186 386 q 331 404 279 404 l 553 404 l 553 315 l 347 315 q 283 310 317 315 q 225 286 250 304 q 197 251 207 272 q 186 203 186 231 q 226 117 186 149 q 335 85 267 85 q 438 111 392 85 q 513 184 485 138 q 542 289 542 231 l 590 239 q 546 108 582 165 q 453 20 510 51 q 324 -11 397 -11 m 571 -283 q 482 -253 519 -283 q 444 -168 444 -224 q 463 -95 444 -128 q 510 -37 482 -62 q 565 3 538 -12 l 658 0 q 613 -27 638 -11 q 566 -63 589 -43 q 529 -108 543 -83 q 515 -158 515 -132 q 531 -200 515 -186 q 571 -214 547 -214 q 619 -202 593 -214 q 671 -168 646 -190 l 707 -224 q 641 -269 676 -254 q 571 -283 606 -283 z "},"å":{"ha":750,"x_min":68,"x_max":658,"o":"m 550 0 l 542 138 l 542 429 q 498 551 542 508 q 368 594 454 594 q 264 572 313 594 q 169 494 215 549 l 85 567 q 215 665 142 633 q 376 696 289 696 q 585 626 511 696 q 658 429 658 557 l 658 0 l 550 0 m 324 -11 q 188 16 246 -11 q 99 92 131 43 q 68 204 68 140 q 91 301 68 261 q 150 363 114 340 q 233 395 186 386 q 331 404 279 404 l 553 404 l 553 315 l 347 315 q 283 310 317 315 q 225 286 250 304 q 197 251 207 272 q 186 203 186 231 q 226 117 186 149 q 335 85 267 85 q 438 111 392 85 q 513 184 485 138 q 542 289 542 231 l 590 239 q 546 108 582 165 q 453 20 510 51 q 324 -11 397 -11 m 381 744 q 308 764 340 744 q 258 816 276 783 q 239 886 239 849 q 258 957 239 925 q 309 1008 276 989 q 381 1028 342 1028 q 451 1008 419 1028 q 503 957 483 989 q 522 886 522 925 q 503 815 522 847 q 451 763 483 782 q 381 744 419 744 m 381 810 q 435 832 413 810 q 457 886 457 854 q 435 941 457 919 q 381 963 414 963 q 326 940 347 963 q 304 886 304 918 q 326 832 304 854 q 381 810 349 810 z "},"ǻ":{"ha":750,"x_min":68,"x_max":683,"o":"m 550 0 l 542 138 l 542 429 q 498 551 542 508 q 368 594 454 594 q 264 572 313 594 q 169 494 215 549 l 85 567 q 215 665 142 633 q 376 696 289 696 q 585 626 511 696 q 658 429 658 557 l 658 0 l 550 0 m 324 -11 q 188 16 246 -11 q 99 92 131 43 q 68 204 68 140 q 91 301 68 261 q 150 363 114 340 q 233 395 186 386 q 331 404 279 404 l 553 404 l 553 315 l 347 315 q 283 310 317 315 q 225 286 250 304 q 197 251 207 272 q 186 203 186 231 q 226 117 186 149 q 335 85 267 85 q 438 111 392 85 q 513 184 485 138 q 542 289 542 231 l 590 239 q 546 108 582 165 q 453 20 510 51 q 324 -11 397 -11 m 381 744 q 308 764 340 744 q 258 816 276 783 q 239 886 239 849 q 258 957 239 925 q 309 1008 276 989 q 381 1028 342 1028 q 451 1008 419 1028 q 503 957 483 989 q 522 886 522 925 q 503 815 522 847 q 451 763 483 782 q 381 744 419 744 m 381 810 q 435 832 413 810 q 457 886 457 854 q 435 941 457 919 q 381 963 414 963 q 326 940 347 963 q 304 886 304 918 q 326 832 304 854 q 381 810 349 810 m 406 961 l 557 1157 l 683 1157 l 493 961 l 406 961 z "},"ã":{"ha":750,"x_min":68,"x_max":658,"o":"m 550 0 l 542 138 l 542 429 q 498 551 542 508 q 368 594 454 594 q 264 572 313 594 q 169 494 215 549 l 85 567 q 215 665 142 633 q 376 696 289 696 q 585 626 511 696 q 658 429 658 557 l 658 0 l 550 0 m 324 -11 q 188 16 246 -11 q 99 92 131 43 q 68 204 68 140 q 91 301 68 261 q 150 363 114 340 q 233 395 186 386 q 331 404 279 404 l 553 404 l 553 315 l 347 315 q 283 310 317 315 q 225 286 250 304 q 197 251 207 272 q 186 203 186 231 q 226 117 186 149 q 335 85 267 85 q 438 111 392 85 q 513 184 485 138 q 542 289 542 231 l 590 239 q 546 108 582 165 q 453 20 510 51 q 324 -11 397 -11 m 472 788 q 405 804 431 788 q 362 843 379 821 q 327 882 344 865 q 285 899 310 899 q 242 872 258 899 q 225 796 225 844 l 156 796 q 192 927 156 881 q 290 974 228 974 q 352 956 328 974 q 394 917 376 939 q 431 877 413 894 q 474 860 449 860 q 514 889 497 860 q 531 968 531 918 l 603 968 q 567 835 603 883 q 472 788 532 788 z "},"æ":{"ha":1204,"x_min":68,"x_max":1136,"o":"m 314 -11 q 132 49 196 -11 q 68 201 68 108 q 92 298 68 261 q 156 356 117 335 q 238 385 194 376 q 318 397 281 394 q 378 399 356 399 l 543 399 l 543 429 q 499 551 543 508 q 372 594 454 594 q 267 572 317 594 q 175 494 217 550 l 89 567 q 226 667 154 639 q 385 696 297 696 q 536 660 476 696 q 618 557 596 625 q 709 655 653 618 q 842 692 765 692 q 980 666 924 692 q 1070 596 1036 640 q 1120 495 1104 551 q 1136 378 1136 439 q 1135 340 1136 360 q 1132 307 1135 321 l 653 307 q 705 153 657 210 q 844 97 753 97 q 950 116 906 97 q 1033 178 994 135 l 1117 106 q 1033 34 1075 60 q 945 -1 992 8 q 842 -11 899 -11 q 680 37 746 -11 q 585 169 614 85 l 571 169 q 467 33 531 76 q 314 -11 404 -11 m 328 90 q 431 113 385 90 q 508 183 478 136 q 543 303 538 231 l 543 314 l 386 314 q 233 283 279 314 q 188 199 188 251 q 224 120 188 150 q 328 90 261 90 m 651 393 l 1028 393 q 1021 444 1029 411 q 992 512 1013 478 q 935 570 971 546 q 842 594 899 594 q 738 566 779 594 q 674 492 696 538 q 651 393 653 446 z "},"ǽ":{"ha":1204,"x_min":68,"x_max":1136,"o":"m 314 -11 q 132 49 196 -11 q 68 201 68 108 q 92 298 68 261 q 156 356 117 335 q 238 385 194 376 q 318 397 281 394 q 378 399 356 399 l 543 399 l 543 429 q 499 551 543 508 q 372 594 454 594 q 267 572 317 594 q 175 494 217 550 l 89 567 q 226 667 154 639 q 385 696 297 696 q 536 660 476 696 q 618 557 596 625 q 709 655 653 618 q 842 692 765 692 q 980 666 924 692 q 1070 596 1036 640 q 1120 495 1104 551 q 1136 378 1136 439 q 1135 340 1136 360 q 1132 307 1135 321 l 653 307 q 705 153 657 210 q 844 97 753 97 q 950 116 906 97 q 1033 178 994 135 l 1117 106 q 1033 34 1075 60 q 945 -1 992 8 q 842 -11 899 -11 q 680 37 746 -11 q 585 169 614 85 l 571 169 q 467 33 531 76 q 314 -11 404 -11 m 328 90 q 431 113 385 90 q 508 183 478 136 q 543 303 538 231 l 543 314 l 386 314 q 233 283 279 314 q 188 199 188 251 q 224 120 188 150 q 328 90 261 90 m 651 393 l 1028 393 q 1021 444 1029 411 q 992 512 1013 478 q 935 570 971 546 q 842 594 899 594 q 738 566 779 594 q 674 492 696 538 q 651 393 653 446 m 561 772 l 713 968 l 839 968 l 649 772 l 561 772 z "},"b":{"ha":815,"x_min":100,"x_max":747,"o":"m 436 -11 q 319 15 371 -11 q 231 86 267 40 q 178 192 196 132 l 217 204 l 217 0 l 100 0 l 100 968 l 217 968 l 217 481 l 183 500 q 233 599 199 554 q 319 669 268 643 q 436 696 371 696 q 593 653 522 696 q 706 531 664 610 q 747 343 747 451 q 708 163 747 243 q 599 35 669 82 q 436 -11 529 -11 m 417 97 q 527 128 479 97 q 602 215 575 160 q 629 343 629 271 q 602 471 629 415 q 527 558 575 526 q 417 589 479 589 q 307 558 354 589 q 233 471 260 526 q 207 343 207 415 q 233 215 207 271 q 307 128 260 160 q 417 97 354 97 z "},"c":{"ha":719,"x_min":68,"x_max":663,"o":"m 385 -11 q 249 17 308 -11 q 150 94 190 44 q 89 207 110 143 q 68 343 68 271 q 89 478 68 414 q 150 591 110 542 q 249 668 190 640 q 385 696 308 696 q 555 649 482 696 q 663 504 628 601 l 558 464 q 496 558 539 522 q 385 594 453 594 q 272 558 317 594 q 206 465 228 522 q 185 343 185 408 q 206 220 185 278 q 272 127 228 163 q 385 92 317 92 q 496 127 453 92 q 558 222 539 163 l 663 182 q 555 37 628 85 q 385 -11 482 -11 z "},"ć":{"ha":719,"x_min":68,"x_max":663,"o":"m 385 -11 q 249 17 308 -11 q 150 94 190 44 q 89 207 110 143 q 68 343 68 271 q 89 478 68 414 q 150 591 110 542 q 249 668 190 640 q 385 696 308 696 q 555 649 482 696 q 663 504 628 601 l 558 464 q 496 558 539 522 q 385 594 453 594 q 272 558 317 594 q 206 465 228 522 q 185 343 185 408 q 206 220 185 278 q 272 127 228 163 q 385 92 317 92 q 496 127 453 92 q 558 222 539 163 l 663 182 q 555 37 628 85 q 385 -11 482 -11 m 328 772 l 479 968 l 606 968 l 415 772 l 328 772 z "},"č":{"ha":719,"x_min":68,"x_max":663,"o":"m 385 -11 q 249 17 308 -11 q 150 94 190 44 q 89 207 110 143 q 68 343 68 271 q 89 478 68 414 q 150 591 110 542 q 249 668 190 640 q 385 696 308 696 q 555 649 482 696 q 663 504 628 601 l 558 464 q 496 558 539 522 q 385 594 453 594 q 272 558 317 594 q 206 465 228 522 q 185 343 185 408 q 206 220 185 278 q 272 127 228 163 q 385 92 317 92 q 496 127 453 92 q 558 222 539 163 l 663 182 q 555 37 628 85 q 385 -11 482 -11 m 372 751 l 163 968 l 256 968 l 372 849 l 489 968 l 582 968 l 372 751 z "},"ç":{"ha":719,"x_min":68,"x_max":663,"o":"m 385 -11 q 249 17 308 -11 q 150 94 190 44 q 89 207 110 143 q 68 343 68 271 q 89 478 68 414 q 150 591 110 542 q 249 668 190 640 q 385 696 308 696 q 555 649 482 696 q 663 504 628 601 l 558 464 q 496 558 539 522 q 385 594 453 594 q 272 558 317 594 q 206 465 228 522 q 185 343 185 408 q 206 220 185 278 q 272 127 228 163 q 385 92 317 92 q 496 127 453 92 q 558 222 539 163 l 663 182 q 555 37 628 85 q 385 -11 482 -11 m 372 -283 q 326 -278 350 -283 q 280 -262 301 -274 q 242 -236 258 -251 l 282 -189 q 325 -214 301 -206 q 371 -222 349 -222 q 419 -210 399 -222 q 440 -171 440 -197 q 426 -138 440 -150 q 387 -120 411 -126 q 335 -111 363 -114 q 282 -108 307 -108 l 369 11 l 443 11 l 379 -64 q 472 -96 432 -72 q 513 -168 513 -119 q 471 -253 513 -224 q 372 -283 429 -283 z "},"ĉ":{"ha":719,"x_min":68,"x_max":663,"o":"m 385 -11 q 249 17 308 -11 q 150 94 190 44 q 89 207 110 143 q 68 343 68 271 q 89 478 68 414 q 150 591 110 542 q 249 668 190 640 q 385 696 308 696 q 555 649 482 696 q 663 504 628 601 l 558 464 q 496 558 539 522 q 385 594 453 594 q 272 558 317 594 q 206 465 228 522 q 185 343 185 408 q 206 220 185 278 q 272 127 228 163 q 385 92 317 92 q 496 127 453 92 q 558 222 539 163 l 663 182 q 555 37 628 85 q 385 -11 482 -11 m 163 760 l 372 985 l 582 760 l 486 760 l 372 883 l 260 760 l 163 760 z "},"ċ":{"ha":719,"x_min":68,"x_max":663,"o":"m 385 -11 q 249 17 308 -11 q 150 94 190 44 q 89 207 110 143 q 68 343 68 271 q 89 478 68 414 q 150 591 110 542 q 249 668 190 640 q 385 696 308 696 q 555 649 482 696 q 663 504 628 601 l 558 464 q 496 558 539 522 q 385 594 453 594 q 272 558 317 594 q 206 465 228 522 q 185 343 185 408 q 206 220 185 278 q 272 127 228 163 q 385 92 317 92 q 496 127 453 92 q 558 222 539 163 l 663 182 q 555 37 628 85 q 385 -11 482 -11 m 303 808 l 303 968 l 442 968 l 442 808 l 303 808 z "},"d":{"ha":815,"x_min":68,"x_max":715,"o":"m 379 -11 q 216 35 286 -11 q 107 163 146 82 q 68 343 68 243 q 110 531 68 451 q 222 653 151 610 q 379 696 293 696 q 496 670 444 696 q 583 601 547 644 q 632 503 618 557 l 599 481 l 599 968 l 715 968 l 715 0 l 599 0 l 599 204 l 638 192 q 583 86 619 132 q 496 15 547 40 q 379 -11 444 -11 m 399 97 q 508 128 461 97 q 582 215 556 160 q 608 343 608 271 q 582 471 608 415 q 508 558 556 526 q 399 589 461 589 q 288 558 336 589 q 213 471 240 526 q 186 343 186 415 q 213 215 186 271 q 288 128 240 160 q 399 97 336 97 z "},"ð":{"ha":860,"x_min":89,"x_max":833,"o":"m 396 -11 q 232 28 301 -11 q 126 138 163 68 q 89 299 89 208 q 118 458 89 386 q 199 583 147 531 q 319 663 251 635 q 467 692 388 692 q 551 676 513 692 q 617 635 589 661 q 665 574 646 608 q 693 503 683 540 q 665 733 703 640 q 535 874 626 825 q 293 925 444 922 l 301 1006 q 542 963 446 999 q 693 863 638 926 q 772 712 749 800 q 796 511 796 624 q 770 303 796 399 q 694 138 744 208 q 569 28 644 67 q 396 -11 494 -11 m 403 90 q 538 126 479 90 q 631 224 596 163 q 674 360 667 285 q 667 437 676 396 q 635 514 658 478 q 574 572 613 550 q 478 594 535 594 q 325 553 388 594 q 231 444 263 511 q 200 300 200 378 q 226 188 200 235 q 299 115 253 140 q 403 90 344 90 m 371 751 l 358 801 l 821 936 l 833 886 l 371 751 z "},"ď":{"ha":1040,"x_min":68,"x_max":990,"o":"m 379 -11 q 216 35 286 -11 q 107 163 146 82 q 68 343 68 243 q 110 531 68 451 q 222 653 151 610 q 379 696 293 696 q 496 670 444 696 q 583 601 547 644 q 632 503 618 557 l 599 481 l 599 968 l 715 968 l 715 0 l 599 0 l 599 204 l 638 192 q 583 86 619 132 q 496 15 547 40 q 379 -11 444 -11 m 399 97 q 508 128 461 97 q 582 215 556 160 q 608 343 608 271 q 582 471 608 415 q 508 558 556 526 q 399 589 461 589 q 288 558 336 589 q 213 471 240 526 q 186 343 186 415 q 213 215 186 271 q 288 128 240 160 q 399 97 336 97 m 788 672 l 867 968 l 990 968 l 858 672 l 788 672 z "},"đ":{"ha":815,"x_min":68,"x_max":807,"o":"m 379 -11 q 216 35 286 -11 q 107 163 146 82 q 68 343 68 243 q 110 531 68 451 q 222 653 151 610 q 379 696 293 696 q 496 670 444 696 q 583 601 547 644 q 632 503 618 557 l 599 481 l 599 968 l 715 968 l 715 0 l 599 0 l 599 204 l 638 192 q 583 86 619 132 q 496 15 547 40 q 379 -11 444 -11 m 399 97 q 508 128 461 97 q 582 215 556 160 q 608 343 608 271 q 582 471 608 415 q 508 558 556 526 q 399 589 461 589 q 288 558 336 589 q 213 471 240 526 q 186 343 186 415 q 213 215 186 271 q 288 128 240 160 q 399 97 336 97 m 410 806 l 410 885 l 807 885 l 807 806 l 410 806 z "},"e":{"ha":750,"x_min":68,"x_max":682,"o":"m 389 -11 q 248 16 308 -11 q 148 92 188 43 q 88 203 108 140 q 68 338 68 267 q 88 473 68 408 q 145 588 107 538 q 242 667 183 638 q 378 696 300 696 q 515 669 457 696 q 609 594 572 642 q 664 489 646 547 q 682 368 682 431 q 681 342 682 363 q 678 307 681 322 l 185 307 q 243 151 189 207 q 390 96 297 96 q 494 115 450 96 q 578 178 539 135 l 660 106 q 581 40 622 65 q 492 1 539 14 q 389 -11 446 -11 m 565 367 q 569 389 568 378 q 569 411 569 400 q 558 478 569 444 q 523 538 546 511 q 465 581 500 565 q 381 597 429 597 q 278 569 321 597 q 211 496 235 542 q 183 394 188 450 l 604 394 l 565 367 z "},"é":{"ha":750,"x_min":68,"x_max":682,"o":"m 389 -11 q 248 16 308 -11 q 148 92 188 43 q 88 203 108 140 q 68 338 68 267 q 88 473 68 408 q 145 588 107 538 q 242 667 183 638 q 378 696 300 696 q 515 669 457 696 q 609 594 572 642 q 664 489 646 547 q 682 368 682 431 q 681 342 682 363 q 678 307 681 322 l 185 307 q 243 151 189 207 q 390 96 297 96 q 494 115 450 96 q 578 178 539 135 l 660 106 q 581 40 622 65 q 492 1 539 14 q 389 -11 446 -11 m 565 367 q 569 389 568 378 q 569 411 569 400 q 558 478 569 444 q 523 538 546 511 q 465 581 500 565 q 381 597 429 597 q 278 569 321 597 q 211 496 235 542 q 183 394 188 450 l 604 394 l 565 367 m 335 772 l 486 968 l 613 968 l 422 772 l 335 772 z "},"ĕ":{"ha":750,"x_min":68,"x_max":682,"o":"m 389 -11 q 248 16 308 -11 q 148 92 188 43 q 88 203 108 140 q 68 338 68 267 q 88 473 68 408 q 145 588 107 538 q 242 667 183 638 q 378 696 300 696 q 515 669 457 696 q 609 594 572 642 q 664 489 646 547 q 682 368 682 431 q 681 342 682 363 q 678 307 681 322 l 185 307 q 243 151 189 207 q 390 96 297 96 q 494 115 450 96 q 578 178 539 135 l 660 106 q 581 40 622 65 q 492 1 539 14 q 389 -11 446 -11 m 565 367 q 569 389 568 378 q 569 411 569 400 q 558 478 569 444 q 523 538 546 511 q 465 581 500 565 q 381 597 429 597 q 278 569 321 597 q 211 496 235 542 q 183 394 188 450 l 604 394 l 565 367 m 379 772 q 220 821 272 772 q 168 968 168 869 l 244 968 q 281 872 244 901 q 379 842 317 842 q 479 872 444 842 q 514 968 514 903 l 590 968 q 537 819 590 867 q 379 772 483 772 z "},"ě":{"ha":750,"x_min":68,"x_max":682,"o":"m 389 -11 q 248 16 308 -11 q 148 92 188 43 q 88 203 108 140 q 68 338 68 267 q 88 473 68 408 q 145 588 107 538 q 242 667 183 638 q 378 696 300 696 q 515 669 457 696 q 609 594 572 642 q 664 489 646 547 q 682 368 682 431 q 681 342 682 363 q 678 307 681 322 l 185 307 q 243 151 189 207 q 390 96 297 96 q 494 115 450 96 q 578 178 539 135 l 660 106 q 581 40 622 65 q 492 1 539 14 q 389 -11 446 -11 m 565 367 q 569 389 568 378 q 569 411 569 400 q 558 478 569 444 q 523 538 546 511 q 465 581 500 565 q 381 597 429 597 q 278 569 321 597 q 211 496 235 542 q 183 394 188 450 l 604 394 l 565 367 m 379 751 l 169 968 l 263 968 l 379 849 l 496 968 l 589 968 l 379 751 z "},"ê":{"ha":750,"x_min":68,"x_max":682,"o":"m 389 -11 q 248 16 308 -11 q 148 92 188 43 q 88 203 108 140 q 68 338 68 267 q 88 473 68 408 q 145 588 107 538 q 242 667 183 638 q 378 696 300 696 q 515 669 457 696 q 609 594 572 642 q 664 489 646 547 q 682 368 682 431 q 681 342 682 363 q 678 307 681 322 l 185 307 q 243 151 189 207 q 390 96 297 96 q 494 115 450 96 q 578 178 539 135 l 660 106 q 581 40 622 65 q 492 1 539 14 q 389 -11 446 -11 m 565 367 q 569 389 568 378 q 569 411 569 400 q 558 478 569 444 q 523 538 546 511 q 465 581 500 565 q 381 597 429 597 q 278 569 321 597 q 211 496 235 542 q 183 394 188 450 l 604 394 l 565 367 m 169 760 l 379 985 l 589 760 l 493 760 l 379 883 l 267 760 l 169 760 z "},"ế":{"ha":750,"x_min":68,"x_max":682,"o":"m 389 -11 q 248 16 308 -11 q 148 92 188 43 q 88 203 108 140 q 68 338 68 267 q 88 473 68 408 q 145 588 107 538 q 242 667 183 638 q 378 696 300 696 q 515 669 457 696 q 609 594 572 642 q 664 489 646 547 q 682 368 682 431 q 681 342 682 363 q 678 307 681 322 l 185 307 q 243 151 189 207 q 390 96 297 96 q 494 115 450 96 q 578 178 539 135 l 660 106 q 581 40 622 65 q 492 1 539 14 q 389 -11 446 -11 m 565 367 q 569 389 568 378 q 569 411 569 400 q 558 478 569 444 q 523 538 546 511 q 465 581 500 565 q 381 597 429 597 q 278 569 321 597 q 211 496 235 542 q 183 394 188 450 l 604 394 l 565 367 m 169 760 l 379 971 l 589 760 l 492 760 l 379 868 l 267 760 l 169 760 m 485 903 l 585 1089 l 682 1089 l 558 903 l 485 903 z "},"ệ":{"ha":750,"x_min":68,"x_max":682,"o":"m 389 -11 q 248 16 308 -11 q 148 92 188 43 q 88 203 108 140 q 68 338 68 267 q 88 473 68 408 q 145 588 107 538 q 242 667 183 638 q 378 696 300 696 q 515 669 457 696 q 609 594 572 642 q 664 489 646 547 q 682 368 682 431 q 681 342 682 363 q 678 307 681 322 l 185 307 q 243 151 189 207 q 390 96 297 96 q 494 115 450 96 q 578 178 539 135 l 660 106 q 581 40 622 65 q 492 1 539 14 q 389 -11 446 -11 m 565 367 q 569 389 568 378 q 569 411 569 400 q 558 478 569 444 q 523 538 546 511 q 465 581 500 565 q 381 597 429 597 q 278 569 321 597 q 211 496 235 542 q 183 394 188 450 l 604 394 l 565 367 m 319 -242 l 319 -96 l 458 -96 l 458 -242 l 319 -242 m 169 760 l 379 985 l 589 760 l 493 760 l 379 883 l 267 760 l 169 760 z "},"ề":{"ha":750,"x_min":68,"x_max":682,"o":"m 389 -11 q 248 16 308 -11 q 148 92 188 43 q 88 203 108 140 q 68 338 68 267 q 88 473 68 408 q 145 588 107 538 q 242 667 183 638 q 378 696 300 696 q 515 669 457 696 q 609 594 572 642 q 664 489 646 547 q 682 368 682 431 q 681 342 682 363 q 678 307 681 322 l 185 307 q 243 151 189 207 q 390 96 297 96 q 494 115 450 96 q 578 178 539 135 l 660 106 q 581 40 622 65 q 492 1 539 14 q 389 -11 446 -11 m 565 367 q 569 389 568 378 q 569 411 569 400 q 558 478 569 444 q 523 538 546 511 q 465 581 500 565 q 381 597 429 597 q 278 569 321 597 q 211 496 235 542 q 183 394 188 450 l 604 394 l 565 367 m 169 760 l 379 971 l 589 760 l 492 760 l 379 868 l 268 760 l 169 760 m 551 903 l 428 1089 l 525 1089 l 625 903 l 551 903 z "},"ể":{"ha":750,"x_min":68,"x_max":682,"o":"m 389 -11 q 248 16 308 -11 q 148 92 188 43 q 88 203 108 140 q 68 338 68 267 q 88 473 68 408 q 145 588 107 538 q 242 667 183 638 q 378 696 300 696 q 515 669 457 696 q 609 594 572 642 q 664 489 646 547 q 682 368 682 431 q 681 342 682 363 q 678 307 681 322 l 185 307 q 243 151 189 207 q 390 96 297 96 q 494 115 450 96 q 578 178 539 135 l 660 106 q 581 40 622 65 q 492 1 539 14 q 389 -11 446 -11 m 565 367 q 569 389 568 378 q 569 411 569 400 q 558 478 569 444 q 523 538 546 511 q 465 581 500 565 q 381 597 429 597 q 278 569 321 597 q 211 496 235 542 q 183 394 188 450 l 604 394 l 565 367 m 169 760 l 379 971 l 589 760 l 492 760 l 379 868 l 268 760 l 169 760 m 508 881 l 496 925 q 561 945 535 932 q 588 989 588 958 q 551 1039 588 1025 q 472 1053 515 1053 l 451 1053 l 451 1117 l 472 1117 q 608 1085 558 1117 q 657 994 657 1053 q 636 932 657 954 q 581 899 615 910 q 508 881 547 888 z "},"ễ":{"ha":750,"x_min":68,"x_max":682,"o":"m 389 -11 q 248 16 308 -11 q 148 92 188 43 q 88 203 108 140 q 68 338 68 267 q 88 473 68 408 q 145 588 107 538 q 242 667 183 638 q 378 696 300 696 q 515 669 457 696 q 609 594 572 642 q 664 489 646 547 q 682 368 682 431 q 681 342 682 363 q 678 307 681 322 l 185 307 q 243 151 189 207 q 390 96 297 96 q 494 115 450 96 q 578 178 539 135 l 660 106 q 581 40 622 65 q 492 1 539 14 q 389 -11 446 -11 m 565 367 q 569 389 568 378 q 569 411 569 400 q 558 478 569 444 q 523 538 546 511 q 465 581 500 565 q 381 597 429 597 q 278 569 321 597 q 211 496 235 542 q 183 394 188 450 l 604 394 l 565 367 m 169 760 l 379 971 l 589 760 l 493 760 l 379 868 l 267 760 l 169 760 m 471 983 q 415 992 436 983 q 377 1014 393 1001 q 344 1035 361 1026 q 300 1044 326 1044 q 256 1029 269 1044 q 238 993 242 1014 l 171 996 q 208 1078 176 1046 q 293 1110 239 1110 q 349 1101 326 1110 q 390 1081 372 1093 q 425 1061 408 1069 q 463 1053 442 1053 q 499 1063 486 1053 q 518 1099 513 1074 l 588 1096 q 553 1015 582 1046 q 471 983 524 983 z "},"ë":{"ha":750,"x_min":68,"x_max":682,"o":"m 389 -11 q 248 16 308 -11 q 148 92 188 43 q 88 203 108 140 q 68 338 68 267 q 88 473 68 408 q 145 588 107 538 q 242 667 183 638 q 378 696 300 696 q 515 669 457 696 q 609 594 572 642 q 664 489 646 547 q 682 368 682 431 q 681 342 682 363 q 678 307 681 322 l 185 307 q 243 151 189 207 q 390 96 297 96 q 494 115 450 96 q 578 178 539 135 l 660 106 q 581 40 622 65 q 492 1 539 14 q 389 -11 446 -11 m 565 367 q 569 389 568 378 q 569 411 569 400 q 558 478 569 444 q 523 538 546 511 q 465 581 500 565 q 381 597 429 597 q 278 569 321 597 q 211 496 235 542 q 183 394 188 450 l 604 394 l 565 367 m 439 808 l 439 968 l 578 968 l 578 808 l 439 808 m 182 808 l 182 968 l 321 968 l 321 808 l 182 808 z "},"ė":{"ha":750,"x_min":68,"x_max":682,"o":"m 389 -11 q 248 16 308 -11 q 148 92 188 43 q 88 203 108 140 q 68 338 68 267 q 88 473 68 408 q 145 588 107 538 q 242 667 183 638 q 378 696 300 696 q 515 669 457 696 q 609 594 572 642 q 664 489 646 547 q 682 368 682 431 q 681 342 682 363 q 678 307 681 322 l 185 307 q 243 151 189 207 q 390 96 297 96 q 494 115 450 96 q 578 178 539 135 l 660 106 q 581 40 622 65 q 492 1 539 14 q 389 -11 446 -11 m 565 367 q 569 389 568 378 q 569 411 569 400 q 558 478 569 444 q 523 538 546 511 q 465 581 500 565 q 381 597 429 597 q 278 569 321 597 q 211 496 235 542 q 183 394 188 450 l 604 394 l 565 367 m 310 808 l 310 968 l 449 968 l 449 808 l 310 808 z "},"ẹ":{"ha":750,"x_min":68,"x_max":682,"o":"m 389 -11 q 248 16 308 -11 q 148 92 188 43 q 88 203 108 140 q 68 338 68 267 q 88 473 68 408 q 145 588 107 538 q 242 667 183 638 q 378 696 300 696 q 515 669 457 696 q 609 594 572 642 q 664 489 646 547 q 682 368 682 431 q 681 342 682 363 q 678 307 681 322 l 185 307 q 243 151 189 207 q 390 96 297 96 q 494 115 450 96 q 578 178 539 135 l 660 106 q 581 40 622 65 q 492 1 539 14 q 389 -11 446 -11 m 565 367 q 569 389 568 378 q 569 411 569 400 q 558 478 569 444 q 523 538 546 511 q 465 581 500 565 q 381 597 429 597 q 278 569 321 597 q 211 496 235 542 q 183 394 188 450 l 604 394 l 565 367 m 319 -242 l 319 -96 l 458 -96 l 458 -242 l 319 -242 z "},"è":{"ha":750,"x_min":68,"x_max":682,"o":"m 389 -11 q 248 16 308 -11 q 148 92 188 43 q 88 203 108 140 q 68 338 68 267 q 88 473 68 408 q 145 588 107 538 q 242 667 183 638 q 378 696 300 696 q 515 669 457 696 q 609 594 572 642 q 664 489 646 547 q 682 368 682 431 q 681 342 682 363 q 678 307 681 322 l 185 307 q 243 151 189 207 q 390 96 297 96 q 494 115 450 96 q 578 178 539 135 l 660 106 q 581 40 622 65 q 492 1 539 14 q 389 -11 446 -11 m 565 367 q 569 389 568 378 q 569 411 569 400 q 558 478 569 444 q 523 538 546 511 q 465 581 500 565 q 381 597 429 597 q 278 569 321 597 q 211 496 235 542 q 183 394 188 450 l 604 394 l 565 367 m 335 772 l 154 968 l 279 968 l 424 772 l 335 772 z "},"ẻ":{"ha":750,"x_min":68,"x_max":682,"o":"m 389 -11 q 248 16 308 -11 q 148 92 188 43 q 88 203 108 140 q 68 338 68 267 q 88 473 68 408 q 145 588 107 538 q 242 667 183 638 q 378 696 300 696 q 515 669 457 696 q 609 594 572 642 q 664 489 646 547 q 682 368 682 431 q 681 342 682 363 q 678 307 681 322 l 185 307 q 243 151 189 207 q 390 96 297 96 q 494 115 450 96 q 578 178 539 135 l 660 106 q 581 40 622 65 q 492 1 539 14 q 389 -11 446 -11 m 565 367 q 569 389 568 378 q 569 411 569 400 q 558 478 569 444 q 523 538 546 511 q 465 581 500 565 q 381 597 429 597 q 278 569 321 597 q 211 496 235 542 q 183 394 188 450 l 604 394 l 565 367 m 351 726 l 343 771 q 413 789 379 778 q 446 835 446 800 q 407 887 446 872 q 319 901 368 901 l 299 901 l 299 969 l 319 969 q 472 936 413 969 q 531 843 531 903 q 502 776 531 800 q 433 742 474 753 q 351 726 392 732 z "},"ē":{"ha":750,"x_min":68,"x_max":682,"o":"m 389 -11 q 248 16 308 -11 q 148 92 188 43 q 88 203 108 140 q 68 338 68 267 q 88 473 68 408 q 145 588 107 538 q 242 667 183 638 q 378 696 300 696 q 515 669 457 696 q 609 594 572 642 q 664 489 646 547 q 682 368 682 431 q 681 342 682 363 q 678 307 681 322 l 185 307 q 243 151 189 207 q 390 96 297 96 q 494 115 450 96 q 578 178 539 135 l 660 106 q 581 40 622 65 q 492 1 539 14 q 389 -11 446 -11 m 565 367 q 569 389 568 378 q 569 411 569 400 q 558 478 569 444 q 523 538 546 511 q 465 581 500 565 q 381 597 429 597 q 278 569 321 597 q 211 496 235 542 q 183 394 188 450 l 604 394 l 565 367 m 190 818 l 190 889 l 567 889 l 567 818 l 190 818 z "},"ę":{"ha":750,"x_min":68,"x_max":682,"o":"m 389 -11 q 248 16 308 -11 q 148 92 188 43 q 88 203 108 140 q 68 338 68 267 q 88 473 68 408 q 145 588 107 538 q 242 667 183 638 q 378 696 300 696 q 515 669 457 696 q 609 594 572 642 q 664 489 646 547 q 682 368 682 431 q 681 342 682 363 q 678 307 681 322 l 185 307 q 243 151 189 207 q 390 96 297 96 q 494 115 450 96 q 578 178 539 135 l 660 106 q 581 40 622 65 q 492 1 539 14 q 389 -11 446 -11 m 565 367 q 569 389 568 378 q 569 411 569 400 q 558 478 569 444 q 523 538 546 511 q 465 581 500 565 q 381 597 429 597 q 278 569 321 597 q 211 496 235 542 q 183 394 188 450 l 604 394 l 565 367 m 394 -283 q 306 -253 343 -283 q 268 -168 268 -224 q 287 -95 268 -128 q 333 -37 306 -62 q 389 3 361 -12 l 482 0 q 437 -27 461 -11 q 390 -63 413 -43 q 353 -108 367 -83 q 339 -158 339 -132 q 355 -200 339 -186 q 394 -214 371 -214 q 443 -202 417 -214 q 494 -168 469 -190 l 531 -224 q 465 -269 500 -254 q 394 -283 429 -283 z "},"ẽ":{"ha":750,"x_min":68,"x_max":682,"o":"m 389 -11 q 248 16 308 -11 q 148 92 188 43 q 88 203 108 140 q 68 338 68 267 q 88 473 68 408 q 145 588 107 538 q 242 667 183 638 q 378 696 300 696 q 515 669 457 696 q 609 594 572 642 q 664 489 646 547 q 682 368 682 431 q 681 342 682 363 q 678 307 681 322 l 185 307 q 243 151 189 207 q 390 96 297 96 q 494 115 450 96 q 578 178 539 135 l 660 106 q 581 40 622 65 q 492 1 539 14 q 389 -11 446 -11 m 565 367 q 569 389 568 378 q 569 411 569 400 q 558 478 569 444 q 523 538 546 511 q 465 581 500 565 q 381 597 429 597 q 278 569 321 597 q 211 496 235 542 q 183 394 188 450 l 604 394 l 565 367 m 471 788 q 403 804 429 788 q 360 843 378 821 q 326 882 343 865 q 283 899 308 899 q 240 872 257 899 q 224 796 224 844 l 154 796 q 190 927 154 881 q 289 974 226 974 q 351 956 326 974 q 393 917 375 939 q 429 877 411 894 q 472 860 447 860 q 513 889 496 860 q 529 968 529 918 l 601 968 q 566 835 601 883 q 471 788 531 788 z "},"ə":{"ha":750,"x_min":68,"x_max":682,"o":"m 361 696 q 502 669 442 696 q 602 593 563 642 q 662 481 642 544 q 682 347 682 418 q 663 212 682 276 q 605 97 643 147 q 508 18 567 47 q 372 -11 450 -11 q 235 16 293 -11 q 141 90 178 43 q 86 196 104 138 q 68 317 68 254 q 69 344 68 324 q 72 378 71 364 l 565 378 q 508 533 561 478 q 360 589 454 589 q 256 569 300 589 q 172 507 213 550 l 90 579 q 170 645 129 619 q 258 683 211 671 q 361 696 306 696 m 185 318 q 182 297 183 308 q 181 274 181 285 q 192 207 181 240 q 227 147 204 174 q 286 103 250 119 q 369 88 322 88 q 473 115 431 88 q 539 189 515 143 q 567 290 563 235 l 146 290 l 185 318 z "},"f":{"ha":465,"x_min":14,"x_max":471,"o":"m 156 0 l 156 593 l 14 593 l 14 685 l 157 685 l 157 774 q 182 897 157 851 q 251 960 207 942 q 349 979 294 979 q 415 972 386 979 q 471 951 444 965 l 432 863 q 399 876 417 871 q 361 881 381 881 q 295 853 317 881 q 274 774 274 825 l 274 685 l 433 685 l 433 593 l 274 593 l 274 0 l 156 0 z "},"g":{"ha":714,"x_min":57,"x_max":694,"o":"m 376 -296 q 143 -242 229 -296 q 57 -92 57 -187 q 58 -74 57 -85 q 61 -53 58 -62 l 232 71 l 272 43 l 175 -78 q 174 -87 174 -83 q 174 -96 174 -92 q 232 -178 174 -151 q 376 -206 290 -206 q 503 -184 453 -206 q 553 -114 553 -162 q 537 -69 553 -86 q 491 -42 521 -51 q 421 -25 461 -32 q 331 -11 381 -18 q 209 17 268 -1 q 112 69 150 35 q 74 161 74 104 q 108 250 74 210 q 197 317 142 290 l 272 268 q 206 234 225 257 q 186 179 186 211 q 205 136 186 153 q 259 110 224 119 q 344 94 294 101 q 469 74 411 85 q 573 42 528 63 q 643 -12 618 22 q 668 -100 668 -46 q 590 -245 668 -194 q 376 -296 513 -296 m 360 214 q 219 244 281 214 q 124 329 158 275 q 90 453 90 383 q 126 580 90 525 q 222 665 161 635 q 356 696 282 696 q 488 665 428 696 q 583 579 547 635 q 619 449 619 524 q 586 325 619 378 q 494 243 553 272 q 360 214 436 214 m 357 310 q 465 352 426 310 q 503 456 503 394 q 463 561 503 521 q 357 601 422 601 q 249 560 290 601 q 207 457 207 519 q 247 352 207 394 q 357 310 288 310 m 575 557 l 490 614 l 635 733 l 694 660 l 575 557 z "},"ğ":{"ha":714,"x_min":57,"x_max":694,"o":"m 376 -296 q 143 -242 229 -296 q 57 -92 57 -187 q 58 -74 57 -85 q 61 -53 58 -62 l 232 71 l 272 43 l 175 -78 q 174 -87 174 -83 q 174 -96 174 -92 q 232 -178 174 -151 q 376 -206 290 -206 q 503 -184 453 -206 q 553 -114 553 -162 q 537 -69 553 -86 q 491 -42 521 -51 q 421 -25 461 -32 q 331 -11 381 -18 q 209 17 268 -1 q 112 69 150 35 q 74 161 74 104 q 108 250 74 210 q 197 317 142 290 l 272 268 q 206 234 225 257 q 186 179 186 211 q 205 136 186 153 q 259 110 224 119 q 344 94 294 101 q 469 74 411 85 q 573 42 528 63 q 643 -12 618 22 q 668 -100 668 -46 q 590 -245 668 -194 q 376 -296 513 -296 m 360 214 q 219 244 281 214 q 124 329 158 275 q 90 453 90 383 q 126 580 90 525 q 222 665 161 635 q 356 696 282 696 q 488 665 428 696 q 583 579 547 635 q 619 449 619 524 q 586 325 619 378 q 494 243 553 272 q 360 214 436 214 m 357 310 q 465 352 426 310 q 503 456 503 394 q 463 561 503 521 q 357 601 422 601 q 249 560 290 601 q 207 457 207 519 q 247 352 207 394 q 357 310 288 310 m 575 557 l 490 614 l 635 733 l 694 660 l 575 557 m 361 772 q 202 821 254 772 q 150 968 150 869 l 226 968 q 263 872 226 901 q 361 842 299 842 q 461 872 426 842 q 496 968 496 903 l 572 968 q 519 819 572 867 q 361 772 465 772 z "},"ǧ":{"ha":714,"x_min":57,"x_max":694,"o":"m 376 -296 q 143 -242 229 -296 q 57 -92 57 -187 q 58 -74 57 -85 q 61 -53 58 -62 l 232 71 l 272 43 l 175 -78 q 174 -87 174 -83 q 174 -96 174 -92 q 232 -178 174 -151 q 376 -206 290 -206 q 503 -184 453 -206 q 553 -114 553 -162 q 537 -69 553 -86 q 491 -42 521 -51 q 421 -25 461 -32 q 331 -11 381 -18 q 209 17 268 -1 q 112 69 150 35 q 74 161 74 104 q 108 250 74 210 q 197 317 142 290 l 272 268 q 206 234 225 257 q 186 179 186 211 q 205 136 186 153 q 259 110 224 119 q 344 94 294 101 q 469 74 411 85 q 573 42 528 63 q 643 -12 618 22 q 668 -100 668 -46 q 590 -245 668 -194 q 376 -296 513 -296 m 360 214 q 219 244 281 214 q 124 329 158 275 q 90 453 90 383 q 126 580 90 525 q 222 665 161 635 q 356 696 282 696 q 488 665 428 696 q 583 579 547 635 q 619 449 619 524 q 586 325 619 378 q 494 243 553 272 q 360 214 436 214 m 357 310 q 465 352 426 310 q 503 456 503 394 q 463 561 503 521 q 357 601 422 601 q 249 560 290 601 q 207 457 207 519 q 247 352 207 394 q 357 310 288 310 m 575 557 l 490 614 l 635 733 l 694 660 l 575 557 m 361 751 l 151 968 l 244 968 l 361 849 l 478 968 l 571 968 l 361 751 z "},"ĝ":{"ha":714,"x_min":57,"x_max":694,"o":"m 376 -296 q 143 -242 229 -296 q 57 -92 57 -187 q 58 -74 57 -85 q 61 -53 58 -62 l 232 71 l 272 43 l 175 -78 q 174 -87 174 -83 q 174 -96 174 -92 q 232 -178 174 -151 q 376 -206 290 -206 q 503 -184 453 -206 q 553 -114 553 -162 q 537 -69 553 -86 q 491 -42 521 -51 q 421 -25 461 -32 q 331 -11 381 -18 q 209 17 268 -1 q 112 69 150 35 q 74 161 74 104 q 108 250 74 210 q 197 317 142 290 l 272 268 q 206 234 225 257 q 186 179 186 211 q 205 136 186 153 q 259 110 224 119 q 344 94 294 101 q 469 74 411 85 q 573 42 528 63 q 643 -12 618 22 q 668 -100 668 -46 q 590 -245 668 -194 q 376 -296 513 -296 m 360 214 q 219 244 281 214 q 124 329 158 275 q 90 453 90 383 q 126 580 90 525 q 222 665 161 635 q 356 696 282 696 q 488 665 428 696 q 583 579 547 635 q 619 449 619 524 q 586 325 619 378 q 494 243 553 272 q 360 214 436 214 m 357 310 q 465 352 426 310 q 503 456 503 394 q 463 561 503 521 q 357 601 422 601 q 249 560 290 601 q 207 457 207 519 q 247 352 207 394 q 357 310 288 310 m 575 557 l 490 614 l 635 733 l 694 660 l 575 557 m 151 760 l 361 985 l 571 760 l 475 760 l 361 883 l 249 760 l 151 760 z "},"ģ":{"ha":714,"x_min":57,"x_max":694,"o":"m 376 -296 q 143 -242 229 -296 q 57 -92 57 -187 q 58 -74 57 -85 q 61 -53 58 -62 l 232 71 l 272 43 l 175 -78 q 174 -87 174 -83 q 174 -96 174 -92 q 232 -178 174 -151 q 376 -206 290 -206 q 503 -184 453 -206 q 553 -114 553 -162 q 537 -69 553 -86 q 491 -42 521 -51 q 421 -25 461 -32 q 331 -11 381 -18 q 209 17 268 -1 q 112 69 150 35 q 74 161 74 104 q 108 250 74 210 q 197 317 142 290 l 272 268 q 206 234 225 257 q 186 179 186 211 q 205 136 186 153 q 259 110 224 119 q 344 94 294 101 q 469 74 411 85 q 573 42 528 63 q 643 -12 618 22 q 668 -100 668 -46 q 590 -245 668 -194 q 376 -296 513 -296 m 360 214 q 219 244 281 214 q 124 329 158 275 q 90 453 90 383 q 126 580 90 525 q 222 665 161 635 q 356 696 282 696 q 488 665 428 696 q 583 579 547 635 q 619 449 619 524 q 586 325 619 378 q 494 243 553 272 q 360 214 436 214 m 357 310 q 465 352 426 310 q 503 456 503 394 q 463 561 503 521 q 357 601 422 601 q 249 560 290 601 q 207 457 207 519 q 247 352 207 394 q 357 310 288 310 m 575 557 l 490 614 l 635 733 l 694 660 l 575 557 m 243 769 l 407 978 l 481 978 l 367 769 l 243 769 z "},"ġ":{"ha":714,"x_min":57,"x_max":694,"o":"m 376 -296 q 143 -242 229 -296 q 57 -92 57 -187 q 58 -74 57 -85 q 61 -53 58 -62 l 232 71 l 272 43 l 175 -78 q 174 -87 174 -83 q 174 -96 174 -92 q 232 -178 174 -151 q 376 -206 290 -206 q 503 -184 453 -206 q 553 -114 553 -162 q 537 -69 553 -86 q 491 -42 521 -51 q 421 -25 461 -32 q 331 -11 381 -18 q 209 17 268 -1 q 112 69 150 35 q 74 161 74 104 q 108 250 74 210 q 197 317 142 290 l 272 268 q 206 234 225 257 q 186 179 186 211 q 205 136 186 153 q 259 110 224 119 q 344 94 294 101 q 469 74 411 85 q 573 42 528 63 q 643 -12 618 22 q 668 -100 668 -46 q 590 -245 668 -194 q 376 -296 513 -296 m 360 214 q 219 244 281 214 q 124 329 158 275 q 90 453 90 383 q 126 580 90 525 q 222 665 161 635 q 356 696 282 696 q 488 665 428 696 q 583 579 547 635 q 619 449 619 524 q 586 325 619 378 q 494 243 553 272 q 360 214 436 214 m 357 310 q 465 352 426 310 q 503 456 503 394 q 463 561 503 521 q 357 601 422 601 q 249 560 290 601 q 207 457 207 519 q 247 352 207 394 q 357 310 288 310 m 575 557 l 490 614 l 635 733 l 694 660 l 575 557 m 292 808 l 292 968 l 431 968 l 431 808 l 292 808 z "},"ḡ":{"ha":714,"x_min":57,"x_max":694,"o":"m 376 -296 q 143 -242 229 -296 q 57 -92 57 -187 q 58 -74 57 -85 q 61 -53 58 -62 l 232 71 l 272 43 l 175 -78 q 174 -87 174 -83 q 174 -96 174 -92 q 232 -178 174 -151 q 376 -206 290 -206 q 503 -184 453 -206 q 553 -114 553 -162 q 537 -69 553 -86 q 491 -42 521 -51 q 421 -25 461 -32 q 331 -11 381 -18 q 209 17 268 -1 q 112 69 150 35 q 74 161 74 104 q 108 250 74 210 q 197 317 142 290 l 272 268 q 206 234 225 257 q 186 179 186 211 q 205 136 186 153 q 259 110 224 119 q 344 94 294 101 q 469 74 411 85 q 573 42 528 63 q 643 -12 618 22 q 668 -100 668 -46 q 590 -245 668 -194 q 376 -296 513 -296 m 360 214 q 219 244 281 214 q 124 329 158 275 q 90 453 90 383 q 126 580 90 525 q 222 665 161 635 q 356 696 282 696 q 488 665 428 696 q 583 579 547 635 q 619 449 619 524 q 586 325 619 378 q 494 243 553 272 q 360 214 436 214 m 357 310 q 465 352 426 310 q 503 456 503 394 q 463 561 503 521 q 357 601 422 601 q 249 560 290 601 q 207 457 207 519 q 247 352 207 394 q 357 310 288 310 m 575 557 l 490 614 l 635 733 l 694 660 l 575 557 m 172 818 l 172 889 l 549 889 l 549 818 l 172 818 z "},"h":{"ha":760,"x_min":100,"x_max":668,"o":"m 100 0 l 100 968 l 218 968 l 218 539 l 189 528 q 243 618 208 581 q 325 676 278 656 q 428 696 372 696 q 604 630 540 696 q 668 435 668 564 l 668 0 l 550 0 l 550 392 q 512 545 550 496 q 396 594 474 594 q 265 534 311 594 q 218 342 218 474 l 218 0 l 100 0 z "},"ħ":{"ha":760,"x_min":26,"x_max":668,"o":"m 100 0 l 100 968 l 218 968 l 218 539 l 189 528 q 243 618 208 581 q 325 676 278 656 q 428 696 372 696 q 604 630 540 696 q 668 435 668 564 l 668 0 l 550 0 l 550 392 q 512 545 550 496 q 396 594 474 594 q 265 534 311 594 q 218 342 218 474 l 218 0 l 100 0 m 26 792 l 26 871 l 424 871 l 424 792 l 26 792 z "},"ĥ":{"ha":760,"x_min":-50,"x_max":668,"o":"m 100 0 l 100 968 l 218 968 l 218 539 l 189 528 q 243 618 208 581 q 325 676 278 656 q 428 696 372 696 q 604 630 540 696 q 668 435 668 564 l 668 0 l 550 0 l 550 392 q 512 545 550 496 q 396 594 474 594 q 265 534 311 594 q 218 342 218 474 l 218 0 l 100 0 m -50 1043 l 160 1268 l 369 1043 l 272 1043 l 160 1167 l 49 1043 l -50 1043 z "},"i":{"ha":314,"x_min":88,"x_max":226,"o":"m 99 0 l 99 685 l 215 685 l 215 0 l 99 0 m 88 808 l 88 968 l 226 968 l 226 808 l 88 808 z "},"ı":{"ha":314,"x_min":99,"x_max":215,"o":"m 99 0 l 99 685 l 215 685 l 215 0 l 99 0 z "},"í":{"ha":314,"x_min":99,"x_max":390,"o":"m 99 0 l 99 685 l 215 685 l 215 0 l 99 0 m 113 772 l 264 968 l 390 968 l 200 772 l 113 772 z "},"ĭ":{"ha":314,"x_min":-54,"x_max":368,"o":"m 99 0 l 99 685 l 215 685 l 215 0 l 99 0 m 157 772 q -2 821 50 772 q -54 968 -54 869 l 22 968 q 58 872 22 901 q 157 842 94 842 q 257 872 222 842 q 292 968 292 903 l 368 968 q 315 819 368 867 q 157 772 261 772 z "},"ǐ":{"ha":314,"x_min":-53,"x_max":367,"o":"m 99 0 l 99 685 l 215 685 l 215 0 l 99 0 m 157 751 l -53 968 l 40 968 l 157 849 l 274 968 l 367 968 l 157 751 z "},"î":{"ha":314,"x_min":-53,"x_max":367,"o":"m 99 0 l 99 685 l 215 685 l 215 0 l 99 0 m -53 760 l 157 985 l 367 760 l 271 760 l 157 883 l 44 760 l -53 760 z "},"ï":{"ha":314,"x_min":-40,"x_max":356,"o":"m 99 0 l 99 685 l 215 685 l 215 0 l 99 0 m 217 808 l 217 968 l 356 968 l 356 808 l 217 808 m -40 808 l -40 968 l 99 968 l 99 808 l -40 808 z "},"ị":{"ha":314,"x_min":88,"x_max":226,"o":"m 99 0 l 99 685 l 215 685 l 215 0 l 99 0 m 88 808 l 88 968 l 226 968 l 226 808 l 88 808 m 88 -242 l 88 -96 l 226 -96 l 226 -242 l 88 -242 z "},"ì":{"ha":314,"x_min":-68,"x_max":215,"o":"m 99 0 l 99 685 l 215 685 l 215 0 l 99 0 m 113 772 l -68 968 l 57 968 l 201 772 l 113 772 z "},"ỉ":{"ha":314,"x_min":76,"x_max":308,"o":"m 99 0 l 99 685 l 215 685 l 215 0 l 99 0 m 129 726 l 121 771 q 190 789 157 778 q 224 835 224 800 q 185 887 224 872 q 97 901 146 901 l 76 901 l 76 969 l 97 969 q 249 936 190 969 q 308 843 308 903 q 280 776 308 800 q 210 742 251 753 q 129 726 169 732 z "},"ĳ":{"ha":628,"x_min":88,"x_max":542,"o":"m 99 0 l 99 685 l 215 685 l 215 0 l 99 0 m 88 808 l 88 968 l 226 968 l 226 808 l 88 808 m 386 -294 q 335 -290 363 -294 q 279 -276 307 -285 l 279 -174 q 318 -183 301 -181 q 344 -186 335 -186 q 395 -167 378 -186 q 413 -101 413 -149 l 413 685 l 529 685 l 529 -132 q 490 -256 529 -217 q 386 -294 451 -294 m 403 808 l 403 968 l 542 968 l 542 808 l 403 808 z "},"ī":{"ha":314,"x_min":-32,"x_max":344,"o":"m 99 0 l 99 685 l 215 685 l 215 0 l 99 0 m -32 818 l -32 889 l 344 889 l 344 818 l -32 818 z "},"į":{"ha":314,"x_min":1,"x_max":264,"o":"m 99 0 l 99 685 l 215 685 l 215 0 l 99 0 m 88 808 l 88 968 l 226 968 l 226 808 l 88 808 m 128 -283 q 39 -253 76 -283 q 1 -168 1 -224 q 20 -95 1 -128 q 67 -37 39 -62 q 122 3 94 -12 l 215 0 q 170 -27 194 -11 q 123 -63 146 -43 q 86 -108 100 -83 q 72 -158 72 -132 q 88 -200 72 -186 q 128 -214 104 -214 q 176 -202 150 -214 q 228 -168 203 -190 l 264 -224 q 198 -269 233 -254 q 128 -283 163 -283 z "},"ĩ":{"ha":314,"x_min":-68,"x_max":379,"o":"m 99 0 l 99 685 l 215 685 l 215 0 l 99 0 m 249 788 q 181 804 207 788 q 138 843 156 821 q 103 882 121 865 q 61 899 86 899 q 18 872 35 899 q 1 796 1 844 l -68 796 q -32 927 -68 881 q 67 974 4 974 q 128 956 104 974 q 171 917 153 939 q 207 877 189 894 q 250 860 225 860 q 290 889 274 860 q 307 968 307 918 l 379 968 q 344 835 379 883 q 249 788 308 788 z "},"j":{"ha":314,"x_min":-35,"x_max":228,"o":"m 72 -294 q 21 -290 49 -294 q -35 -276 -7 -285 l -35 -174 q 4 -183 -12 -181 q 31 -186 21 -186 q 81 -167 64 -186 q 99 -101 99 -149 l 99 685 l 215 685 l 215 -132 q 176 -256 215 -217 q 72 -294 138 -294 m 89 808 l 89 968 l 228 968 l 228 808 l 89 808 z "},"ȷ":{"ha":314,"x_min":-35,"x_max":215,"o":"m 72 -294 q 21 -290 49 -294 q -35 -276 -7 -285 l -35 -174 q 4 -183 -12 -181 q 31 -186 21 -186 q 81 -167 64 -186 q 99 -101 99 -149 l 99 685 l 215 685 l 215 -132 q 176 -256 215 -217 q 72 -294 138 -294 z "},"ĵ":{"ha":314,"x_min":-51,"x_max":368,"o":"m 72 -294 q 21 -290 49 -294 q -35 -276 -7 -285 l -35 -174 q 4 -183 -12 -181 q 31 -186 21 -186 q 81 -167 64 -186 q 99 -101 99 -149 l 99 685 l 215 685 l 215 -132 q 176 -256 215 -217 q 72 -294 138 -294 m -51 760 l 158 985 l 368 760 l 272 760 l 158 883 l 46 760 l -51 760 z "},"k":{"ha":739,"x_min":100,"x_max":707,"o":"m 567 0 l 339 353 l 204 208 l 204 360 l 519 685 l 671 685 l 425 432 l 707 0 l 567 0 m 100 0 l 100 968 l 218 968 l 218 0 l 100 0 z "},"ķ":{"ha":739,"x_min":100,"x_max":707,"o":"m 567 0 l 339 353 l 204 208 l 204 360 l 519 685 l 671 685 l 425 432 l 707 0 l 567 0 m 100 0 l 100 968 l 218 968 l 218 0 l 100 0 m 201 -283 l 314 -76 l 439 -76 l 274 -283 l 201 -283 z "},"ĸ":{"ha":760,"x_min":100,"x_max":706,"o":"m 565 0 l 338 353 l 203 208 l 203 360 l 518 685 l 669 685 l 424 432 l 706 0 l 565 0 m 100 0 l 100 685 l 218 685 l 218 0 l 100 0 z "},"l":{"ha":368,"x_min":97,"x_max":335,"o":"m 238 -11 q 136 28 175 -11 q 97 151 97 67 l 97 968 l 214 968 l 214 174 q 231 115 214 133 q 275 97 247 97 q 303 100 288 97 q 335 108 318 103 l 335 8 q 285 -6 311 -1 q 238 -11 258 -11 z "},"ĺ":{"ha":349,"x_min":97,"x_max":389,"o":"m 238 -11 q 136 28 175 -11 q 97 151 97 67 l 97 968 l 214 968 l 214 174 q 231 115 214 133 q 275 97 247 97 q 303 100 288 97 q 335 108 318 103 l 335 8 q 285 -6 311 -1 q 238 -11 258 -11 m 111 1056 l 263 1251 l 389 1251 l 199 1056 l 111 1056 z "},"ľ":{"ha":368,"x_min":97,"x_max":494,"o":"m 238 -11 q 136 28 175 -11 q 97 151 97 67 l 97 968 l 214 968 l 214 174 q 231 115 214 133 q 275 97 247 97 q 303 100 288 97 q 335 108 318 103 l 335 8 q 285 -6 311 -1 q 238 -11 258 -11 m 292 672 l 371 968 l 494 968 l 363 672 l 292 672 z "},"ļ":{"ha":349,"x_min":18,"x_max":335,"o":"m 238 -11 q 136 28 175 -11 q 97 151 97 67 l 97 968 l 214 968 l 214 174 q 231 115 214 133 q 275 97 247 97 q 303 100 288 97 q 335 108 318 103 l 335 8 q 285 -6 311 -1 q 238 -11 258 -11 m 18 -283 l 131 -76 l 256 -76 l 90 -283 l 18 -283 z "},"ŀ":{"ha":589,"x_min":97,"x_max":482,"o":"m 238 -11 q 136 28 175 -11 q 97 151 97 67 l 97 968 l 214 968 l 214 174 q 231 115 214 133 q 275 97 247 97 q 303 100 288 97 q 335 108 318 103 l 335 8 q 285 -6 311 -1 q 238 -11 258 -11 m 343 404 l 343 565 l 482 565 l 482 404 l 343 404 z "},"ł":{"ha":349,"x_min":26,"x_max":335,"o":"m 238 -11 q 136 28 175 -11 q 97 151 97 67 l 97 968 l 214 968 l 214 174 q 231 115 214 133 q 275 97 247 97 q 303 100 288 97 q 335 108 318 103 l 335 8 q 285 -6 311 -1 q 238 -11 258 -11 m 26 342 l 26 463 l 335 707 l 335 588 l 26 342 z "},"m":{"ha":1150,"x_min":100,"x_max":1058,"o":"m 100 0 l 100 685 l 218 685 l 218 508 l 194 508 q 228 592 207 557 q 279 651 250 628 q 342 685 308 674 q 414 696 376 696 q 524 672 476 696 q 601 601 571 649 q 643 479 632 553 l 576 475 q 629 595 597 546 q 709 670 661 644 q 824 696 757 696 q 960 658 908 696 q 1035 556 1011 619 q 1058 417 1058 493 l 1058 0 l 942 0 l 942 389 q 927 499 942 453 q 881 569 913 544 q 797 594 850 594 q 712 569 747 594 q 658 494 676 544 q 639 368 639 443 l 639 0 l 521 0 l 521 399 q 485 546 521 497 q 379 594 449 594 q 293 569 329 594 q 238 493 257 543 q 218 368 218 443 l 218 0 l 100 0 z "},"n":{"ha":760,"x_min":100,"x_max":668,"o":"m 100 0 l 100 685 l 218 685 l 218 539 l 190 529 q 243 619 210 582 q 324 676 276 656 q 428 696 371 696 q 604 630 540 696 q 668 435 668 564 l 668 0 l 550 0 l 550 392 q 512 545 550 496 q 396 594 474 594 q 299 568 339 594 q 239 485 260 542 q 218 342 218 429 l 218 0 l 100 0 z "},"ń":{"ha":760,"x_min":100,"x_max":668,"o":"m 100 0 l 100 685 l 218 685 l 218 539 l 190 529 q 243 619 210 582 q 324 676 276 656 q 428 696 371 696 q 604 630 540 696 q 668 435 668 564 l 668 0 l 550 0 l 550 392 q 512 545 550 496 q 396 594 474 594 q 299 568 339 594 q 239 485 260 542 q 218 342 218 429 l 218 0 l 100 0 m 328 772 l 479 968 l 606 968 l 415 772 l 328 772 z "},"ŉ":{"ha":974,"x_min":11,"x_max":847,"o":"m 11 576 l 136 968 l 272 968 l 90 576 l 11 576 m 279 0 l 279 685 l 397 685 l 397 539 l 369 529 q 422 619 389 582 q 503 676 456 656 q 607 696 550 696 q 783 630 719 696 q 847 435 847 564 l 847 0 l 729 0 l 729 392 q 691 545 729 496 q 575 594 653 594 q 478 568 518 594 q 418 485 439 542 q 397 342 397 429 l 397 0 l 279 0 z "},"ň":{"ha":760,"x_min":100,"x_max":668,"o":"m 100 0 l 100 685 l 218 685 l 218 539 l 190 529 q 243 619 210 582 q 324 676 276 656 q 428 696 371 696 q 604 630 540 696 q 668 435 668 564 l 668 0 l 550 0 l 550 392 q 512 545 550 496 q 396 594 474 594 q 299 568 339 594 q 239 485 260 542 q 218 342 218 429 l 218 0 l 100 0 m 372 751 l 163 968 l 256 968 l 372 849 l 489 968 l 582 968 l 372 751 z "},"ņ":{"ha":760,"x_min":100,"x_max":668,"o":"m 100 0 l 100 685 l 218 685 l 218 539 l 190 529 q 243 619 210 582 q 324 676 276 656 q 428 696 371 696 q 604 630 540 696 q 668 435 668 564 l 668 0 l 550 0 l 550 392 q 512 545 550 496 q 396 594 474 594 q 299 568 339 594 q 239 485 260 542 q 218 342 218 429 l 218 0 l 100 0 m 201 -283 l 314 -76 l 439 -76 l 274 -283 l 201 -283 z "},"ṅ":{"ha":760,"x_min":100,"x_max":668,"o":"m 100 0 l 100 685 l 218 685 l 218 539 l 190 529 q 243 619 210 582 q 324 676 276 656 q 428 696 371 696 q 604 630 540 696 q 668 435 668 564 l 668 0 l 550 0 l 550 392 q 512 545 550 496 q 396 594 474 594 q 299 568 339 594 q 239 485 260 542 q 218 342 218 429 l 218 0 l 100 0 m 303 808 l 303 968 l 442 968 l 442 808 l 303 808 z "},"ɲ":{"ha":763,"x_min":-17,"x_max":671,"o":"m 104 0 l 104 685 l 221 685 l 221 513 l 199 538 q 288 658 225 619 q 431 696 350 696 q 606 633 542 696 q 671 456 671 571 l 671 0 l 553 0 l 553 418 q 541 499 553 458 q 495 567 529 539 q 396 594 461 594 q 303 571 338 594 q 251 508 268 547 q 227 424 233 469 q 221 336 221 379 l 221 0 l 104 0 m 82 -294 q -17 -276 36 -294 l -17 -181 q 18 -190 3 -187 q 43 -193 33 -193 q 89 -176 74 -193 q 104 -117 104 -158 l 104 0 l 221 0 l 221 -132 q 183 -256 221 -217 q 82 -294 146 -294 z "},"ñ":{"ha":760,"x_min":100,"x_max":668,"o":"m 100 0 l 100 685 l 218 685 l 218 539 l 190 529 q 243 619 210 582 q 324 676 276 656 q 428 696 371 696 q 604 630 540 696 q 668 435 668 564 l 668 0 l 550 0 l 550 392 q 512 545 550 496 q 396 594 474 594 q 299 568 339 594 q 239 485 260 542 q 218 342 218 429 l 218 0 l 100 0 m 464 788 q 397 804 422 788 q 353 843 371 821 q 319 882 336 865 q 276 899 301 899 q 233 872 250 899 q 217 796 217 844 l 147 796 q 183 927 147 881 q 282 974 219 974 q 344 956 319 974 q 386 917 368 939 q 422 877 404 894 q 465 860 440 860 q 506 889 489 860 q 522 968 522 918 l 594 968 q 559 835 594 883 q 464 788 524 788 z "},"ŋ":{"ha":840,"x_min":143,"x_max":711,"o":"m 572 -294 q 525 -290 549 -294 q 474 -276 501 -286 l 474 -181 q 508 -190 493 -187 q 533 -193 524 -193 q 578 -176 563 -193 q 593 -117 593 -158 l 593 418 q 587 478 593 447 q 563 535 581 508 q 515 578 546 563 q 435 594 485 594 q 343 571 378 594 q 291 509 308 547 q 267 426 274 471 q 261 336 261 381 l 261 0 l 143 0 l 143 685 l 261 685 l 261 513 l 238 538 q 328 658 265 621 q 471 696 390 696 q 647 634 582 696 q 711 456 711 572 l 711 -132 q 673 -256 711 -217 q 572 -294 635 -294 z "},"o":{"ha":801,"x_min":68,"x_max":733,"o":"m 401 -11 q 230 34 306 -11 q 111 160 154 79 q 68 343 68 240 q 110 526 68 446 q 228 651 153 606 q 401 696 304 696 q 573 651 499 696 q 690 526 647 606 q 733 343 733 446 q 690 160 733 240 q 572 35 647 81 q 401 -11 497 -11 m 401 93 q 515 124 467 93 q 589 212 563 156 q 615 343 615 268 q 589 476 615 419 q 515 563 563 532 q 401 593 467 593 q 286 562 335 593 q 211 475 238 531 q 185 343 185 419 q 211 212 185 268 q 286 124 238 156 q 401 93 335 93 z "},"ó":{"ha":801,"x_min":68,"x_max":733,"o":"m 401 -11 q 230 34 306 -11 q 111 160 154 79 q 68 343 68 240 q 110 526 68 446 q 228 651 153 606 q 401 696 304 696 q 573 651 499 696 q 690 526 647 606 q 733 343 733 446 q 690 160 733 240 q 572 35 647 81 q 401 -11 497 -11 m 401 93 q 515 124 467 93 q 589 212 563 156 q 615 343 615 268 q 589 476 615 419 q 515 563 563 532 q 401 593 467 593 q 286 562 335 593 q 211 475 238 531 q 185 343 185 419 q 211 212 185 268 q 286 124 238 156 q 401 93 335 93 m 357 772 l 508 968 l 635 968 l 444 772 l 357 772 z "},"ŏ":{"ha":801,"x_min":68,"x_max":733,"o":"m 401 -11 q 230 34 306 -11 q 111 160 154 79 q 68 343 68 240 q 110 526 68 446 q 228 651 153 606 q 401 696 304 696 q 573 651 499 696 q 690 526 647 606 q 733 343 733 446 q 690 160 733 240 q 572 35 647 81 q 401 -11 497 -11 m 401 93 q 515 124 467 93 q 589 212 563 156 q 615 343 615 268 q 589 476 615 419 q 515 563 563 532 q 401 593 467 593 q 286 562 335 593 q 211 475 238 531 q 185 343 185 419 q 211 212 185 268 q 286 124 238 156 q 401 93 335 93 m 401 772 q 242 821 294 772 q 190 968 190 869 l 267 968 q 303 872 267 901 q 401 842 339 842 q 501 872 467 842 q 536 968 536 903 l 613 968 q 559 819 613 867 q 401 772 506 772 z "},"ǒ":{"ha":801,"x_min":68,"x_max":733,"o":"m 401 -11 q 230 34 306 -11 q 111 160 154 79 q 68 343 68 240 q 110 526 68 446 q 228 651 153 606 q 401 696 304 696 q 573 651 499 696 q 690 526 647 606 q 733 343 733 446 q 690 160 733 240 q 572 35 647 81 q 401 -11 497 -11 m 401 93 q 515 124 467 93 q 589 212 563 156 q 615 343 615 268 q 589 476 615 419 q 515 563 563 532 q 401 593 467 593 q 286 562 335 593 q 211 475 238 531 q 185 343 185 419 q 211 212 185 268 q 286 124 238 156 q 401 93 335 93 m 401 751 l 192 968 l 285 968 l 401 849 l 518 968 l 611 968 l 401 751 z "},"ô":{"ha":801,"x_min":68,"x_max":733,"o":"m 401 -11 q 230 34 306 -11 q 111 160 154 79 q 68 343 68 240 q 110 526 68 446 q 228 651 153 606 q 401 696 304 696 q 573 651 499 696 q 690 526 647 606 q 733 343 733 446 q 690 160 733 240 q 572 35 647 81 q 401 -11 497 -11 m 401 93 q 515 124 467 93 q 589 212 563 156 q 615 343 615 268 q 589 476 615 419 q 515 563 563 532 q 401 593 467 593 q 286 562 335 593 q 211 475 238 531 q 185 343 185 419 q 211 212 185 268 q 286 124 238 156 q 401 93 335 93 m 192 760 l 401 985 l 611 760 l 515 760 l 401 883 l 289 760 l 192 760 z "},"ố":{"ha":801,"x_min":68,"x_max":733,"o":"m 401 -11 q 230 34 306 -11 q 111 160 154 79 q 68 343 68 240 q 110 526 68 446 q 228 651 153 606 q 401 696 304 696 q 573 651 499 696 q 690 526 647 606 q 733 343 733 446 q 690 160 733 240 q 572 35 647 81 q 401 -11 497 -11 m 401 93 q 515 124 467 93 q 589 212 563 156 q 615 343 615 268 q 589 476 615 419 q 515 563 563 532 q 401 593 467 593 q 286 562 335 593 q 211 475 238 531 q 185 343 185 419 q 211 212 185 268 q 286 124 238 156 q 401 93 335 93 m 192 760 l 401 971 l 611 760 l 514 760 l 401 868 l 289 760 l 192 760 m 507 903 l 607 1089 l 704 1089 l 581 903 l 507 903 z "},"ộ":{"ha":801,"x_min":68,"x_max":733,"o":"m 401 -11 q 230 34 306 -11 q 111 160 154 79 q 68 343 68 240 q 110 526 68 446 q 228 651 153 606 q 401 696 304 696 q 573 651 499 696 q 690 526 647 606 q 733 343 733 446 q 690 160 733 240 q 572 35 647 81 q 401 -11 497 -11 m 401 93 q 515 124 467 93 q 589 212 563 156 q 615 343 615 268 q 589 476 615 419 q 515 563 563 532 q 401 593 467 593 q 286 562 335 593 q 211 475 238 531 q 185 343 185 419 q 211 212 185 268 q 286 124 238 156 q 401 93 335 93 m 332 -242 l 332 -96 l 471 -96 l 471 -242 l 332 -242 m 192 760 l 401 985 l 611 760 l 515 760 l 401 883 l 289 760 l 192 760 z "},"ồ":{"ha":801,"x_min":68,"x_max":733,"o":"m 401 -11 q 230 34 306 -11 q 111 160 154 79 q 68 343 68 240 q 110 526 68 446 q 228 651 153 606 q 401 696 304 696 q 573 651 499 696 q 690 526 647 606 q 733 343 733 446 q 690 160 733 240 q 572 35 647 81 q 401 -11 497 -11 m 401 93 q 515 124 467 93 q 589 212 563 156 q 615 343 615 268 q 589 476 615 419 q 515 563 563 532 q 401 593 467 593 q 286 562 335 593 q 211 475 238 531 q 185 343 185 419 q 211 212 185 268 q 286 124 238 156 q 401 93 335 93 m 192 760 l 401 971 l 611 760 l 514 760 l 401 868 l 290 760 l 192 760 m 574 903 l 450 1089 l 547 1089 l 647 903 l 574 903 z "},"ổ":{"ha":801,"x_min":68,"x_max":733,"o":"m 401 -11 q 230 34 306 -11 q 111 160 154 79 q 68 343 68 240 q 110 526 68 446 q 228 651 153 606 q 401 696 304 696 q 573 651 499 696 q 690 526 647 606 q 733 343 733 446 q 690 160 733 240 q 572 35 647 81 q 401 -11 497 -11 m 401 93 q 515 124 467 93 q 589 212 563 156 q 615 343 615 268 q 589 476 615 419 q 515 563 563 532 q 401 593 467 593 q 286 562 335 593 q 211 475 238 531 q 185 343 185 419 q 211 212 185 268 q 286 124 238 156 q 401 93 335 93 m 192 760 l 401 971 l 611 760 l 514 760 l 401 868 l 290 760 l 192 760 m 531 881 l 518 925 q 583 945 557 932 q 610 989 610 958 q 574 1039 610 1025 q 494 1053 538 1053 l 474 1053 l 474 1117 l 494 1117 q 630 1085 581 1117 q 679 994 679 1053 q 658 932 679 954 q 603 899 638 910 q 531 881 569 888 z "},"ỗ":{"ha":801,"x_min":68,"x_max":733,"o":"m 401 -11 q 230 34 306 -11 q 111 160 154 79 q 68 343 68 240 q 110 526 68 446 q 228 651 153 606 q 401 696 304 696 q 573 651 499 696 q 690 526 647 606 q 733 343 733 446 q 690 160 733 240 q 572 35 647 81 q 401 -11 497 -11 m 401 93 q 515 124 467 93 q 589 212 563 156 q 615 343 615 268 q 589 476 615 419 q 515 563 563 532 q 401 593 467 593 q 286 562 335 593 q 211 475 238 531 q 185 343 185 419 q 211 212 185 268 q 286 124 238 156 q 401 93 335 93 m 192 760 l 401 971 l 611 760 l 515 760 l 401 868 l 289 760 l 192 760 m 493 983 q 437 992 458 983 q 399 1014 415 1001 q 366 1035 383 1026 q 322 1044 349 1044 q 278 1029 292 1044 q 260 993 264 1014 l 193 996 q 230 1078 199 1046 q 315 1110 261 1110 q 372 1101 349 1110 q 413 1081 394 1093 q 447 1061 431 1069 q 485 1053 464 1053 q 522 1063 508 1053 q 540 1099 535 1074 l 610 1096 q 575 1015 604 1046 q 493 983 546 983 z "},"ö":{"ha":801,"x_min":68,"x_max":733,"o":"m 401 -11 q 230 34 306 -11 q 111 160 154 79 q 68 343 68 240 q 110 526 68 446 q 228 651 153 606 q 401 696 304 696 q 573 651 499 696 q 690 526 647 606 q 733 343 733 446 q 690 160 733 240 q 572 35 647 81 q 401 -11 497 -11 m 401 93 q 515 124 467 93 q 589 212 563 156 q 615 343 615 268 q 589 476 615 419 q 515 563 563 532 q 401 593 467 593 q 286 562 335 593 q 211 475 238 531 q 185 343 185 419 q 211 212 185 268 q 286 124 238 156 q 401 93 335 93 m 461 808 l 461 968 l 600 968 l 600 808 l 461 808 m 204 808 l 204 968 l 343 968 l 343 808 l 204 808 z "},"ọ":{"ha":801,"x_min":68,"x_max":733,"o":"m 401 -11 q 230 34 306 -11 q 111 160 154 79 q 68 343 68 240 q 110 526 68 446 q 228 651 153 606 q 401 696 304 696 q 573 651 499 696 q 690 526 647 606 q 733 343 733 446 q 690 160 733 240 q 572 35 647 81 q 401 -11 497 -11 m 401 93 q 515 124 467 93 q 589 212 563 156 q 615 343 615 268 q 589 476 615 419 q 515 563 563 532 q 401 593 467 593 q 286 562 335 593 q 211 475 238 531 q 185 343 185 419 q 211 212 185 268 q 286 124 238 156 q 401 93 335 93 m 332 -242 l 332 -96 l 471 -96 l 471 -242 l 332 -242 z "},"ò":{"ha":801,"x_min":68,"x_max":733,"o":"m 401 -11 q 230 34 306 -11 q 111 160 154 79 q 68 343 68 240 q 110 526 68 446 q 228 651 153 606 q 401 696 304 696 q 573 651 499 696 q 690 526 647 606 q 733 343 733 446 q 690 160 733 240 q 572 35 647 81 q 401 -11 497 -11 m 401 93 q 515 124 467 93 q 589 212 563 156 q 615 343 615 268 q 589 476 615 419 q 515 563 563 532 q 401 593 467 593 q 286 562 335 593 q 211 475 238 531 q 185 343 185 419 q 211 212 185 268 q 286 124 238 156 q 401 93 335 93 m 357 772 l 176 968 l 301 968 l 446 772 l 357 772 z "},"ỏ":{"ha":801,"x_min":68,"x_max":733,"o":"m 401 -11 q 230 34 306 -11 q 111 160 154 79 q 68 343 68 240 q 110 526 68 446 q 228 651 153 606 q 401 696 304 696 q 573 651 499 696 q 690 526 647 606 q 733 343 733 446 q 690 160 733 240 q 572 35 647 81 q 401 -11 497 -11 m 401 93 q 515 124 467 93 q 589 212 563 156 q 615 343 615 268 q 589 476 615 419 q 515 563 563 532 q 401 593 467 593 q 286 562 335 593 q 211 475 238 531 q 185 343 185 419 q 211 212 185 268 q 286 124 238 156 q 401 93 335 93 m 374 726 l 365 771 q 435 789 401 778 q 468 835 468 800 q 429 887 468 872 q 342 901 390 901 l 321 901 l 321 969 l 342 969 q 494 936 435 969 q 553 843 553 903 q 524 776 553 800 q 455 742 496 753 q 374 726 414 732 z "},"ơ":{"ha":801,"x_min":68,"x_max":815,"o":"m 401 -11 q 230 34 306 -11 q 111 160 154 79 q 68 343 68 240 q 110 526 68 446 q 228 651 153 606 q 401 696 304 696 q 573 651 499 696 q 690 526 647 606 q 733 343 733 446 q 690 160 733 240 q 572 35 647 81 q 401 -11 497 -11 m 401 93 q 515 124 467 93 q 589 212 563 156 q 615 343 615 268 q 589 476 615 419 q 515 563 563 532 q 401 593 467 593 q 286 562 335 593 q 211 475 238 531 q 185 343 185 419 q 211 212 185 268 q 286 124 238 156 q 401 93 335 93 m 615 500 l 615 578 q 705 615 678 578 q 732 724 732 653 l 732 779 l 815 779 l 815 717 q 794 604 815 653 q 730 528 774 556 q 615 500 686 500 z "},"ớ":{"ha":801,"x_min":68,"x_max":815,"o":"m 401 -11 q 230 34 306 -11 q 111 160 154 79 q 68 343 68 240 q 110 526 68 446 q 228 651 153 606 q 401 696 304 696 q 573 651 499 696 q 690 526 647 606 q 733 343 733 446 q 690 160 733 240 q 572 35 647 81 q 401 -11 497 -11 m 401 93 q 515 124 467 93 q 589 212 563 156 q 615 343 615 268 q 589 476 615 419 q 515 563 563 532 q 401 593 467 593 q 286 562 335 593 q 211 475 238 531 q 185 343 185 419 q 211 212 185 268 q 286 124 238 156 q 401 93 335 93 m 615 500 l 615 578 q 705 615 678 578 q 732 724 732 653 l 732 779 l 815 779 l 815 717 q 794 604 815 653 q 730 528 774 556 q 615 500 686 500 m 357 772 l 508 968 l 635 968 l 444 772 l 357 772 z "},"ợ":{"ha":801,"x_min":68,"x_max":815,"o":"m 401 -11 q 230 34 306 -11 q 111 160 154 79 q 68 343 68 240 q 110 526 68 446 q 228 651 153 606 q 401 696 304 696 q 573 651 499 696 q 690 526 647 606 q 733 343 733 446 q 690 160 733 240 q 572 35 647 81 q 401 -11 497 -11 m 401 93 q 515 124 467 93 q 589 212 563 156 q 615 343 615 268 q 589 476 615 419 q 515 563 563 532 q 401 593 467 593 q 286 562 335 593 q 211 475 238 531 q 185 343 185 419 q 211 212 185 268 q 286 124 238 156 q 401 93 335 93 m 615 500 l 615 578 q 705 615 678 578 q 732 724 732 653 l 732 779 l 815 779 l 815 717 q 794 604 815 653 q 730 528 774 556 q 615 500 686 500 m 332 -242 l 332 -96 l 471 -96 l 471 -242 l 332 -242 z "},"ờ":{"ha":801,"x_min":68,"x_max":815,"o":"m 401 -11 q 230 34 306 -11 q 111 160 154 79 q 68 343 68 240 q 110 526 68 446 q 228 651 153 606 q 401 696 304 696 q 573 651 499 696 q 690 526 647 606 q 733 343 733 446 q 690 160 733 240 q 572 35 647 81 q 401 -11 497 -11 m 401 93 q 515 124 467 93 q 589 212 563 156 q 615 343 615 268 q 589 476 615 419 q 515 563 563 532 q 401 593 467 593 q 286 562 335 593 q 211 475 238 531 q 185 343 185 419 q 211 212 185 268 q 286 124 238 156 q 401 93 335 93 m 615 500 l 615 578 q 705 615 678 578 q 732 724 732 653 l 732 779 l 815 779 l 815 717 q 794 604 815 653 q 730 528 774 556 q 615 500 686 500 m 357 772 l 176 968 l 301 968 l 446 772 l 357 772 z "},"ở":{"ha":801,"x_min":68,"x_max":815,"o":"m 401 -11 q 230 34 306 -11 q 111 160 154 79 q 68 343 68 240 q 110 526 68 446 q 228 651 153 606 q 401 696 304 696 q 573 651 499 696 q 690 526 647 606 q 733 343 733 446 q 690 160 733 240 q 572 35 647 81 q 401 -11 497 -11 m 401 93 q 515 124 467 93 q 589 212 563 156 q 615 343 615 268 q 589 476 615 419 q 515 563 563 532 q 401 593 467 593 q 286 562 335 593 q 211 475 238 531 q 185 343 185 419 q 211 212 185 268 q 286 124 238 156 q 401 93 335 93 m 615 500 l 615 578 q 705 615 678 578 q 732 724 732 653 l 732 779 l 815 779 l 815 717 q 794 604 815 653 q 730 528 774 556 q 615 500 686 500 m 374 726 l 365 771 q 435 789 401 778 q 468 835 468 800 q 429 887 468 872 q 342 901 390 901 l 321 901 l 321 969 l 342 969 q 494 936 435 969 q 553 843 553 903 q 524 776 553 800 q 455 742 496 753 q 374 726 414 732 z "},"ỡ":{"ha":801,"x_min":68,"x_max":815,"o":"m 401 -11 q 230 34 306 -11 q 111 160 154 79 q 68 343 68 240 q 110 526 68 446 q 228 651 153 606 q 401 696 304 696 q 573 651 499 696 q 690 526 647 606 q 733 343 733 446 q 690 160 733 240 q 572 35 647 81 q 401 -11 497 -11 m 401 93 q 515 124 467 93 q 589 212 563 156 q 615 343 615 268 q 589 476 615 419 q 515 563 563 532 q 401 593 467 593 q 286 562 335 593 q 211 475 238 531 q 185 343 185 419 q 211 212 185 268 q 286 124 238 156 q 401 93 335 93 m 615 500 l 615 578 q 705 615 678 578 q 732 724 732 653 l 732 779 l 815 779 l 815 717 q 794 604 815 653 q 730 528 774 556 q 615 500 686 500 m 493 788 q 426 804 451 788 q 383 843 400 821 q 348 882 365 865 q 306 899 331 899 q 263 872 279 899 q 246 796 246 844 l 176 796 q 213 927 176 881 q 311 974 249 974 q 373 956 349 974 q 415 917 397 939 q 451 877 433 894 q 494 860 469 860 q 535 889 518 860 q 551 968 551 918 l 624 968 q 588 835 624 883 q 493 788 553 788 z "},"ő":{"ha":801,"x_min":68,"x_max":757,"o":"m 401 -11 q 230 34 306 -11 q 111 160 154 79 q 68 343 68 240 q 110 526 68 446 q 228 651 153 606 q 401 696 304 696 q 573 651 499 696 q 690 526 647 606 q 733 343 733 446 q 690 160 733 240 q 572 35 647 81 q 401 -11 497 -11 m 401 93 q 515 124 467 93 q 589 212 563 156 q 615 343 615 268 q 589 476 615 419 q 515 563 563 532 q 401 593 467 593 q 286 562 335 593 q 211 475 238 531 q 185 343 185 419 q 211 212 185 268 q 286 124 238 156 q 401 93 335 93 m 479 753 l 632 968 l 757 968 l 568 753 l 479 753 m 235 753 l 386 968 l 493 968 l 322 753 l 235 753 z "},"ō":{"ha":801,"x_min":68,"x_max":733,"o":"m 401 -11 q 230 34 306 -11 q 111 160 154 79 q 68 343 68 240 q 110 526 68 446 q 228 651 153 606 q 401 696 304 696 q 573 651 499 696 q 690 526 647 606 q 733 343 733 446 q 690 160 733 240 q 572 35 647 81 q 401 -11 497 -11 m 401 93 q 515 124 467 93 q 589 212 563 156 q 615 343 615 268 q 589 476 615 419 q 515 563 563 532 q 401 593 467 593 q 286 562 335 593 q 211 475 238 531 q 185 343 185 419 q 211 212 185 268 q 286 124 238 156 q 401 93 335 93 m 213 818 l 213 889 l 589 889 l 589 818 l 213 818 z "},"ǫ":{"ha":801,"x_min":68,"x_max":733,"o":"m 401 -11 q 230 34 306 -11 q 111 160 154 79 q 68 343 68 240 q 110 526 68 446 q 228 651 153 606 q 401 696 304 696 q 573 651 499 696 q 690 526 647 606 q 733 343 733 446 q 690 160 733 240 q 572 35 647 81 q 401 -11 497 -11 m 401 93 q 515 124 467 93 q 589 212 563 156 q 615 343 615 268 q 589 476 615 419 q 515 563 563 532 q 401 593 467 593 q 286 562 335 593 q 211 475 238 531 q 185 343 185 419 q 211 212 185 268 q 286 124 238 156 q 401 93 335 93 m 401 -283 q 313 -253 350 -283 q 275 -168 275 -224 q 294 -95 275 -128 q 340 -37 313 -62 q 396 3 368 -12 l 489 0 q 444 -27 468 -11 q 397 -63 419 -43 q 360 -108 374 -83 q 346 -158 346 -132 q 362 -200 346 -186 q 401 -214 378 -214 q 450 -202 424 -214 q 501 -168 476 -190 l 538 -224 q 472 -269 507 -254 q 401 -283 436 -283 z "},"ø":{"ha":801,"x_min":68,"x_max":733,"o":"m 401 -11 q 230 34 306 -11 q 111 160 154 79 q 68 343 68 240 q 110 526 68 446 q 228 651 153 606 q 401 696 304 696 q 573 651 499 696 q 690 526 647 606 q 733 343 733 446 q 690 160 733 240 q 572 35 647 81 q 401 -11 497 -11 m 401 93 q 515 124 467 93 q 589 212 563 156 q 615 343 615 268 q 589 476 615 419 q 515 563 563 532 q 401 593 467 593 q 286 562 335 593 q 211 475 238 531 q 185 343 185 419 q 211 212 185 268 q 286 124 238 156 q 401 93 335 93 m 119 -67 l 622 750 l 682 750 l 179 -67 l 119 -67 z "},"ǿ":{"ha":801,"x_min":68,"x_max":733,"o":"m 401 -11 q 230 34 306 -11 q 111 160 154 79 q 68 343 68 240 q 110 526 68 446 q 228 651 153 606 q 401 696 304 696 q 573 651 499 696 q 690 526 647 606 q 733 343 733 446 q 690 160 733 240 q 572 35 647 81 q 401 -11 497 -11 m 401 93 q 515 124 467 93 q 589 212 563 156 q 615 343 615 268 q 589 476 615 419 q 515 563 563 532 q 401 593 467 593 q 286 562 335 593 q 211 475 238 531 q 185 343 185 419 q 211 212 185 268 q 286 124 238 156 q 401 93 335 93 m 119 -67 l 622 750 l 682 750 l 179 -67 l 119 -67 m 357 772 l 508 968 l 635 968 l 444 772 l 357 772 z "},"õ":{"ha":801,"x_min":68,"x_max":733,"o":"m 401 -11 q 230 34 306 -11 q 111 160 154 79 q 68 343 68 240 q 110 526 68 446 q 228 651 153 606 q 401 696 304 696 q 573 651 499 696 q 690 526 647 606 q 733 343 733 446 q 690 160 733 240 q 572 35 647 81 q 401 -11 497 -11 m 401 93 q 515 124 467 93 q 589 212 563 156 q 615 343 615 268 q 589 476 615 419 q 515 563 563 532 q 401 593 467 593 q 286 562 335 593 q 211 475 238 531 q 185 343 185 419 q 211 212 185 268 q 286 124 238 156 q 401 93 335 93 m 493 788 q 426 804 451 788 q 383 843 400 821 q 348 882 365 865 q 306 899 331 899 q 263 872 279 899 q 246 796 246 844 l 176 796 q 213 927 176 881 q 311 974 249 974 q 373 956 349 974 q 415 917 397 939 q 451 877 433 894 q 494 860 469 860 q 535 889 518 860 q 551 968 551 918 l 624 968 q 588 835 624 883 q 493 788 553 788 z "},"œ":{"ha":1296,"x_min":68,"x_max":1228,"o":"m 935 -11 q 794 16 854 -11 q 694 92 733 43 q 634 203 654 140 q 614 338 614 267 q 633 473 614 408 q 691 588 653 538 q 788 667 729 638 q 924 696 846 696 q 1060 669 1003 696 q 1155 594 1118 642 q 1210 489 1192 547 q 1228 368 1228 431 q 1227 342 1228 363 q 1224 307 1226 322 l 731 307 q 789 151 735 207 q 936 96 843 96 q 1040 115 996 96 q 1124 178 1085 135 l 1206 106 q 1126 40 1168 65 q 1038 1 1085 14 q 935 -11 992 -11 m 1111 367 q 1115 389 1114 378 q 1115 411 1115 400 q 1103 478 1115 444 q 1069 538 1092 511 q 1010 581 1046 565 q 926 597 975 597 q 824 569 867 597 q 757 496 781 542 q 729 394 733 450 l 1150 394 l 1111 367 m 401 -11 q 230 34 306 -11 q 111 160 154 79 q 68 343 68 240 q 110 526 68 446 q 228 651 153 606 q 401 696 304 696 q 573 651 499 696 q 690 526 647 606 q 733 343 733 446 q 690 160 733 240 q 572 35 647 81 q 401 -11 497 -11 m 401 93 q 515 124 467 93 q 589 212 563 156 q 615 343 615 268 q 589 476 615 419 q 515 563 563 532 q 401 593 467 593 q 286 562 335 593 q 211 475 238 531 q 185 343 185 419 q 211 212 185 268 q 286 124 238 156 q 401 93 335 93 z "},"p":{"ha":815,"x_min":100,"x_max":747,"o":"m 100 -283 l 100 685 l 217 685 l 217 481 l 179 507 q 233 609 197 567 q 319 674 268 651 q 436 696 371 696 q 599 649 529 696 q 708 523 669 603 q 747 342 747 443 q 706 155 747 235 q 593 32 664 75 q 436 -11 522 -11 q 319 13 371 -11 q 233 78 268 36 q 183 172 199 119 l 217 204 l 217 -283 l 100 -283 m 417 96 q 527 127 479 96 q 602 214 575 158 q 629 342 629 269 q 602 469 629 414 q 527 556 575 525 q 417 588 479 588 q 307 556 354 588 q 233 469 260 525 q 207 342 207 414 q 233 214 207 269 q 307 127 260 158 q 417 96 354 96 z "},"þ":{"ha":871,"x_min":144,"x_max":779,"o":"m 144 -283 l 144 968 l 263 968 l 263 482 l 239 508 q 296 611 257 569 q 388 674 335 653 q 497 696 440 696 q 651 649 588 696 q 747 522 714 601 q 779 340 779 442 q 742 153 779 232 q 642 31 706 74 q 497 -11 579 -11 q 386 12 439 -11 q 295 76 333 35 q 243 172 257 118 l 263 204 l 263 -283 l 144 -283 m 465 92 q 574 123 531 92 q 640 210 618 154 q 663 342 663 267 q 641 474 663 418 q 576 562 619 531 q 467 593 532 593 q 350 560 399 593 q 276 469 301 526 q 251 342 251 413 q 277 215 251 272 q 351 125 303 158 q 465 92 399 92 z "},"q":{"ha":815,"x_min":68,"x_max":715,"o":"m 599 -283 l 599 204 l 632 172 q 583 78 618 119 q 496 13 547 36 q 379 -11 444 -11 q 222 32 293 -11 q 110 155 151 75 q 68 342 68 235 q 107 523 68 443 q 216 649 146 603 q 379 696 286 696 q 496 674 444 696 q 583 609 547 651 q 636 507 618 567 l 599 481 l 599 685 l 715 685 l 715 -283 l 599 -283 m 399 96 q 508 127 461 96 q 582 214 556 158 q 608 342 608 269 q 582 469 608 414 q 508 556 556 525 q 399 588 461 588 q 288 556 336 588 q 213 469 240 525 q 186 342 186 414 q 213 214 186 269 q 288 127 240 158 q 399 96 336 96 z "},"r":{"ha":565,"x_min":100,"x_max":538,"o":"m 100 0 l 100 685 l 218 685 l 218 501 l 188 494 q 234 601 197 556 q 320 671 271 646 q 417 696 369 696 q 478 689 449 696 q 538 665 507 682 l 479 560 q 440 574 463 568 q 396 579 417 579 q 330 567 363 579 q 271 528 297 554 q 231 457 244 501 q 222 406 225 438 q 218 321 218 375 l 218 0 l 100 0 z "},"ŕ":{"ha":565,"x_min":100,"x_max":538,"o":"m 100 0 l 100 685 l 218 685 l 218 501 l 188 494 q 234 601 197 556 q 320 671 271 646 q 417 696 369 696 q 478 689 449 696 q 538 665 507 682 l 479 560 q 440 574 463 568 q 396 579 417 579 q 330 567 363 579 q 271 528 297 554 q 231 457 244 501 q 222 406 225 438 q 218 321 218 375 l 218 0 l 100 0 m 219 772 l 371 968 l 497 968 l 307 772 l 219 772 z "},"ř":{"ha":565,"x_min":54,"x_max":538,"o":"m 100 0 l 100 685 l 218 685 l 218 501 l 188 494 q 234 601 197 556 q 320 671 271 646 q 417 696 369 696 q 478 689 449 696 q 538 665 507 682 l 479 560 q 440 574 463 568 q 396 579 417 579 q 330 567 363 579 q 271 528 297 554 q 231 457 244 501 q 222 406 225 438 q 218 321 218 375 l 218 0 l 100 0 m 264 751 l 54 968 l 147 968 l 264 849 l 381 968 l 474 968 l 264 751 z "},"ŗ":{"ha":565,"x_min":89,"x_max":538,"o":"m 100 0 l 100 685 l 218 685 l 218 501 l 188 494 q 234 601 197 556 q 320 671 271 646 q 417 696 369 696 q 478 689 449 696 q 538 665 507 682 l 479 560 q 440 574 463 568 q 396 579 417 579 q 330 567 363 579 q 271 528 297 554 q 231 457 244 501 q 222 406 225 438 q 218 321 218 375 l 218 0 l 100 0 m 89 -283 l 201 -76 l 326 -76 l 161 -283 l 89 -283 z "},"s":{"ha":653,"x_min":43,"x_max":586,"o":"m 326 -11 q 201 10 257 -11 q 106 65 146 31 q 43 139 67 100 l 125 208 q 203 122 151 156 q 328 88 256 88 q 432 115 393 88 q 471 190 471 143 q 447 251 471 229 q 385 288 424 274 q 300 313 346 301 q 222 336 261 322 q 150 371 182 350 q 99 425 118 392 q 79 507 79 458 q 145 644 79 592 q 318 696 211 696 q 460 663 396 696 q 561 565 525 631 l 486 510 q 413 580 458 558 q 314 601 368 601 q 224 579 260 601 q 188 518 188 557 q 204 471 188 489 q 253 440 221 453 q 333 417 286 428 q 421 393 376 407 q 503 357 465 379 q 563 298 540 335 q 586 203 586 261 q 554 90 586 139 q 464 15 522 42 q 326 -11 406 -11 z "},"ś":{"ha":653,"x_min":43,"x_max":586,"o":"m 326 -11 q 201 10 257 -11 q 106 65 146 31 q 43 139 67 100 l 125 208 q 203 122 151 156 q 328 88 256 88 q 432 115 393 88 q 471 190 471 143 q 447 251 471 229 q 385 288 424 274 q 300 313 346 301 q 222 336 261 322 q 150 371 182 350 q 99 425 118 392 q 79 507 79 458 q 145 644 79 592 q 318 696 211 696 q 460 663 396 696 q 561 565 525 631 l 486 510 q 413 580 458 558 q 314 601 368 601 q 224 579 260 601 q 188 518 188 557 q 204 471 188 489 q 253 440 221 453 q 333 417 286 428 q 421 393 376 407 q 503 357 465 379 q 563 298 540 335 q 586 203 586 261 q 554 90 586 139 q 464 15 522 42 q 326 -11 406 -11 m 278 772 l 429 968 l 556 968 l 365 772 l 278 772 z "},"š":{"ha":653,"x_min":43,"x_max":586,"o":"m 326 -11 q 201 10 257 -11 q 106 65 146 31 q 43 139 67 100 l 125 208 q 203 122 151 156 q 328 88 256 88 q 432 115 393 88 q 471 190 471 143 q 447 251 471 229 q 385 288 424 274 q 300 313 346 301 q 222 336 261 322 q 150 371 182 350 q 99 425 118 392 q 79 507 79 458 q 145 644 79 592 q 318 696 211 696 q 460 663 396 696 q 561 565 525 631 l 486 510 q 413 580 458 558 q 314 601 368 601 q 224 579 260 601 q 188 518 188 557 q 204 471 188 489 q 253 440 221 453 q 333 417 286 428 q 421 393 376 407 q 503 357 465 379 q 563 298 540 335 q 586 203 586 261 q 554 90 586 139 q 464 15 522 42 q 326 -11 406 -11 m 322 751 l 113 968 l 206 968 l 322 849 l 439 968 l 532 968 l 322 751 z "},"ş":{"ha":653,"x_min":43,"x_max":586,"o":"m 326 -11 q 201 10 257 -11 q 106 65 146 31 q 43 139 67 100 l 125 208 q 203 122 151 156 q 328 88 256 88 q 432 115 393 88 q 471 190 471 143 q 447 251 471 229 q 385 288 424 274 q 300 313 346 301 q 222 336 261 322 q 150 371 182 350 q 99 425 118 392 q 79 507 79 458 q 145 644 79 592 q 318 696 211 696 q 460 663 396 696 q 561 565 525 631 l 486 510 q 413 580 458 558 q 314 601 368 601 q 224 579 260 601 q 188 518 188 557 q 204 471 188 489 q 253 440 221 453 q 333 417 286 428 q 421 393 376 407 q 503 357 465 379 q 563 298 540 335 q 586 203 586 261 q 554 90 586 139 q 464 15 522 42 q 326 -11 406 -11 m 296 -283 q 249 -278 274 -283 q 203 -262 225 -274 q 165 -236 182 -251 l 206 -189 q 249 -214 225 -206 q 294 -222 272 -222 q 343 -210 322 -222 q 364 -171 364 -197 q 349 -138 364 -150 q 310 -120 335 -126 q 258 -111 286 -114 q 206 -108 231 -108 l 293 11 l 367 11 l 303 -64 q 396 -96 356 -72 q 436 -168 436 -119 q 394 -253 436 -224 q 296 -283 353 -283 z "},"ŝ":{"ha":653,"x_min":43,"x_max":586,"o":"m 326 -11 q 201 10 257 -11 q 106 65 146 31 q 43 139 67 100 l 125 208 q 203 122 151 156 q 328 88 256 88 q 432 115 393 88 q 471 190 471 143 q 447 251 471 229 q 385 288 424 274 q 300 313 346 301 q 222 336 261 322 q 150 371 182 350 q 99 425 118 392 q 79 507 79 458 q 145 644 79 592 q 318 696 211 696 q 460 663 396 696 q 561 565 525 631 l 486 510 q 413 580 458 558 q 314 601 368 601 q 224 579 260 601 q 188 518 188 557 q 204 471 188 489 q 253 440 221 453 q 333 417 286 428 q 421 393 376 407 q 503 357 465 379 q 563 298 540 335 q 586 203 586 261 q 554 90 586 139 q 464 15 522 42 q 326 -11 406 -11 m 113 760 l 322 985 l 532 760 l 436 760 l 322 883 l 210 760 l 113 760 z "},"ș":{"ha":653,"x_min":43,"x_max":586,"o":"m 326 -11 q 201 10 257 -11 q 106 65 146 31 q 43 139 67 100 l 125 208 q 203 122 151 156 q 328 88 256 88 q 432 115 393 88 q 471 190 471 143 q 447 251 471 229 q 385 288 424 274 q 300 313 346 301 q 222 336 261 322 q 150 371 182 350 q 99 425 118 392 q 79 507 79 458 q 145 644 79 592 q 318 696 211 696 q 460 663 396 696 q 561 565 525 631 l 486 510 q 413 580 458 558 q 314 601 368 601 q 224 579 260 601 q 188 518 188 557 q 204 471 188 489 q 253 440 221 453 q 333 417 286 428 q 421 393 376 407 q 503 357 465 379 q 563 298 540 335 q 586 203 586 261 q 554 90 586 139 q 464 15 522 42 q 326 -11 406 -11 m 147 -283 l 260 -76 l 385 -76 l 219 -283 l 147 -283 z "},"ß":{"ha":881,"x_min":100,"x_max":828,"o":"m 576 -11 q 451 13 508 -11 q 353 79 393 38 q 294 172 313 121 l 389 215 q 427 151 403 181 q 489 105 451 122 q 575 88 526 88 q 677 117 642 88 q 713 192 713 147 q 692 249 713 228 q 638 284 671 271 q 564 308 604 297 q 483 331 524 318 q 408 364 442 343 q 354 418 375 385 q 333 503 333 451 q 354 592 333 558 q 408 646 375 626 q 476 678 440 665 q 545 701 513 690 q 599 729 578 713 q 619 775 619 746 q 595 826 619 806 q 533 858 571 847 q 453 869 494 869 q 340 853 383 869 q 272 811 296 838 q 237 753 247 785 q 224 692 226 722 q 222 638 222 661 l 222 0 l 100 0 l 100 638 q 114 762 100 701 q 164 872 128 822 q 268 950 200 921 q 444 979 336 979 q 594 956 529 979 q 697 887 660 932 q 735 778 735 842 q 714 696 735 728 q 660 644 693 664 q 592 612 628 625 q 523 585 556 599 q 469 553 490 572 q 449 503 449 535 q 469 457 449 474 q 524 430 490 440 q 598 410 557 419 q 679 387 639 400 q 753 352 719 374 q 807 294 786 331 q 828 203 828 258 q 807 108 828 149 q 751 42 786 68 q 670 2 715 15 q 576 -11 625 -11 z "},"t":{"ha":481,"x_min":14,"x_max":433,"o":"m 328 -11 q 240 8 279 -11 q 178 68 200 26 q 156 175 156 110 l 156 868 l 275 935 l 275 206 q 293 117 275 149 q 358 86 311 86 q 392 90 372 86 q 433 99 411 93 l 433 7 q 380 -7 407 -3 q 328 -11 353 -11 m 14 593 l 14 685 l 433 685 l 433 593 l 14 593 z "},"ŧ":{"ha":511,"x_min":29,"x_max":449,"o":"m 343 -11 q 255 8 294 -11 q 193 68 215 26 q 171 175 171 110 l 171 868 l 290 935 l 290 206 q 308 117 290 149 q 374 86 326 86 q 407 90 388 86 q 449 99 426 93 l 449 7 q 395 -7 422 -3 q 343 -11 368 -11 m 29 304 l 29 385 l 449 385 l 449 304 l 29 304 m 29 593 l 29 685 l 449 685 l 449 593 l 29 593 z "},"ť":{"ha":599,"x_min":14,"x_max":549,"o":"m 328 -11 q 240 8 279 -11 q 178 68 200 26 q 156 175 156 110 l 156 868 l 275 935 l 275 206 q 293 117 275 149 q 358 86 311 86 q 392 90 372 86 q 433 99 411 93 l 433 7 q 380 -7 407 -3 q 328 -11 353 -11 m 14 593 l 14 685 l 433 685 l 433 593 l 14 593 m 346 738 l 425 1033 l 549 1033 l 417 738 l 346 738 z "},"ţ":{"ha":458,"x_min":14,"x_max":433,"o":"m 328 -11 q 240 8 279 -11 q 178 68 200 26 q 156 175 156 110 l 156 868 l 275 935 l 275 206 q 293 117 275 149 q 358 86 311 86 q 392 90 372 86 q 433 99 411 93 l 433 7 q 380 -7 407 -3 q 328 -11 353 -11 m 14 593 l 14 685 l 433 685 l 433 593 l 14 593 m 246 -283 q 199 -278 224 -283 q 153 -262 175 -274 q 115 -236 132 -251 l 156 -189 q 199 -214 175 -206 q 244 -222 222 -222 q 293 -210 272 -222 q 314 -171 314 -197 q 299 -138 314 -150 q 260 -120 285 -126 q 208 -111 236 -114 q 156 -108 181 -108 l 243 11 l 317 11 l 253 -64 q 346 -96 306 -72 q 386 -168 386 -119 q 344 -253 386 -224 q 246 -283 303 -283 z "},"ț":{"ha":458,"x_min":14,"x_max":433,"o":"m 328 -11 q 240 8 279 -11 q 178 68 200 26 q 156 175 156 110 l 156 868 l 275 935 l 275 206 q 293 117 275 149 q 358 86 311 86 q 392 90 372 86 q 433 99 411 93 l 433 7 q 380 -7 407 -3 q 328 -11 353 -11 m 14 593 l 14 685 l 433 685 l 433 593 l 14 593 m 97 -283 l 210 -76 l 335 -76 l 169 -283 l 97 -283 z "},"u":{"ha":760,"x_min":92,"x_max":658,"o":"m 331 -11 q 203 19 257 -11 q 120 107 149 49 q 92 251 92 165 l 92 685 l 208 685 l 208 293 q 226 180 208 225 q 278 113 243 135 q 364 92 313 92 q 460 119 421 92 q 521 201 500 146 q 542 344 542 257 l 542 685 l 658 685 l 658 0 l 542 0 l 542 146 l 571 146 q 478 29 542 69 q 331 -11 414 -11 z "},"ú":{"ha":760,"x_min":92,"x_max":658,"o":"m 331 -11 q 203 19 257 -11 q 120 107 149 49 q 92 251 92 165 l 92 685 l 208 685 l 208 293 q 226 180 208 225 q 278 113 243 135 q 364 92 313 92 q 460 119 421 92 q 521 201 500 146 q 542 344 542 257 l 542 685 l 658 685 l 658 0 l 542 0 l 542 146 l 571 146 q 478 29 542 69 q 331 -11 414 -11 m 329 772 l 481 968 l 607 968 l 417 772 l 329 772 z "},"ŭ":{"ha":760,"x_min":92,"x_max":658,"o":"m 331 -11 q 203 19 257 -11 q 120 107 149 49 q 92 251 92 165 l 92 685 l 208 685 l 208 293 q 226 180 208 225 q 278 113 243 135 q 364 92 313 92 q 460 119 421 92 q 521 201 500 146 q 542 344 542 257 l 542 685 l 658 685 l 658 0 l 542 0 l 542 146 l 571 146 q 478 29 542 69 q 331 -11 414 -11 m 374 772 q 215 821 267 772 q 163 968 163 869 l 239 968 q 275 872 239 901 q 374 842 311 842 q 474 872 439 842 q 508 968 508 903 l 585 968 q 531 819 585 867 q 374 772 478 772 z "},"ǔ":{"ha":760,"x_min":92,"x_max":658,"o":"m 331 -11 q 203 19 257 -11 q 120 107 149 49 q 92 251 92 165 l 92 685 l 208 685 l 208 293 q 226 180 208 225 q 278 113 243 135 q 364 92 313 92 q 460 119 421 92 q 521 201 500 146 q 542 344 542 257 l 542 685 l 658 685 l 658 0 l 542 0 l 542 146 l 571 146 q 478 29 542 69 q 331 -11 414 -11 m 374 751 l 164 968 l 257 968 l 374 849 l 490 968 l 583 968 l 374 751 z "},"û":{"ha":760,"x_min":92,"x_max":658,"o":"m 331 -11 q 203 19 257 -11 q 120 107 149 49 q 92 251 92 165 l 92 685 l 208 685 l 208 293 q 226 180 208 225 q 278 113 243 135 q 364 92 313 92 q 460 119 421 92 q 521 201 500 146 q 542 344 542 257 l 542 685 l 658 685 l 658 0 l 542 0 l 542 146 l 571 146 q 478 29 542 69 q 331 -11 414 -11 m 164 760 l 374 985 l 583 760 l 488 760 l 374 883 l 261 760 l 164 760 z "},"ü":{"ha":760,"x_min":92,"x_max":658,"o":"m 331 -11 q 203 19 257 -11 q 120 107 149 49 q 92 251 92 165 l 92 685 l 208 685 l 208 293 q 226 180 208 225 q 278 113 243 135 q 364 92 313 92 q 460 119 421 92 q 521 201 500 146 q 542 344 542 257 l 542 685 l 658 685 l 658 0 l 542 0 l 542 146 l 571 146 q 478 29 542 69 q 331 -11 414 -11 m 433 808 l 433 968 l 572 968 l 572 808 l 433 808 m 176 808 l 176 968 l 315 968 l 315 808 l 176 808 z "},"ụ":{"ha":760,"x_min":92,"x_max":658,"o":"m 331 -11 q 203 19 257 -11 q 120 107 149 49 q 92 251 92 165 l 92 685 l 208 685 l 208 293 q 226 180 208 225 q 278 113 243 135 q 364 92 313 92 q 460 119 421 92 q 521 201 500 146 q 542 344 542 257 l 542 685 l 658 685 l 658 0 l 542 0 l 542 146 l 571 146 q 478 29 542 69 q 331 -11 414 -11 m 313 -242 l 313 -96 l 451 -96 l 451 -242 l 313 -242 z "},"ù":{"ha":760,"x_min":92,"x_max":658,"o":"m 331 -11 q 203 19 257 -11 q 120 107 149 49 q 92 251 92 165 l 92 685 l 208 685 l 208 293 q 226 180 208 225 q 278 113 243 135 q 364 92 313 92 q 460 119 421 92 q 521 201 500 146 q 542 344 542 257 l 542 685 l 658 685 l 658 0 l 542 0 l 542 146 l 571 146 q 478 29 542 69 q 331 -11 414 -11 m 329 772 l 149 968 l 274 968 l 418 772 l 329 772 z "},"ủ":{"ha":760,"x_min":92,"x_max":658,"o":"m 331 -11 q 203 19 257 -11 q 120 107 149 49 q 92 251 92 165 l 92 685 l 208 685 l 208 293 q 226 180 208 225 q 278 113 243 135 q 364 92 313 92 q 460 119 421 92 q 521 201 500 146 q 542 344 542 257 l 542 685 l 658 685 l 658 0 l 542 0 l 542 146 l 571 146 q 478 29 542 69 q 331 -11 414 -11 m 346 726 l 338 771 q 407 789 374 778 q 440 835 440 800 q 401 887 440 872 q 314 901 363 901 l 293 901 l 293 969 l 314 969 q 466 936 407 969 q 525 843 525 903 q 497 776 525 800 q 427 742 468 753 q 346 726 386 732 z "},"ư":{"ha":760,"x_min":92,"x_max":778,"o":"m 331 -11 q 203 19 257 -11 q 120 107 149 49 q 92 251 92 165 l 92 685 l 208 685 l 208 293 q 226 180 208 225 q 278 113 243 135 q 364 92 313 92 q 460 119 421 92 q 521 201 500 146 q 542 344 542 257 l 542 685 l 658 685 l 658 0 l 542 0 l 542 146 l 571 146 q 478 29 542 69 q 331 -11 414 -11 m 578 607 l 578 685 q 667 722 640 685 q 694 831 694 760 l 694 886 l 778 886 l 778 824 q 757 711 778 760 q 692 635 736 663 q 578 607 649 607 z "},"ứ":{"ha":760,"x_min":92,"x_max":778,"o":"m 331 -11 q 203 19 257 -11 q 120 107 149 49 q 92 251 92 165 l 92 685 l 208 685 l 208 293 q 226 180 208 225 q 278 113 243 135 q 364 92 313 92 q 460 119 421 92 q 521 201 500 146 q 542 344 542 257 l 542 685 l 658 685 l 658 0 l 542 0 l 542 146 l 571 146 q 478 29 542 69 q 331 -11 414 -11 m 578 607 l 578 685 q 667 722 640 685 q 694 831 694 760 l 694 886 l 778 886 l 778 824 q 757 711 778 760 q 692 635 736 663 q 578 607 649 607 m 329 772 l 481 968 l 607 968 l 417 772 l 329 772 z "},"ự":{"ha":760,"x_min":92,"x_max":778,"o":"m 331 -11 q 203 19 257 -11 q 120 107 149 49 q 92 251 92 165 l 92 685 l 208 685 l 208 293 q 226 180 208 225 q 278 113 243 135 q 364 92 313 92 q 460 119 421 92 q 521 201 500 146 q 542 344 542 257 l 542 685 l 658 685 l 658 0 l 542 0 l 542 146 l 571 146 q 478 29 542 69 q 331 -11 414 -11 m 578 607 l 578 685 q 667 722 640 685 q 694 831 694 760 l 694 886 l 778 886 l 778 824 q 757 711 778 760 q 692 635 736 663 q 578 607 649 607 m 313 -242 l 313 -96 l 451 -96 l 451 -242 l 313 -242 z "},"ừ":{"ha":760,"x_min":92,"x_max":778,"o":"m 331 -11 q 203 19 257 -11 q 120 107 149 49 q 92 251 92 165 l 92 685 l 208 685 l 208 293 q 226 180 208 225 q 278 113 243 135 q 364 92 313 92 q 460 119 421 92 q 521 201 500 146 q 542 344 542 257 l 542 685 l 658 685 l 658 0 l 542 0 l 542 146 l 571 146 q 478 29 542 69 q 331 -11 414 -11 m 578 607 l 578 685 q 667 722 640 685 q 694 831 694 760 l 694 886 l 778 886 l 778 824 q 757 711 778 760 q 692 635 736 663 q 578 607 649 607 m 329 772 l 149 968 l 274 968 l 418 772 l 329 772 z "},"ử":{"ha":760,"x_min":92,"x_max":778,"o":"m 331 -11 q 203 19 257 -11 q 120 107 149 49 q 92 251 92 165 l 92 685 l 208 685 l 208 293 q 226 180 208 225 q 278 113 243 135 q 364 92 313 92 q 460 119 421 92 q 521 201 500 146 q 542 344 542 257 l 542 685 l 658 685 l 658 0 l 542 0 l 542 146 l 571 146 q 478 29 542 69 q 331 -11 414 -11 m 578 607 l 578 685 q 667 722 640 685 q 694 831 694 760 l 694 886 l 778 886 l 778 824 q 757 711 778 760 q 692 635 736 663 q 578 607 649 607 m 346 726 l 338 771 q 407 789 374 778 q 440 835 440 800 q 401 887 440 872 q 314 901 363 901 l 293 901 l 293 969 l 314 969 q 466 936 407 969 q 525 843 525 903 q 497 776 525 800 q 427 742 468 753 q 346 726 386 732 z "},"ữ":{"ha":760,"x_min":92,"x_max":778,"o":"m 331 -11 q 203 19 257 -11 q 120 107 149 49 q 92 251 92 165 l 92 685 l 208 685 l 208 293 q 226 180 208 225 q 278 113 243 135 q 364 92 313 92 q 460 119 421 92 q 521 201 500 146 q 542 344 542 257 l 542 685 l 658 685 l 658 0 l 542 0 l 542 146 l 571 146 q 478 29 542 69 q 331 -11 414 -11 m 578 607 l 578 685 q 667 722 640 685 q 694 831 694 760 l 694 886 l 778 886 l 778 824 q 757 711 778 760 q 692 635 736 663 q 578 607 649 607 m 465 788 q 398 804 424 788 q 355 843 372 821 q 320 882 338 865 q 278 899 303 899 q 235 872 251 899 q 218 796 218 844 l 149 796 q 185 927 149 881 q 283 974 221 974 q 345 956 321 974 q 388 917 369 939 q 424 877 406 894 q 467 860 442 860 q 507 889 490 860 q 524 968 524 918 l 596 968 q 560 835 596 883 q 465 788 525 788 z "},"ű":{"ha":760,"x_min":92,"x_max":729,"o":"m 331 -11 q 203 19 257 -11 q 120 107 149 49 q 92 251 92 165 l 92 685 l 208 685 l 208 293 q 226 180 208 225 q 278 113 243 135 q 364 92 313 92 q 460 119 421 92 q 521 201 500 146 q 542 344 542 257 l 542 685 l 658 685 l 658 0 l 542 0 l 542 146 l 571 146 q 478 29 542 69 q 331 -11 414 -11 m 451 753 l 604 968 l 729 968 l 540 753 l 451 753 m 207 753 l 358 968 l 465 968 l 294 753 l 207 753 z "},"ū":{"ha":760,"x_min":92,"x_max":658,"o":"m 331 -11 q 203 19 257 -11 q 120 107 149 49 q 92 251 92 165 l 92 685 l 208 685 l 208 293 q 226 180 208 225 q 278 113 243 135 q 364 92 313 92 q 460 119 421 92 q 521 201 500 146 q 542 344 542 257 l 542 685 l 658 685 l 658 0 l 542 0 l 542 146 l 571 146 q 478 29 542 69 q 331 -11 414 -11 m 185 818 l 185 889 l 561 889 l 561 818 l 185 818 z "},"ų":{"ha":760,"x_min":92,"x_max":706,"o":"m 331 -11 q 203 19 257 -11 q 120 107 149 49 q 92 251 92 165 l 92 685 l 208 685 l 208 293 q 226 180 208 225 q 278 113 243 135 q 364 92 313 92 q 460 119 421 92 q 521 201 500 146 q 542 344 542 257 l 542 685 l 658 685 l 658 0 l 542 0 l 542 146 l 571 146 q 478 29 542 69 q 331 -11 414 -11 m 569 -283 q 481 -253 518 -283 q 443 -168 443 -224 q 462 -95 443 -128 q 508 -37 481 -62 q 564 3 536 -12 l 657 0 q 612 -27 636 -11 q 565 -63 588 -43 q 528 -108 542 -83 q 514 -158 514 -132 q 530 -200 514 -186 q 569 -214 546 -214 q 618 -202 592 -214 q 669 -168 644 -190 l 706 -224 q 640 -269 675 -254 q 569 -283 604 -283 z "},"ů":{"ha":760,"x_min":92,"x_max":658,"o":"m 331 -11 q 203 19 257 -11 q 120 107 149 49 q 92 251 92 165 l 92 685 l 208 685 l 208 293 q 226 180 208 225 q 278 113 243 135 q 364 92 313 92 q 460 119 421 92 q 521 201 500 146 q 542 344 542 257 l 542 685 l 658 685 l 658 0 l 542 0 l 542 146 l 571 146 q 478 29 542 69 q 331 -11 414 -11 m 374 744 q 301 764 333 744 q 251 816 269 783 q 232 886 232 849 q 251 957 232 925 q 302 1008 269 989 q 374 1028 335 1028 q 444 1008 413 1028 q 496 957 476 989 q 515 886 515 925 q 496 815 515 847 q 444 763 476 782 q 374 744 413 744 m 374 810 q 428 832 406 810 q 450 886 450 854 q 428 941 450 919 q 374 963 407 963 q 319 940 340 963 q 297 886 297 918 q 319 832 297 854 q 374 810 342 810 z "},"ũ":{"ha":760,"x_min":92,"x_max":658,"o":"m 331 -11 q 203 19 257 -11 q 120 107 149 49 q 92 251 92 165 l 92 685 l 208 685 l 208 293 q 226 180 208 225 q 278 113 243 135 q 364 92 313 92 q 460 119 421 92 q 521 201 500 146 q 542 344 542 257 l 542 685 l 658 685 l 658 0 l 542 0 l 542 146 l 571 146 q 478 29 542 69 q 331 -11 414 -11 m 465 788 q 398 804 424 788 q 355 843 372 821 q 320 882 338 865 q 278 899 303 899 q 235 872 251 899 q 218 796 218 844 l 149 796 q 185 927 149 881 q 283 974 221 974 q 345 956 321 974 q 388 917 369 939 q 424 877 406 894 q 467 860 442 860 q 507 889 490 860 q 524 968 524 918 l 596 968 q 560 835 596 883 q 465 788 525 788 z "},"v":{"ha":724,"x_min":32,"x_max":690,"o":"m 313 0 l 32 685 l 161 685 l 361 151 l 563 685 l 690 685 l 411 0 l 313 0 z "},"w":{"ha":1039,"x_min":39,"x_max":1000,"o":"m 242 0 l 39 685 l 164 685 l 303 178 l 467 685 l 571 685 l 735 181 l 875 685 l 1000 685 l 796 0 l 688 0 l 519 521 l 351 0 l 242 0 z "},"ẃ":{"ha":1039,"x_min":39,"x_max":1000,"o":"m 242 0 l 39 685 l 164 685 l 303 178 l 467 685 l 571 685 l 735 181 l 875 685 l 1000 685 l 796 0 l 688 0 l 519 521 l 351 0 l 242 0 m 475 772 l 626 968 l 753 968 l 563 772 l 475 772 z "},"ŵ":{"ha":1039,"x_min":39,"x_max":1000,"o":"m 242 0 l 39 685 l 164 685 l 303 178 l 467 685 l 571 685 l 735 181 l 875 685 l 1000 685 l 796 0 l 688 0 l 519 521 l 351 0 l 242 0 m 310 760 l 519 985 l 729 760 l 633 760 l 519 883 l 407 760 l 310 760 z "},"ẅ":{"ha":1039,"x_min":39,"x_max":1000,"o":"m 242 0 l 39 685 l 164 685 l 303 178 l 467 685 l 571 685 l 735 181 l 875 685 l 1000 685 l 796 0 l 688 0 l 519 521 l 351 0 l 242 0 m 579 808 l 579 968 l 718 968 l 718 808 l 579 808 m 322 808 l 322 968 l 461 968 l 461 808 l 322 808 z "},"ẁ":{"ha":1039,"x_min":39,"x_max":1000,"o":"m 242 0 l 39 685 l 164 685 l 303 178 l 467 685 l 571 685 l 735 181 l 875 685 l 1000 685 l 796 0 l 688 0 l 519 521 l 351 0 l 242 0 m 475 772 l 294 968 l 419 968 l 564 772 l 475 772 z "},"x":{"ha":722,"x_min":38,"x_max":685,"o":"m 38 0 l 283 344 l 38 685 l 182 685 l 361 425 l 543 685 l 685 685 l 438 344 l 685 0 l 540 0 l 361 263 l 179 0 l 38 0 z "},"y":{"ha":724,"x_min":32,"x_max":690,"o":"m 168 -282 l 299 33 l 32 685 l 161 685 l 361 151 l 563 685 l 690 685 l 296 -282 l 168 -282 z "},"ý":{"ha":724,"x_min":32,"x_max":690,"o":"m 168 -282 l 299 33 l 32 685 l 161 685 l 361 151 l 563 685 l 690 685 l 296 -282 l 168 -282 m 318 772 l 469 968 l 596 968 l 406 772 l 318 772 z "},"ŷ":{"ha":724,"x_min":32,"x_max":690,"o":"m 168 -282 l 299 33 l 32 685 l 161 685 l 361 151 l 563 685 l 690 685 l 296 -282 l 168 -282 m 153 760 l 363 985 l 572 760 l 476 760 l 363 883 l 250 760 l 153 760 z "},"ÿ":{"ha":724,"x_min":32,"x_max":690,"o":"m 168 -282 l 299 33 l 32 685 l 161 685 l 361 151 l 563 685 l 690 685 l 296 -282 l 168 -282 m 422 808 l 422 968 l 561 968 l 561 808 l 422 808 m 165 808 l 165 968 l 304 968 l 304 808 l 165 808 z "},"ỵ":{"ha":724,"x_min":32,"x_max":690,"o":"m 168 -282 l 299 33 l 32 685 l 161 685 l 361 151 l 563 685 l 690 685 l 296 -282 l 168 -282 m 511 -283 l 511 -137 l 650 -137 l 650 -283 l 511 -283 z "},"ỳ":{"ha":724,"x_min":32,"x_max":690,"o":"m 168 -282 l 299 33 l 32 685 l 161 685 l 361 151 l 563 685 l 690 685 l 296 -282 l 168 -282 m 318 772 l 138 968 l 263 968 l 407 772 l 318 772 z "},"ỷ":{"ha":724,"x_min":32,"x_max":690,"o":"m 168 -282 l 299 33 l 32 685 l 161 685 l 361 151 l 563 685 l 690 685 l 296 -282 l 168 -282 m 335 726 l 326 771 q 396 789 363 778 q 429 835 429 800 q 390 887 429 872 q 303 901 351 901 l 282 901 l 282 969 l 303 969 q 455 936 396 969 q 514 843 514 903 q 485 776 514 800 q 416 742 457 753 q 335 726 375 732 z "},"ȳ":{"ha":724,"x_min":32,"x_max":690,"o":"m 168 -282 l 299 33 l 32 685 l 161 685 l 361 151 l 563 685 l 690 685 l 296 -282 l 168 -282 m 174 818 l 174 889 l 550 889 l 550 818 l 174 818 z "},"ỹ":{"ha":724,"x_min":32,"x_max":690,"o":"m 168 -282 l 299 33 l 32 685 l 161 685 l 361 151 l 563 685 l 690 685 l 296 -282 l 168 -282 m 454 788 q 387 804 413 788 q 344 843 361 821 q 309 882 326 865 q 267 899 292 899 q 224 872 240 899 q 207 796 207 844 l 138 796 q 174 927 138 881 q 272 974 210 974 q 334 956 310 974 q 376 917 358 939 q 413 877 394 894 q 456 860 431 860 q 496 889 479 860 q 513 968 513 918 l 585 968 q 549 835 585 883 q 454 788 514 788 z "},"z":{"ha":656,"x_min":51,"x_max":599,"o":"m 51 0 l 51 83 l 485 617 l 490 590 l 71 590 l 71 685 l 599 685 l 599 596 l 168 60 l 164 96 l 596 96 l 596 0 l 51 0 z "},"ź":{"ha":656,"x_min":51,"x_max":599,"o":"m 51 0 l 51 83 l 485 617 l 490 590 l 71 590 l 71 685 l 599 685 l 599 596 l 168 60 l 164 96 l 596 96 l 596 0 l 51 0 m 285 772 l 436 968 l 563 968 l 372 772 l 285 772 z "},"ž":{"ha":656,"x_min":51,"x_max":599,"o":"m 51 0 l 51 83 l 485 617 l 490 590 l 71 590 l 71 685 l 599 685 l 599 596 l 168 60 l 164 96 l 596 96 l 596 0 l 51 0 m 329 751 l 119 968 l 213 968 l 329 849 l 446 968 l 539 968 l 329 751 z "},"ż":{"ha":656,"x_min":51,"x_max":599,"o":"m 51 0 l 51 83 l 485 617 l 490 590 l 71 590 l 71 685 l 599 685 l 599 596 l 168 60 l 164 96 l 596 96 l 596 0 l 51 0 m 260 808 l 260 968 l 399 968 l 399 808 l 260 808 z "},"ﬁ":{"ha":707,"x_min":14,"x_max":619,"o":"m 133 0 l 133 593 l 14 593 l 14 685 l 133 685 l 133 739 q 169 873 133 819 q 263 953 204 926 q 392 979 322 979 q 518 963 464 979 q 619 914 572 946 l 564 831 q 488 870 529 857 q 397 883 446 883 q 288 847 325 883 q 250 729 250 810 l 250 685 l 543 685 l 543 593 l 250 593 l 250 0 l 133 0 m 501 0 l 501 685 l 618 685 l 618 0 l 501 0 z "},"ﬂ":{"ha":763,"x_min":14,"x_max":729,"o":"m 629 -11 q 531 28 569 -11 q 492 151 492 67 l 492 854 q 441 876 467 869 q 388 883 415 883 q 282 847 318 883 q 246 738 246 811 l 246 685 l 385 685 l 385 593 l 246 593 l 246 0 l 129 0 l 129 593 l 14 593 l 14 685 l 129 685 l 129 739 q 164 872 129 819 q 256 952 199 925 q 381 979 313 979 q 505 962 451 979 q 610 910 558 944 l 610 171 q 669 96 610 96 q 697 99 682 96 q 729 108 711 103 l 729 7 q 674 -7 700 -3 q 629 -11 649 -11 z "},"ª":{"ha":693,"x_min":128,"x_max":533,"o":"m 297 483 q 176 524 224 483 q 128 632 128 564 q 181 740 128 706 q 314 775 235 775 l 465 775 q 465 789 465 779 q 464 807 465 799 q 428 888 458 860 q 340 915 397 915 q 256 894 289 915 q 199 838 222 872 l 144 875 q 231 956 185 932 q 338 979 276 979 q 482 928 431 979 q 533 786 533 876 l 533 493 l 471 493 l 469 576 q 297 483 403 483 m 313 549 q 394 571 358 549 q 454 636 431 593 q 461 674 458 656 q 465 711 464 692 l 318 711 q 233 690 263 711 q 203 629 203 668 q 232 571 203 593 q 313 549 261 549 z "},"º":{"ha":731,"x_min":128,"x_max":601,"o":"m 365 490 q 242 524 296 490 q 158 613 189 557 q 128 735 128 668 q 158 858 128 803 q 243 946 189 913 q 365 979 297 979 q 487 947 433 979 q 571 858 540 914 q 601 735 601 803 q 571 611 601 667 q 488 523 540 556 q 365 490 435 490 m 365 557 q 452 581 417 557 q 506 645 488 604 q 525 735 525 686 q 506 826 525 785 q 452 890 488 867 q 365 914 417 914 q 278 890 314 914 q 224 826 243 867 q 206 735 206 785 q 224 645 206 686 q 278 581 242 604 q 365 557 314 557 z "},"Δ":{"ha":999,"x_min":82,"x_max":917,"o":"m 82 0 l 450 968 l 549 968 l 917 0 l 82 0 m 257 113 l 742 113 l 500 793 l 257 113 z "},"Ω":{"ha":1143,"x_min":46,"x_max":946,"o":"m 60 0 l 60 115 l 290 115 l 315 113 q 166 222 226 158 q 76 366 106 286 q 46 539 46 446 q 78 718 46 636 q 170 860 111 800 q 312 952 229 919 q 494 985 394 985 q 677 951 594 985 q 820 858 760 918 q 913 717 881 799 q 946 540 946 636 q 914 364 946 444 q 822 221 882 283 q 675 113 761 158 l 700 115 l 932 115 l 932 0 l 572 0 l 572 124 q 756 292 696 192 q 817 521 817 392 q 778 704 817 626 q 669 825 740 782 q 496 868 597 868 q 321 825 393 868 q 210 703 249 782 q 172 519 172 625 q 237 283 172 382 q 419 124 301 185 l 419 0 l 60 0 z "},"μ":{"ha":760,"x_min":92,"x_max":658,"o":"m 92 -235 l 92 685 l 208 685 l 208 279 q 224 183 208 225 q 274 116 239 140 q 368 92 308 92 q 472 127 433 92 q 526 223 510 163 q 542 360 542 283 l 542 685 l 658 685 l 658 0 l 542 0 l 542 107 q 457 19 511 50 q 333 -11 403 -11 q 257 6 289 -11 q 208 58 225 24 l 208 -235 l 92 -235 z "},"π":{"ha":806,"x_min":67,"x_max":779,"o":"m 688 -11 q 558 36 600 -11 q 515 181 515 83 l 515 586 l 271 586 l 271 0 l 154 0 l 154 586 l 67 586 l 67 685 l 746 685 l 746 586 l 632 586 l 632 218 q 652 125 632 153 q 714 97 672 97 q 738 101 726 97 q 758 108 749 104 l 779 14 q 733 -6 756 0 q 688 -11 711 -11 z "},"⁄":{"ha":157,"x_min":-243,"x_max":400,"o":"m -243 0 l 315 968 l 400 968 l -158 0 l -243 0 z "},"½":{"ha":1043,"x_min":31,"x_max":997,"o":"m 181 388 l 181 853 l 206 811 l 31 811 l 31 876 l 126 876 q 167 888 153 876 q 181 928 181 899 l 181 968 l 263 968 l 263 388 l 181 388 m 158 0 l 717 968 l 801 968 l 243 0 l 158 0 m 606 0 l 606 65 q 690 129 642 93 q 785 209 739 165 q 863 302 832 253 q 893 404 893 351 q 868 478 893 450 q 794 507 843 507 q 733 490 757 507 q 697 442 708 472 q 683 376 685 413 l 604 382 q 626 483 604 436 q 692 558 649 529 q 797 586 735 586 q 925 538 875 586 q 975 407 975 489 q 950 298 975 350 q 882 200 925 246 q 784 115 839 154 q 671 44 729 76 l 692 75 l 997 75 l 997 0 l 606 0 z "},"¼":{"ha":992,"x_min":31,"x_max":954,"o":"m 181 388 l 181 853 l 206 811 l 31 811 l 31 876 l 126 876 q 167 888 153 876 q 181 928 181 899 l 181 968 l 263 968 l 263 388 l 181 388 m 158 0 l 717 968 l 801 968 l 243 0 l 158 0 m 779 0 l 779 139 l 510 139 l 510 201 l 788 581 l 861 581 l 861 214 l 954 214 l 954 139 l 861 139 l 861 0 l 779 0 m 579 185 l 571 214 l 779 214 l 779 489 l 789 482 l 579 185 z "},"¾":{"ha":1104,"x_min":44,"x_max":1067,"o":"m 256 381 q 103 432 161 381 q 44 567 44 483 l 126 571 q 163 489 126 519 q 257 458 199 458 q 350 486 317 458 q 383 561 383 514 q 338 639 383 618 q 224 660 293 660 l 224 725 q 286 733 257 725 q 333 760 315 740 q 351 813 351 779 q 324 874 351 851 q 254 897 297 897 q 179 871 206 897 q 151 804 153 844 l 71 808 q 124 928 71 882 q 257 975 176 975 q 383 932 333 975 q 433 821 433 889 q 406 744 433 774 q 343 701 379 715 q 403 675 376 693 q 447 629 431 657 q 464 561 464 601 q 406 431 464 481 q 256 381 349 381 m 271 0 l 829 968 l 914 968 l 356 0 l 271 0 m 892 0 l 892 139 l 622 139 l 622 201 l 900 581 l 974 581 l 974 214 l 1067 214 l 1067 139 l 974 139 l 974 0 l 892 0 m 692 185 l 683 214 l 892 214 l 892 489 l 901 482 l 692 185 z "},"⅛":{"ha":1071,"x_min":31,"x_max":1021,"o":"m 181 388 l 181 853 l 206 811 l 31 811 l 31 876 l 126 876 q 167 888 153 876 q 181 928 181 899 l 181 968 l 263 968 l 263 388 l 181 388 m 158 0 l 717 968 l 801 968 l 243 0 l 158 0 m 815 -7 q 715 13 763 -7 q 638 72 668 32 q 608 169 608 111 q 633 257 608 218 q 703 315 657 296 q 656 360 674 332 q 638 431 638 389 q 663 515 638 481 q 730 569 689 550 q 815 588 771 588 q 902 568 863 588 q 966 513 942 549 q 990 428 990 478 q 973 359 990 388 q 926 315 956 331 q 997 258 972 296 q 1021 169 1021 219 q 992 72 1021 111 q 915 13 963 32 q 815 -7 868 -7 m 815 69 q 878 82 850 69 q 922 118 906 94 q 939 176 939 142 q 904 254 939 225 q 815 283 869 283 q 724 255 760 283 q 689 176 689 226 q 706 118 689 142 q 753 82 724 94 q 815 69 782 69 m 815 339 q 884 362 857 339 q 911 422 911 385 q 885 487 911 463 q 815 511 858 511 q 748 488 776 511 q 719 425 719 465 q 747 363 719 386 q 815 339 774 339 z "},"⅜":{"ha":1183,"x_min":44,"x_max":1133,"o":"m 256 381 q 103 432 161 381 q 44 567 44 483 l 126 571 q 163 489 126 519 q 257 458 199 458 q 350 486 317 458 q 383 561 383 514 q 338 639 383 618 q 224 660 293 660 l 224 725 q 286 733 257 725 q 333 760 315 740 q 351 813 351 779 q 324 874 351 851 q 254 897 297 897 q 179 871 206 897 q 151 804 153 844 l 71 808 q 124 928 71 882 q 257 975 176 975 q 383 932 333 975 q 433 821 433 889 q 406 744 433 774 q 343 701 379 715 q 403 675 376 693 q 447 629 431 657 q 464 561 464 601 q 406 431 464 481 q 256 381 349 381 m 271 0 l 829 968 l 914 968 l 356 0 l 271 0 m 928 -7 q 828 13 875 -7 q 751 72 781 32 q 721 169 721 111 q 745 257 721 218 q 815 315 769 296 q 768 360 786 332 q 750 431 750 389 q 776 515 750 481 q 842 569 801 550 q 928 588 883 588 q 1015 568 975 588 q 1078 513 1054 549 q 1103 428 1103 478 q 1085 359 1103 388 q 1039 315 1068 331 q 1109 258 1085 296 q 1133 169 1133 219 q 1104 72 1133 111 q 1028 13 1075 32 q 928 -7 981 -7 m 928 69 q 990 82 963 69 q 1035 118 1018 94 q 1051 176 1051 142 q 1017 254 1051 225 q 928 283 982 283 q 837 255 872 283 q 801 176 801 226 q 819 118 801 142 q 865 82 836 94 q 928 69 894 69 m 928 339 q 997 362 969 339 q 1024 422 1024 385 q 997 487 1024 463 q 928 511 971 511 q 860 488 889 511 q 832 425 832 465 q 859 363 832 386 q 928 339 886 339 z "},"⅝":{"ha":1176,"x_min":47,"x_max":1126,"o":"m 251 381 q 156 402 200 381 q 84 463 113 424 q 47 551 56 501 l 128 565 q 167 490 135 522 q 251 458 199 458 q 319 477 292 458 q 360 525 346 496 q 374 588 374 554 q 343 671 374 636 q 254 706 313 706 q 193 691 222 706 q 143 644 164 676 l 65 665 l 119 968 l 433 968 l 433 893 l 150 893 l 193 926 l 154 711 l 129 717 q 194 767 160 753 q 267 782 229 782 q 367 756 324 782 q 434 685 410 729 q 458 588 458 640 q 431 485 458 532 q 358 409 404 438 q 251 381 311 381 m 264 0 l 822 968 l 907 968 l 349 0 l 264 0 m 921 -7 q 821 13 868 -7 q 744 72 774 32 q 714 169 714 111 q 738 257 714 218 q 808 315 763 296 q 761 360 779 332 q 743 431 743 389 q 769 515 743 481 q 835 569 794 550 q 921 588 876 588 q 1008 568 968 588 q 1072 513 1047 549 q 1096 428 1096 478 q 1078 359 1096 388 q 1032 315 1061 331 q 1102 258 1078 296 q 1126 169 1126 219 q 1097 72 1126 111 q 1021 13 1068 32 q 921 -7 974 -7 m 921 69 q 983 82 956 69 q 1028 118 1011 94 q 1044 176 1044 142 q 1010 254 1044 225 q 921 283 975 283 q 830 255 865 283 q 794 176 794 226 q 812 118 794 142 q 858 82 829 94 q 921 69 888 69 m 921 339 q 990 362 963 339 q 1017 422 1017 385 q 990 487 1017 463 q 921 511 964 511 q 853 488 882 511 q 825 425 825 465 q 852 363 825 386 q 921 339 879 339 z "},"⅞":{"ha":1093,"x_min":31,"x_max":1043,"o":"m 89 388 l 367 922 l 389 893 l 31 893 l 31 968 l 449 968 l 449 907 l 179 388 l 89 388 m 181 0 l 739 968 l 824 968 l 265 0 l 181 0 m 838 -7 q 738 13 785 -7 q 660 72 690 32 q 631 169 631 111 q 655 257 631 218 q 725 315 679 296 q 678 360 696 332 q 660 431 660 389 q 685 515 660 481 q 752 569 711 550 q 838 588 793 588 q 924 568 885 588 q 988 513 964 549 q 1013 428 1013 478 q 995 359 1013 388 q 949 315 978 331 q 1019 258 994 296 q 1043 169 1043 219 q 1014 72 1043 111 q 938 13 985 32 q 838 -7 890 -7 m 838 69 q 900 82 872 69 q 944 118 928 94 q 961 176 961 142 q 926 254 961 225 q 838 283 892 283 q 747 255 782 283 q 711 176 711 226 q 728 118 711 142 q 775 82 746 94 q 838 69 804 69 m 838 339 q 906 362 879 339 q 933 422 933 385 q 907 487 933 463 q 838 511 881 511 q 770 488 799 511 q 742 425 742 465 q 769 363 742 386 q 838 339 796 339 z "},"¹":{"ha":376,"x_min":58,"x_max":264,"o":"m 200 678 l 200 1143 l 221 1110 l 58 1110 l 58 1161 l 151 1161 q 203 1207 203 1161 l 203 1253 l 264 1253 l 264 678 l 200 678 z "},"²":{"ha":581,"x_min":81,"x_max":500,"o":"m 81 678 l 81 735 q 185 803 129 765 q 290 885 240 840 q 372 981 340 931 q 404 1089 404 1032 q 376 1169 404 1138 q 293 1200 349 1200 q 227 1181 254 1200 q 186 1131 200 1163 q 171 1056 172 1099 l 107 1061 q 128 1160 107 1115 q 192 1233 150 1206 q 293 1260 233 1260 q 420 1215 371 1260 q 469 1088 469 1169 q 443 981 469 1032 q 374 885 417 929 q 279 803 331 840 q 178 736 228 765 l 163 738 l 500 738 l 500 678 l 81 678 z "},"³":{"ha":574,"x_min":79,"x_max":488,"o":"m 283 669 q 180 690 226 669 q 106 751 133 711 q 79 849 79 792 l 142 854 q 183 762 142 794 q 285 729 224 729 q 383 759 342 729 q 425 846 425 789 q 397 917 425 893 q 331 948 369 940 q 256 956 292 956 l 256 1001 q 328 1011 297 1001 q 376 1041 360 1021 q 393 1094 393 1061 q 361 1169 393 1143 q 285 1196 329 1196 q 202 1168 235 1196 q 168 1092 169 1140 l 106 1096 q 158 1214 106 1171 q 282 1257 210 1257 q 369 1239 329 1257 q 433 1187 408 1221 q 457 1107 457 1153 q 444 1051 457 1075 q 408 1010 431 1026 q 360 985 386 994 q 424 958 396 978 q 470 910 453 939 q 488 840 488 881 q 460 748 488 786 q 385 690 432 710 q 283 669 339 669 z "},"⁴":{"ha":571,"x_min":63,"x_max":504,"o":"m 338 672 l 338 811 l 63 811 l 63 878 l 335 1253 l 411 1253 l 411 879 l 504 879 l 504 811 l 411 811 l 411 672 l 338 672 m 124 858 l 117 879 l 338 879 l 338 1171 l 347 1169 l 124 858 z "}," ":{"ha":361,"x_min":0,"x_max":0,"o":""}," ":{"ha":361,"x_min":0,"x_max":0,"o":""},"·":{"ha":490,"x_min":92,"x_max":399,"o":"m 92 190 l 92 497 l 399 497 l 399 190 l 92 190 z "},";":{"ha":333,"x_min":11,"x_max":272,"o":"m 11 -214 l 142 181 l 272 181 l 92 -214 l 11 -214 m 119 492 l 119 654 l 258 654 l 258 492 l 119 492 z "},".":{"ha":333,"x_min":97,"x_max":236,"o":"m 97 0 l 97 161 l 236 161 l 236 0 l 97 0 z "},",":{"ha":333,"x_min":33,"x_max":293,"o":"m 33 -214 l 163 204 l 293 204 l 113 -214 l 33 -214 z "},":":{"ha":333,"x_min":97,"x_max":236,"o":"m 97 492 l 97 654 l 236 654 l 236 492 l 97 492 m 97 0 l 97 161 l 236 161 l 236 0 l 97 0 z "},";":{"ha":333,"x_min":11,"x_max":272,"o":"m 11 -214 l 142 181 l 272 181 l 92 -214 l 11 -214 m 119 492 l 119 654 l 258 654 l 258 492 l 119 492 z "},"…":{"ha":928,"x_min":97,"x_max":831,"o":"m 707 0 l 707 161 l 831 161 l 831 0 l 707 0 m 97 0 l 97 161 l 219 161 l 219 0 l 97 0 m 403 0 l 403 161 l 526 161 l 526 0 l 403 0 z "},"!":{"ha":333,"x_min":97,"x_max":236,"o":"m 122 281 l 108 968 l 226 968 l 213 281 l 122 281 m 97 0 l 97 161 l 236 161 l 236 0 l 97 0 z "},"¡":{"ha":333,"x_min":97,"x_max":236,"o":"m 211 404 l 225 -283 l 107 -283 l 121 404 l 211 404 m 236 685 l 236 524 l 97 524 l 97 685 l 236 685 z "},"?":{"ha":717,"x_min":60,"x_max":646,"o":"m 303 278 l 303 357 q 320 449 303 413 q 365 513 338 486 q 423 560 392 539 q 481 604 454 582 q 526 656 508 626 q 543 729 543 686 q 494 842 543 803 q 357 881 444 881 q 215 833 265 881 q 164 699 164 785 l 60 699 q 99 851 61 789 q 205 947 138 914 q 358 979 272 979 q 506 952 440 979 q 608 869 571 925 q 646 728 646 814 q 628 628 646 668 q 583 560 611 588 q 525 511 556 532 q 467 469 494 490 q 422 420 439 449 q 404 349 404 392 l 404 278 l 303 278 m 286 0 l 286 161 l 425 161 l 425 0 l 286 0 z "}}}
